  0
SECTION
  2
HEADER
  9
$ACADVER
  1
AC1014
  9
$HANDSEED
  5
FFFF
  9
$MEASUREMENT
 70
     1
  0
ENDSEC
  0
SECTION
  2
TABLES
  0
TABLE
  2
VPORT
  5
8
330
0
100
AcDbSymbolTable
 70
     4
  0
VPORT
  5
2E
330
8
100
AcDbSymbolTableRecord
100
AcDbViewportTableRecord
  2
*ACTIVE
 70
     0
 10
0.0
 20
0.0
 11
1.0
 21
1.0
 12
210.0
 22
148.5
 13
0.0
 23
0.0
 14
10.0
 24
10.0
 15
10.0
 25
10.0
 16
0.0
 26
0.0
 36
1.0
 17
0.0
 27
0.0
 37
0.0
 40
341.0
 41
1.24
 42
50.0
 43
0.0
 44
0.0
 50
0.0
 51
0.0
 71
     0
 72
   100
 73
     1
 74
     3
 75
     0
 76
     0
 77
     0
 78
     0
  0
ENDTAB
  0
TABLE
  2
LTYPE
  5
5
330
0
100
AcDbSymbolTable
 70
     1
  0
LTYPE
  5
14
330
5
100
AcDbSymbolTableRecord
100
AcDbLinetypeTableRecord
  2
BYBLOCK
 70
     0
  3

 72
    65
 73
     0
 40
0.0
  0
LTYPE
  5
15
330
5
100
AcDbSymbolTableRecord
100
AcDbLinetypeTableRecord
  2
BYLAYER
 70
     0
  3

 72
    65
 73
     0
 40
0.0
  0
LTYPE
  5
16
330
5
100
AcDbSymbolTableRecord
100
AcDbLinetypeTableRecord
  2
CONTINUOUS
 70
     0
  3
Solid line
 72
    65
 73
     0
 40
0.0
  0
ENDTAB
  0
TABLE
  2
LAYER
  5
2
100
AcDbSymbolTable
 70
7
  0
LAYER
  5
50
100
AcDbSymbolTableRecord
100
AcDbLayerTableRecord
  2
0
 70
0
  6
CONTINUOUS
  0
LAYER
  5
51
100
AcDbSymbolTableRecord
100
AcDbLayerTableRecord
  2
DT250
 70
0
  6
CONTINUOUS
  0
LAYER
  5
52
100
AcDbSymbolTableRecord
100
AcDbLayerTableRecord
  2
DT500
 70
0
  6
CONTINUOUS
  0
LAYER
  5
53
100
AcDbSymbolTableRecord
100
AcDbLayerTableRecord
  2
DT_COMPONENTS
 70
0
  6
CONTINUOUS
  0
LAYER
  5
54
100
AcDbSymbolTableRecord
100
AcDbLayerTableRecord
  2
DTR250
 70
0
  6
CONTINUOUS
  0
LAYER
  5
55
100
AcDbSymbolTableRecord
100
AcDbLayerTableRecord
  2
UNASSIGNED
 70
0
  6
CONTINUOUS
  0
LAYER
  5
56
100
AcDbSymbolTableRecord
100
AcDbLayerTableRecord
  2
CONSTRUCTION
 70
0
  6
CONTINUOUS
  0
ENDTAB
  0
TABLE
  2
STYLE
  5
3
330
0
100
AcDbSymbolTable
 70
     1
  0
STYLE
  5
11
330
3
100
AcDbSymbolTableRecord
100
AcDbTextStyleTableRecord
  2
STANDARD
 70
     0
 40
0.0
 41
1.0
 50
0.0
 71
     0
 42
2.5
  3
txt
  4

  0
ENDTAB
  0
TABLE
  2
VIEW
  5
6
330
0
100
AcDbSymbolTable
 70
     0
  0
ENDTAB
  0
TABLE
  2
UCS
  5
7
330
0
100
AcDbSymbolTable
 70
     0
  0
ENDTAB
  0
TABLE
  2
APPID
  5
9
330
0
100
AcDbSymbolTable
 70
     2
  0
APPID
  5
12
330
9
100
AcDbSymbolTableRecord
100
AcDbRegAppTableRecord
  2
ACAD
 70
     0
  0
ENDTAB
  0
TABLE
  2
DIMSTYLE
  5
A
330
0
100
AcDbSymbolTable
 70
     1
  0
DIMSTYLE
105
27
330
A
100
AcDbSymbolTableRecord
100
AcDbDimStyleTableRecord
  2
ISO-25
 70
     0
  3

  4

  5

  6

  7

 40
1.0
 41
2.5
 42
0.625
 43
3.75
 44
1.25
 45
0.0
 46
0.0
 47
0.0
 48
0.0
140
2.5
141
2.5
142
0.0
143
0.03937007874016
144
1.0
145
0.0
146
1.0
147
0.625
 71
     0
 72
     0
 73
     0
 74
     0
 75
     0
 76
     0
 77
     1
 78
     8
170
     0
171
     3
172
     1
173
     0
174
     0
175
     0
176
     0
177
     0
178
     0
270
     2
271
     2
272
     2
273
     2
274
     3
340
11
275
     0
280
     0
281
     0
282
     0
283
     0
284
     8
285
     0
286
     0
287
     3
288
     0
  0
ENDTAB
  0
TABLE
  2
BLOCK_RECORD
  5
1
330
0
100
AcDbSymbolTable
 70
     1
  0
BLOCK_RECORD
  5
1F
330
1
100
AcDbSymbolTableRecord
100
AcDbBlockTableRecord
  2
*MODEL_SPACE
  0
BLOCK_RECORD
  5
1B
330
1
100
AcDbSymbolTableRecord
100
AcDbBlockTableRecord
  2
*PAPER_SPACE
  0
ENDTAB
  0
ENDSEC
  0
SECTION
  2
BLOCKS
  0
BLOCK
  5
20
330
1F
100
AcDbEntity
  8
0
100
AcDbBlockBegin
  2
*MODEL_SPACE
 70
     0
 10
0.0
 20
0.0
 30
0.0
  3
*MODEL_SPACE
  1

  0
ENDBLK
  5
21
330
1F
100
AcDbEntity
  8
0
100
AcDbBlockEnd
  0
BLOCK
  5
1C
330
1B
100
AcDbEntity
 67
     1
  8
0
100
AcDbBlockBegin
  2
*PAPER_SPACE
  1

  0
ENDBLK
  5
1D
330
1B
100
AcDbEntity
 67
     1
  8
0
100
AcDbBlockEnd
  0
ENDSEC
  0
SECTION
  2
ENTITIES
  0
SPLINE
  5
100
100
AcDbEntity
  8
DT250
 62
3
100
AcDbSpline
 70
0
 71
3
 72
25
 73
21
 74
19
 40
0.000000
 40
0.000000
 40
0.000000
 40
0.000000
 40
9.550911
 40
18.965133
 40
28.516043
 40
38.066954
 40
47.481176
 40
57.032086
 40
66.582997
 40
75.997219
 40
85.548129
 40
95.099040
 40
104.513262
 40
114.064172
 40
123.615083
 40
133.029305
 40
142.580216
 40
152.131126
 40
161.545348
 40
171.096259
 40
171.096259
 40
171.096259
 40
171.096259
 10
1252.346817
 20
856.243544
 30
0.0
 10
1252.019809
 20
859.443418
 30
0.0
 10
1251.370474
 20
865.797371
 30
0.0
 10
1246.332694
 20
874.194218
 30
0.0
 10
1238.956532
 20
880.437053
 30
0.0
 10
1229.822544
 20
883.748045
 30
0.0
 10
1220.130353
 20
883.748045
 30
0.0
 10
1211.009158
 20
880.437053
 30
0.0
 10
1203.581917
 20
874.194218
 30
0.0
 10
1198.733923
 20
865.797371
 30
0.0
 10
1197.041247
 20
856.243544
 30
0.0
 10
1198.733923
 20
846.689717
 30
0.0
 10
1203.581917
 20
838.292870
 30
0.0
 10
1211.009158
 20
832.050035
 30
0.0
 10
1220.130353
 20
828.739043
 30
0.0
 10
1229.822544
 20
828.739043
 30
0.0
 10
1238.956532
 20
832.050035
 30
0.0
 10
1246.332694
 20
838.292870
 30
0.0
 10
1251.370474
 20
846.689717
 30
0.0
 10
1252.019809
 20
853.043670
 30
0.0
 10
1252.346817
 20
856.243544
 30
0.0
 11
1252.346817
 21
856.243544
 31
0.0
 11
1250.680741
 21
865.648016
 31
0.0
 11
1245.973630
 21
873.800971
 31
0.0
 11
1238.662157
 21
879.946070
 31
0.0
 11
1229.684608
 21
883.205442
 31
0.0
 11
1220.270386
 21
883.205442
 31
0.0
 11
1211.292837
 21
879.946070
 31
0.0
 11
1203.981363
 21
873.800971
 31
0.0
 11
1199.274252
 21
865.648016
 31
0.0
 11
1197.608177
 21
856.243544
 31
0.0
 11
1199.274252
 21
846.839072
 31
0.0
 11
1203.981363
 21
838.686117
 31
0.0
 11
1211.292837
 21
832.541018
 31
0.0
 11
1220.270386
 21
829.281646
 31
0.0
 11
1229.684608
 21
829.281646
 31
0.0
 11
1238.662157
 21
832.541018
 31
0.0
 11
1245.973630
 21
838.686117
 31
0.0
 11
1250.680741
 21
846.839072
 31
0.0
 11
1252.346817
 21
856.243544
 31
0.0
  0
LWPOLYLINE
  5
101
100
AcDbEntity
  8
DT250
 62
3
100
AcDbPolyline
 90
2
 70
1
 10
1252.346817
 20
856.243544
 30
0.0
 10
1252.346817
 20
856.243544
 30
0.0
  0
SPLINE
  5
102
100
AcDbEntity
  8
DT250
 62
3
100
AcDbSpline
 70
0
 71
3
 72
25
 73
21
 74
19
 40
0.000000
 40
0.000000
 40
0.000000
 40
0.000000
 40
9.550911
 40
18.965134
 40
28.516045
 40
38.066956
 40
47.481178
 40
57.032089
 40
66.583000
 40
75.997223
 40
85.548134
 40
95.099045
 40
104.513267
 40
114.064179
 40
123.615090
 40
133.029312
 40
142.580223
 40
152.131134
 40
161.545357
 40
171.096268
 40
171.096268
 40
171.096268
 40
171.096268
 10
1169.351457
 20
925.350504
 30
0.0
 10
1169.024450
 20
928.550378
 30
0.0
 10
1168.375115
 20
934.904332
 30
0.0
 10
1163.337335
 20
943.301179
 30
0.0
 10
1155.961173
 20
949.544015
 30
0.0
 10
1146.827184
 20
952.855007
 30
0.0
 10
1137.134993
 20
952.855007
 30
0.0
 10
1128.013797
 20
949.544015
 30
0.0
 10
1120.586556
 20
943.301179
 30
0.0
 10
1115.738562
 20
934.904332
 30
0.0
 10
1114.045887
 20
925.350504
 30
0.0
 10
1115.738562
 20
915.796676
 30
0.0
 10
1120.586556
 20
907.399829
 30
0.0
 10
1128.013797
 20
901.156993
 30
0.0
 10
1137.134993
 20
897.846001
 30
0.0
 10
1146.827184
 20
897.846001
 30
0.0
 10
1155.961173
 20
901.156993
 30
0.0
 10
1163.337335
 20
907.399829
 30
0.0
 10
1168.375115
 20
915.796676
 30
0.0
 10
1169.024450
 20
922.150630
 30
0.0
 10
1169.351457
 20
925.350504
 30
0.0
 11
1169.351457
 21
925.350504
 31
0.0
 11
1167.685382
 21
934.754976
 31
0.0
 11
1162.978271
 21
942.907932
 31
0.0
 11
1155.666797
 21
949.053032
 31
0.0
 11
1146.689248
 21
952.312405
 31
0.0
 11
1137.275026
 21
952.312405
 31
0.0
 11
1128.297476
 21
949.053032
 31
0.0
 11
1120.986002
 21
942.907932
 31
0.0
 11
1116.278892
 21
934.754976
 31
0.0
 11
1114.612817
 21
925.350504
 31
0.0
 11
1116.278892
 21
915.946032
 31
0.0
 11
1120.986002
 21
907.793076
 31
0.0
 11
1128.297476
 21
901.647976
 31
0.0
 11
1137.275026
 21
898.388603
 31
0.0
 11
1146.689248
 21
898.388603
 31
0.0
 11
1155.666797
 21
901.647976
 31
0.0
 11
1162.978271
 21
907.793076
 31
0.0
 11
1167.685382
 21
915.946032
 31
0.0
 11
1169.351457
 21
925.350504
 31
0.0
  0
LWPOLYLINE
  5
103
100
AcDbEntity
  8
DT250
 62
3
100
AcDbPolyline
 90
2
 70
1
 10
1169.351457
 20
925.350504
 30
0.0
 10
1169.351457
 20
925.350504
 30
0.0
  0
SPLINE
  5
104
100
AcDbEntity
  8
DT250
 62
3
100
AcDbSpline
 70
0
 71
3
 72
25
 73
21
 74
19
 40
0.000000
 40
0.000000
 40
0.000000
 40
0.000000
 40
9.550911
 40
18.965134
 40
28.516045
 40
38.066956
 40
47.481178
 40
57.032089
 40
66.583000
 40
75.997223
 40
85.548134
 40
95.099045
 40
104.513267
 40
114.064179
 40
123.615090
 40
133.029312
 40
142.580223
 40
152.131134
 40
161.545357
 40
171.096268
 40
171.096268
 40
171.096268
 40
171.096268
 10
1086.356097
 20
994.457464
 30
0.0
 10
1086.029090
 20
997.657338
 30
0.0
 10
1085.379755
 20
1004.011292
 30
0.0
 10
1080.341975
 20
1012.408139
 30
0.0
 10
1072.965813
 20
1018.650975
 30
0.0
 10
1063.831824
 20
1021.961967
 30
0.0
 10
1054.139633
 20
1021.961967
 30
0.0
 10
1045.018437
 20
1018.650975
 30
0.0
 10
1037.591196
 20
1012.408139
 30
0.0
 10
1032.743202
 20
1004.011292
 30
0.0
 10
1031.050527
 20
994.457464
 30
0.0
 10
1032.743202
 20
984.903636
 30
0.0
 10
1037.591196
 20
976.506789
 30
0.0
 10
1045.018437
 20
970.263953
 30
0.0
 10
1054.139633
 20
966.952961
 30
0.0
 10
1063.831824
 20
966.952961
 30
0.0
 10
1072.965813
 20
970.263953
 30
0.0
 10
1080.341975
 20
976.506789
 30
0.0
 10
1085.379755
 20
984.903636
 30
0.0
 10
1086.029090
 20
991.257590
 30
0.0
 10
1086.356097
 20
994.457464
 30
0.0
 11
1086.356097
 21
994.457464
 31
0.0
 11
1084.690022
 21
1003.861936
 31
0.0
 11
1079.982911
 21
1012.014892
 31
0.0
 11
1072.671437
 21
1018.159992
 31
0.0
 11
1063.693888
 21
1021.419365
 31
0.0
 11
1054.279666
 21
1021.419365
 31
0.0
 11
1045.302116
 21
1018.159992
 31
0.0
 11
1037.990642
 21
1012.014892
 31
0.0
 11
1033.283532
 21
1003.861936
 31
0.0
 11
1031.617457
 21
994.457464
 31
0.0
 11
1033.283532
 21
985.052992
 31
0.0
 11
1037.990642
 21
976.900036
 31
0.0
 11
1045.302116
 21
970.754936
 31
0.0
 11
1054.279666
 21
967.495563
 31
0.0
 11
1063.693888
 21
967.495563
 31
0.0
 11
1072.671437
 21
970.754936
 31
0.0
 11
1079.982911
 21
976.900036
 31
0.0
 11
1084.690022
 21
985.052992
 31
0.0
 11
1086.356097
 21
994.457464
 31
0.0
  0
SPLINE
  5
105
100
AcDbEntity
  8
DT250
 62
3
100
AcDbSpline
 70
0
 71
3
 72
16
 73
12
 74
10
 40
0.000000
 40
0.000000
 40
0.000000
 40
0.000000
 40
9.552975
 40
18.969177
 40
28.522152
 40
38.075127
 40
47.491328
 40
57.044304
 40
66.597279
 40
76.013480
 40
85.566456
 40
85.566456
 40
85.566456
 40
85.566456
 10
914.634977
 20
1008.702184
 30
0.0
 10
914.308924
 20
1011.902869
 30
0.0
 10
913.661486
 20
1018.258412
 30
0.0
 10
908.624389
 20
1026.658299
 30
0.0
 10
901.247808
 20
1032.903643
 30
0.0
 10
892.111040
 20
1036.216067
 30
0.0
 10
882.420345
 20
1036.216067
 30
0.0
 10
873.283577
 20
1032.903643
 30
0.0
 10
865.906996
 20
1026.658299
 30
0.0
 10
860.869900
 20
1018.258412
 30
0.0
 10
860.222462
 20
1011.902869
 30
0.0
 10
859.896409
 20
1008.702184
 30
0.0
 11
914.634977
 21
1008.702184
 31
0.0
 11
912.971396
 21
1018.109194
 31
0.0
 11
908.265154
 21
1026.264936
 31
0.0
 11
900.953037
 21
1032.412479
 31
0.0
 11
891.973794
 21
1035.673234
 31
0.0
 11
882.557592
 21
1035.673234
 31
0.0
 11
873.578349
 21
1032.412479
 31
0.0
 11
866.266232
 21
1026.264936
 31
0.0
 11
861.559990
 21
1018.109194
 31
0.0
 11
859.896409
 21
1008.702184
 31
0.0
  0
LWPOLYLINE
  5
106
100
AcDbEntity
  8
DT250
 62
3
100
AcDbPolyline
 90
2
 70
1
 10
1086.356097
 20
994.457464
 30
0.0
 10
1086.356097
 20
994.457464
 30
0.0
  0
SPLINE
  5
107
100
AcDbEntity
  8
DT250
 62
3
100
AcDbSpline
 70
0
 71
3
 72
16
 73
12
 74
10
 40
0.000000
 40
0.000000
 40
0.000000
 40
0.000000
 40
9.552975
 40
18.969177
 40
28.522152
 40
38.075127
 40
47.491328
 40
57.044304
 40
66.597279
 40
76.013480
 40
85.566456
 40
85.566456
 40
85.566456
 40
85.566456
 10
859.896409
 20
1008.702184
 30
0.0
 10
860.222462
 20
1005.501499
 30
0.0
 10
860.869900
 20
999.145956
 30
0.0
 10
865.906996
 20
990.746069
 30
0.0
 10
873.283577
 20
984.500725
 30
0.0
 10
882.420345
 20
981.188301
 30
0.0
 10
892.111040
 20
981.188301
 30
0.0
 10
901.247808
 20
984.500725
 30
0.0
 10
908.624389
 20
990.746069
 30
0.0
 10
913.661486
 20
999.145956
 30
0.0
 10
914.308924
 20
1005.501499
 30
0.0
 10
914.634977
 20
1008.702184
 30
0.0
 11
859.896409
 21
1008.702184
 31
0.0
 11
861.559990
 21
999.295174
 31
0.0
 11
866.266232
 21
991.139432
 31
0.0
 11
873.578349
 21
984.991889
 31
0.0
 11
882.557592
 21
981.731134
 31
0.0
 11
891.973794
 21
981.731134
 31
0.0
 11
900.953037
 21
984.991889
 31
0.0
 11
908.265154
 21
991.139432
 31
0.0
 11
912.971396
 21
999.295174
 31
0.0
 11
914.634977
 21
1008.702184
 31
0.0
  0
LWPOLYLINE
  5
108
100
AcDbEntity
  8
DT250
 62
3
100
AcDbPolyline
 90
2
 70
1
 10
914.634977
 20
1008.702184
 30
0.0
 10
914.634977
 20
1008.702184
 30
0.0
  0
SPLINE
  5
109
100
AcDbEntity
  8
DT250
 62
3
100
AcDbSpline
 70
0
 71
3
 72
25
 73
21
 74
19
 40
0.000000
 40
0.000000
 40
0.000000
 40
0.000000
 40
9.550899
 40
18.965110
 40
28.516010
 40
38.066909
 40
47.481120
 40
57.032020
 40
66.582919
 40
75.997130
 40
85.548029
 40
95.098929
 40
104.513140
 40
114.064039
 40
123.614938
 40
133.029149
 40
142.580049
 40
152.130948
 40
161.545159
 40
171.096059
 40
171.096059
 40
171.096059
 40
171.096059
 10
828.774985
 20
1008.702184
 30
0.0
 10
828.447978
 20
1011.902054
 30
0.0
 10
827.798643
 20
1018.256000
 30
0.0
 10
822.760869
 20
1026.652837
 30
0.0
 10
815.384716
 20
1032.895665
 30
0.0
 10
806.250738
 20
1036.206653
 30
0.0
 10
796.558559
 20
1036.206653
 30
0.0
 10
787.437374
 20
1032.895665
 30
0.0
 10
780.010142
 20
1026.652837
 30
0.0
 10
775.162154
 20
1018.256000
 30
0.0
 10
773.469479
 20
1008.702184
 30
0.0
 10
775.162154
 20
999.148368
 30
0.0
 10
780.010142
 20
990.751531
 30
0.0
 10
787.437374
 20
984.508703
 30
0.0
 10
796.558559
 20
981.197715
 30
0.0
 10
806.250738
 20
981.197715
 30
0.0
 10
815.384716
 20
984.508703
 30
0.0
 10
822.760869
 20
990.751531
 30
0.0
 10
827.798643
 20
999.148368
 30
0.0
 10
828.447978
 20
1005.502314
 30
0.0
 10
828.774985
 20
1008.702184
 30
0.0
 11
828.774985
 21
1008.702184
 31
0.0
 11
827.108911
 21
1018.106645
 31
0.0
 11
822.401806
 21
1026.259590
 31
0.0
 11
815.090341
 21
1032.404683
 31
0.0
 11
806.112802
 21
1035.664051
 31
0.0
 11
796.698591
 21
1035.664051
 31
0.0
 11
787.721053
 21
1032.404683
 31
0.0
 11
780.409588
 21
1026.259590
 31
0.0
 11
775.702482
 21
1018.106645
 31
0.0
 11
774.036409
 21
1008.702184
 31
0.0
 11
775.702482
 21
999.297723
 31
0.0
 11
780.409588
 21
991.144778
 31
0.0
 11
787.721053
 21
984.999685
 31
0.0
 11
796.698591
 21
981.740317
 31
0.0
 11
806.112802
 21
981.740317
 31
0.0
 11
815.090341
 21
984.999685
 31
0.0
 11
822.401806
 21
991.144778
 31
0.0
 11
827.108911
 21
999.297723
 31
0.0
 11
828.774985
 21
1008.702184
 31
0.0
  0
LWPOLYLINE
  5
10a
100
AcDbEntity
  8
DT250
 62
3
100
AcDbPolyline
 90
2
 70
1
 10
828.774985
 20
1008.702184
 30
0.0
 10
828.774985
 20
1008.702184
 30
0.0
  0
SPLINE
  5
10b
100
AcDbEntity
  8
DT250
 62
3
100
AcDbSpline
 70
0
 71
3
 72
25
 73
21
 74
19
 40
0.000000
 40
0.000000
 40
0.000000
 40
0.000000
 40
9.550899
 40
18.965110
 40
28.516010
 40
38.066909
 40
47.481120
 40
57.032020
 40
66.582919
 40
75.997130
 40
85.548029
 40
95.098929
 40
104.513140
 40
114.064039
 40
123.614938
 40
133.029149
 40
142.580049
 40
152.130948
 40
161.545159
 40
171.096059
 40
171.096059
 40
171.096059
 40
171.096059
 10
742.914985
 20
1008.702184
 30
0.0
 10
742.587978
 20
1011.902054
 30
0.0
 10
741.938643
 20
1018.256000
 30
0.0
 10
736.900869
 20
1026.652837
 30
0.0
 10
729.524716
 20
1032.895665
 30
0.0
 10
720.390738
 20
1036.206653
 30
0.0
 10
710.698559
 20
1036.206653
 30
0.0
 10
701.577374
 20
1032.895665
 30
0.0
 10
694.150142
 20
1026.652837
 30
0.0
 10
689.302154
 20
1018.256000
 30
0.0
 10
687.609479
 20
1008.702184
 30
0.0
 10
689.302154
 20
999.148368
 30
0.0
 10
694.150142
 20
990.751531
 30
0.0
 10
701.577374
 20
984.508703
 30
0.0
 10
710.698559
 20
981.197715
 30
0.0
 10
720.390738
 20
981.197715
 30
0.0
 10
729.524716
 20
984.508703
 30
0.0
 10
736.900869
 20
990.751531
 30
0.0
 10
741.938643
 20
999.148368
 30
0.0
 10
742.587978
 20
1005.502314
 30
0.0
 10
742.914985
 20
1008.702184
 30
0.0
 11
742.914985
 21
1008.702184
 31
0.0
 11
741.248911
 21
1018.106645
 31
0.0
 11
736.541806
 21
1026.259590
 31
0.0
 11
729.230341
 21
1032.404683
 31
0.0
 11
720.252802
 21
1035.664051
 31
0.0
 11
710.838591
 21
1035.664051
 31
0.0
 11
701.861053
 21
1032.404683
 31
0.0
 11
694.549588
 21
1026.259590
 31
0.0
 11
689.842482
 21
1018.106645
 31
0.0
 11
688.176409
 21
1008.702184
 31
0.0
 11
689.842482
 21
999.297723
 31
0.0
 11
694.549588
 21
991.144778
 31
0.0
 11
701.861053
 21
984.999685
 31
0.0
 11
710.838591
 21
981.740317
 31
0.0
 11
720.252802
 21
981.740317
 31
0.0
 11
729.230341
 21
984.999685
 31
0.0
 11
736.541806
 21
991.144778
 31
0.0
 11
741.248911
 21
999.297723
 31
0.0
 11
742.914985
 21
1008.702184
 31
0.0
  0
SPLINE
  5
10c
100
AcDbEntity
  8
DT250
 62
3
100
AcDbSpline
 70
0
 71
3
 72
16
 73
12
 74
10
 40
0.000000
 40
0.000000
 40
0.000000
 40
0.000000
 40
9.552975
 40
18.969177
 40
28.522152
 40
38.075127
 40
47.491328
 40
57.044304
 40
66.597279
 40
76.013480
 40
85.566456
 40
85.566456
 40
85.566456
 40
85.566456
 10
571.193897
 20
994.457464
 30
0.0
 10
570.867844
 20
997.658149
 30
0.0
 10
570.220406
 20
1004.013692
 30
0.0
 10
565.183309
 20
1012.413579
 30
0.0
 10
557.806728
 20
1018.658923
 30
0.0
 10
548.669960
 20
1021.971347
 30
0.0
 10
538.979265
 20
1021.971347
 30
0.0
 10
529.842497
 20
1018.658923
 30
0.0
 10
522.465916
 20
1012.413579
 30
0.0
 10
517.428820
 20
1004.013692
 30
0.0
 10
516.781382
 20
997.658149
 30
0.0
 10
516.455329
 20
994.457464
 30
0.0
 11
571.193897
 21
994.457464
 31
0.0
 11
569.530316
 21
1003.864474
 31
0.0
 11
564.824074
 21
1012.020216
 31
0.0
 11
557.511957
 21
1018.167759
 31
0.0
 11
548.532714
 21
1021.428514
 31
0.0
 11
539.116512
 21
1021.428514
 31
0.0
 11
530.137269
 21
1018.167759
 31
0.0
 11
522.825152
 21
1012.020216
 31
0.0
 11
518.118910
 21
1003.864474
 31
0.0
 11
516.455329
 21
994.457464
 31
0.0
  0
LWPOLYLINE
  5
10d
100
AcDbEntity
  8
DT250
 62
3
100
AcDbPolyline
 90
2
 70
1
 10
742.914985
 20
1008.702184
 30
0.0
 10
742.914985
 20
1008.702184
 30
0.0
  0
SPLINE
  5
10e
100
AcDbEntity
  8
DT250
 62
3
100
AcDbSpline
 70
0
 71
3
 72
16
 73
12
 74
10
 40
0.000000
 40
0.000000
 40
0.000000
 40
0.000000
 40
9.552975
 40
18.969177
 40
28.522152
 40
38.075127
 40
47.491328
 40
57.044304
 40
66.597279
 40
76.013480
 40
85.566456
 40
85.566456
 40
85.566456
 40
85.566456
 10
516.455329
 20
994.457464
 30
0.0
 10
516.781382
 20
991.256779
 30
0.0
 10
517.428820
 20
984.901236
 30
0.0
 10
522.465916
 20
976.501349
 30
0.0
 10
529.842497
 20
970.256005
 30
0.0
 10
538.979265
 20
966.943581
 30
0.0
 10
548.669960
 20
966.943581
 30
0.0
 10
557.806728
 20
970.256005
 30
0.0
 10
565.183309
 20
976.501349
 30
0.0
 10
570.220406
 20
984.901236
 30
0.0
 10
570.867844
 20
991.256779
 30
0.0
 10
571.193897
 20
994.457464
 30
0.0
 11
516.455329
 21
994.457464
 31
0.0
 11
518.118910
 21
985.050454
 31
0.0
 11
522.825152
 21
976.894712
 31
0.0
 11
530.137269
 21
970.747169
 31
0.0
 11
539.116512
 21
967.486414
 31
0.0
 11
548.532714
 21
967.486414
 31
0.0
 11
557.511957
 21
970.747169
 31
0.0
 11
564.824074
 21
976.894712
 31
0.0
 11
569.530316
 21
985.050454
 31
0.0
 11
571.193897
 21
994.457464
 31
0.0
  0
SPLINE
  5
10f
100
AcDbEntity
  8
DT250
 62
3
100
AcDbSpline
 70
0
 71
3
 72
16
 73
12
 74
10
 40
0.000000
 40
0.000000
 40
0.000000
 40
0.000000
 40
9.552975
 40
18.969177
 40
28.522152
 40
38.075127
 40
47.491328
 40
57.044304
 40
66.597279
 40
76.013480
 40
85.566456
 40
85.566456
 40
85.566456
 40
85.566456
 10
488.198537
 20
925.350504
 30
0.0
 10
487.872484
 20
928.551189
 30
0.0
 10
487.225046
 20
934.906732
 30
0.0
 10
482.187949
 20
943.306619
 30
0.0
 10
474.811368
 20
949.551963
 30
0.0
 10
465.674600
 20
952.864387
 30
0.0
 10
455.983905
 20
952.864387
 30
0.0
 10
446.847137
 20
949.551963
 30
0.0
 10
439.470556
 20
943.306619
 30
0.0
 10
434.433460
 20
934.906732
 30
0.0
 10
433.786022
 20
928.551189
 30
0.0
 10
433.459969
 20
925.350504
 30
0.0
 11
488.198537
 21
925.350504
 31
0.0
 11
486.534956
 21
934.757514
 31
0.0
 11
481.828714
 21
942.913256
 31
0.0
 11
474.516597
 21
949.060799
 31
0.0
 11
465.537354
 21
952.321554
 31
0.0
 11
456.121152
 21
952.321554
 31
0.0
 11
447.141909
 21
949.060799
 31
0.0
 11
439.829792
 21
942.913256
 31
0.0
 11
435.123550
 21
934.757514
 31
0.0
 11
433.459969
 21
925.350504
 31
0.0
  0
LWPOLYLINE
  5
110
100
AcDbEntity
  8
DT250
 62
3
100
AcDbPolyline
 90
2
 70
1
 10
571.193897
 20
994.457464
 30
0.0
 10
571.193897
 20
994.457464
 30
0.0
  0
SPLINE
  5
111
100
AcDbEntity
  8
DT250
 62
3
100
AcDbSpline
 70
0
 71
3
 72
16
 73
12
 74
10
 40
0.000000
 40
0.000000
 40
0.000000
 40
0.000000
 40
9.552975
 40
18.969177
 40
28.522152
 40
38.075127
 40
47.491328
 40
57.044304
 40
66.597279
 40
76.013480
 40
85.566456
 40
85.566456
 40
85.566456
 40
85.566456
 10
433.459969
 20
925.350504
 30
0.0
 10
433.786022
 20
922.149819
 30
0.0
 10
434.433460
 20
915.794276
 30
0.0
 10
439.470556
 20
907.394389
 30
0.0
 10
446.847137
 20
901.149045
 30
0.0
 10
455.983905
 20
897.836621
 30
0.0
 10
465.674600
 20
897.836621
 30
0.0
 10
474.811368
 20
901.149045
 30
0.0
 10
482.187949
 20
907.394389
 30
0.0
 10
487.225046
 20
915.794276
 30
0.0
 10
487.872484
 20
922.149819
 30
0.0
 10
488.198537
 20
925.350504
 30
0.0
 11
433.459969
 21
925.350504
 31
0.0
 11
435.123550
 21
915.943494
 31
0.0
 11
439.829792
 21
907.787752
 31
0.0
 11
447.141909
 21
901.640209
 31
0.0
 11
456.121152
 21
898.379454
 31
0.0
 11
465.537354
 21
898.379454
 31
0.0
 11
474.516597
 21
901.640209
 31
0.0
 11
481.828714
 21
907.787752
 31
0.0
 11
486.534956
 21
915.943494
 31
0.0
 11
488.198537
 21
925.350504
 31
0.0
  0
LWPOLYLINE
  5
112
100
AcDbEntity
  8
DT250
 62
3
100
AcDbPolyline
 90
2
 70
1
 10
488.198537
 20
925.350504
 30
0.0
 10
488.198537
 20
925.350504
 30
0.0
  0
SPLINE
  5
113
100
AcDbEntity
  8
DT250
 62
3
100
AcDbSpline
 70
0
 71
3
 72
25
 73
21
 74
19
 40
0.000000
 40
0.000000
 40
0.000000
 40
0.000000
 40
9.550899
 40
18.965110
 40
28.516010
 40
38.066909
 40
47.481120
 40
57.032020
 40
66.582919
 40
75.997130
 40
85.548029
 40
95.098929
 40
104.513140
 40
114.064039
 40
123.614938
 40
133.029149
 40
142.580049
 40
152.130948
 40
161.545159
 40
171.096059
 40
171.096059
 40
171.096059
 40
171.096059
 10
405.203185
 20
856.243544
 30
0.0
 10
404.876178
 20
859.443414
 30
0.0
 10
404.226843
 20
865.797360
 30
0.0
 10
399.189069
 20
874.194197
 30
0.0
 10
391.812916
 20
880.437025
 30
0.0
 10
382.678938
 20
883.748013
 30
0.0
 10
372.986759
 20
883.748013
 30
0.0
 10
363.865574
 20
880.437025
 30
0.0
 10
356.438342
 20
874.194197
 30
0.0
 10
351.590354
 20
865.797360
 30
0.0
 10
349.897679
 20
856.243544
 30
0.0
 10
351.590354
 20
846.689728
 30
0.0
 10
356.438342
 20
838.292891
 30
0.0
 10
363.865574
 20
832.050063
 30
0.0
 10
372.986759
 20
828.739075
 30
0.0
 10
382.678938
 20
828.739075
 30
0.0
 10
391.812916
 20
832.050063
 30
0.0
 10
399.189069
 20
838.292891
 30
0.0
 10
404.226843
 20
846.689728
 30
0.0
 10
404.876178
 20
853.043674
 30
0.0
 10
405.203185
 20
856.243544
 30
0.0
 11
405.203185
 21
856.243544
 31
0.0
 11
403.537111
 21
865.648005
 31
0.0
 11
398.830006
 21
873.800950
 31
0.0
 11
391.518541
 21
879.946043
 31
0.0
 11
382.541002
 21
883.205411
 31
0.0
 11
373.126791
 21
883.205411
 31
0.0
 11
364.149253
 21
879.946043
 31
0.0
 11
356.837788
 21
873.800950
 31
0.0
 11
352.130682
 21
865.648005
 31
0.0
 11
350.464609
 21
856.243544
 31
0.0
 11
352.130682
 21
846.839083
 31
0.0
 11
356.837788
 21
838.686138
 31
0.0
 11
364.149253
 21
832.541045
 31
0.0
 11
373.126791
 21
829.281677
 31
0.0
 11
382.541002
 21
829.281677
 31
0.0
 11
391.518541
 21
832.541045
 31
0.0
 11
398.830006
 21
838.686138
 31
0.0
 11
403.537111
 21
846.839083
 31
0.0
 11
405.203185
 21
856.243544
 31
0.0
  0
LWPOLYLINE
  5
114
100
AcDbEntity
  8
DT250
 62
3
100
AcDbPolyline
 90
2
 70
1
 10
405.203185
 20
856.243544
 30
0.0
 10
405.203185
 20
856.243544
 30
0.0
  0
LWPOLYLINE
  5
115
100
AcDbEntity
  8
DT500
 62
5
100
AcDbPolyline
 90
2
 70
0
 10
1122.348817
 20
1035.390424
 30
0.0
 10
1087.767377
 20
1064.184984
 30
0.0
  0
SPLINE
  5
116
100
AcDbEntity
  8
DT500
 62
5
100
AcDbSpline
 70
0
 71
3
 72
16
 73
12
 74
10
 40
0.000000
 40
0.000000
 40
0.000000
 40
0.000000
 40
6.281357
 40
12.472819
 40
18.754176
 40
25.035534
 40
31.226995
 40
37.508352
 40
43.789710
 40
49.981171
 40
56.262529
 40
56.262529
 40
56.262529
 40
56.262529
 10
1110.803057
 20
1091.850104
 30
0.0
 10
1109.048215
 20
1093.031439
 30
0.0
 10
1105.563647
 20
1095.377204
 30
0.0
 10
1099.199769
 20
1096.364703
 30
0.0
 10
1092.940614
 20
1095.264071
 30
0.0
 10
1087.422951
 20
1092.040585
 30
0.0
 10
1083.345720
 20
1087.143960
 30
0.0
 10
1081.174834
 20
1081.133742
 30
0.0
 10
1081.225985
 20
1074.778761
 30
0.0
 10
1083.349705
 20
1068.698965
 30
0.0
 10
1086.287761
 20
1065.696857
 30
0.0
 10
1087.767377
 20
1064.184984
 30
0.0
 11
1110.803057
 21
1091.850104
 31
0.0
 11
1105.348865
 21
1094.965750
 31
0.0
 11
1099.247435
 21
1096.017769
 31
0.0
 11
1093.064789
 21
1094.908566
 31
0.0
 11
1087.639464
 21
1091.742921
 31
0.0
 11
1083.677674
 21
1086.984936
 31
0.0
 11
1081.546949
 21
1081.076006
 31
0.0
 11
1081.575816
 21
1074.794715
 31
0.0
 11
1083.715456
 21
1068.984712
 31
0.0
 11
1087.767377
 21
1064.184984
 31
0.0
  0
SPLINE
  5
117
100
AcDbEntity
  8
DT500
 62
5
100
AcDbSpline
 70
0
 71
3
 72
13
 73
9
 74
7
 40
0.000000
 40
0.000000
 40
0.000000
 40
0.000000
 40
9.403581
 40
18.528653
 40
27.932234
 40
37.335816
 40
46.460887
 40
55.864469
 40
55.864469
 40
55.864469
 40
55.864469
 10
1122.348817
 20
1035.390424
 30
0.0
 10
1125.103608
 20
1033.745208
 30
0.0
 10
1130.531599
 20
1030.503502
 30
0.0
 10
1140.393218
 20
1031.607558
 30
0.0
 10
1148.339592
 20
1037.171936
 30
0.0
 10
1152.372771
 20
1045.994671
 30
0.0
 10
1151.672517
 20
1055.893161
 30
0.0
 10
1147.501350
 20
1060.644278
 30
0.0
 10
1145.384417
 20
1063.055544
 30
0.0
 11
1122.348817
 21
1035.390424
 31
0.0
 11
1130.900033
 21
1031.478385
 31
0.0
 11
1139.986749
 21
1032.314161
 31
0.0
 11
1147.680890
 21
1037.720411
 31
0.0
 11
1151.604237
 21
1046.266444
 31
0.0
 11
1150.780483
 21
1055.354258
 31
0.0
 11
1145.384417
 21
1063.055544
 31
0.0
  0
LWPOLYLINE
  5
118
100
AcDbEntity
  8
DT500
 62
5
100
AcDbPolyline
 90
2
 70
0
 10
1110.803057
 20
1091.850104
 30
0.0
 10
1145.384417
 20
1063.055544
 30
0.0
  0
SPLINE
  5
119
100
AcDbEntity
  8
DT500
 62
5
100
AcDbSpline
 70
0
 71
3
 72
13
 73
9
 74
7
 40
0.000000
 40
0.000000
 40
0.000000
 40
0.000000
 40
9.410219
 40
18.541397
 40
27.951616
 40
37.361835
 40
46.493012
 40
55.903231
 40
55.903231
 40
55.903231
 40
55.903231
 10
457.426961
 20
1063.055544
 30
0.0
 10
455.306054
 20
1060.644611
 30
0.0
 10
451.127133
 20
1055.894237
 30
0.0
 10
450.420839
 20
1045.988426
 30
0.0
 10
454.455469
 20
1037.158306
 30
0.0
 10
462.408856
 20
1031.591178
 30
0.0
 10
472.278771
 20
1030.491757
 30
0.0
 10
477.707430
 20
1033.741234
 30
0.0
 10
480.462609
 20
1035.390424
 30
0.0
 11
457.426961
 21
1063.055544
 31
0.0
 11
452.019974
 21
1055.353809
 31
0.0
 11
451.190614
 21
1046.260374
 31
0.0
 11
455.115115
 21
1037.707567
 31
0.0
 11
462.815720
 21
1032.298971
 31
0.0
 11
471.908982
 21
1031.467710
 31
0.0
 11
480.462609
 21
1035.390424
 31
0.0
  0
LWPOLYLINE
  5
11a
100
AcDbEntity
  8
DT500
 62
5
100
AcDbPolyline
 90
2
 70
0
 10
515.044009
 20
1064.184984
 30
0.0
 10
480.462609
 20
1035.390424
 30
0.0
  0
SPLINE
  5
11b
100
AcDbEntity
  8
DT500
 62
5
100
AcDbSpline
 70
0
 71
3
 72
25
 73
21
 74
19
 40
0.000000
 40
0.000000
 40
0.000000
 40
0.000000
 40
1.118081
 40
2.220161
 40
3.338242
 40
4.456323
 40
5.558402
 40
6.676483
 40
7.794564
 40
8.896644
 40
10.014725
 40
11.132806
 40
12.234885
 40
13.352966
 40
14.471047
 40
15.573127
 40
16.691208
 40
17.809289
 40
18.911368
 40
20.029450
 40
20.029450
 40
20.029450
 40
20.029450
 10
1102.323137
 20
216.153864
 30
0.0
 10
1102.284856
 20
216.528458
 30
0.0
 10
1102.208841
 20
217.272286
 30
0.0
 10
1101.619091
 20
218.255267
 30
0.0
 10
1100.755598
 20
218.986086
 30
0.0
 10
1099.686324
 20
219.373689
 30
0.0
 10
1098.551704
 20
219.373689
 30
0.0
 10
1097.483928
 20
218.986086
 30
0.0
 10
1096.614455
 20
218.255267
 30
0.0
 10
1096.046923
 20
217.272286
 30
0.0
 10
1095.848769
 20
216.153864
 30
0.0
 10
1096.046923
 20
215.035442
 30
0.0
 10
1096.614455
 20
214.052461
 30
0.0
 10
1097.483928
 20
213.321642
 30
0.0
 10
1098.551704
 20
212.934039
 30
0.0
 10
1099.686324
 20
212.934039
 30
0.0
 10
1100.755598
 20
213.321642
 30
0.0
 10
1101.619091
 20
214.052461
 30
0.0
 10
1102.208841
 20
215.035442
 30
0.0
 10
1102.284856
 20
215.779270
 30
0.0
 10
1102.323137
 20
216.153864
 30
0.0
 11
1102.323137
 21
216.153864
 31
0.0
 11
1102.128097
 21
217.254802
 31
0.0
 11
1101.577057
 21
218.209231
 31
0.0
 11
1100.721137
 21
218.928609
 31
0.0
 11
1099.670177
 21
219.310169
 31
0.0
 11
1098.568097
 21
219.310169
 31
0.0
 11
1097.517137
 21
218.928609
 31
0.0
 11
1096.661216
 21
218.209231
 31
0.0
 11
1096.110177
 21
217.254802
 31
0.0
 11
1095.915137
 21
216.153864
 31
0.0
 11
1096.110177
 21
215.052926
 31
0.0
 11
1096.661216
 21
214.098497
 31
0.0
 11
1097.517137
 21
213.379119
 31
0.0
 11
1098.568097
 21
212.997559
 31
0.0
 11
1099.670177
 21
212.997559
 31
0.0
 11
1100.721137
 21
213.379119
 31
0.0
 11
1101.577057
 21
214.098497
 31
0.0
 11
1102.128097
 21
215.052926
 31
0.0
 11
1102.323137
 21
216.153864
 31
0.0
  0
LWPOLYLINE
  5
11c
100
AcDbEntity
  8
DT500
 62
5
100
AcDbPolyline
 90
2
 70
1
 10
1102.323137
 20
216.153864
 30
0.0
 10
1102.323137
 20
216.153864
 30
0.0
  0
SPLINE
  5
11d
100
AcDbEntity
  8
DT500
 62
5
100
AcDbSpline
 70
0
 71
3
 72
25
 73
21
 74
19
 40
0.000000
 40
0.000000
 40
0.000000
 40
0.000000
 40
6.281354
 40
12.472812
 40
18.754166
 40
25.035520
 40
31.226978
 40
37.508332
 40
43.789686
 40
49.981145
 40
56.262499
 40
62.543853
 40
68.735311
 40
75.016665
 40
81.298019
 40
87.489477
 40
93.770831
 40
100.052185
 40
106.243643
 40
112.524997
 40
112.524997
 40
112.524997
 40
112.524997
 10
1067.580737
 20
173.802184
 30
0.0
 10
1067.365674
 20
175.906647
 30
0.0
 10
1066.938625
 20
180.085456
 30
0.0
 10
1063.625425
 20
185.607816
 30
0.0
 10
1058.774339
 20
189.713546
 30
0.0
 10
1052.767183
 20
191.891089
 30
0.0
 10
1046.392912
 20
191.891089
 30
0.0
 10
1040.394169
 20
189.713546
 30
0.0
 10
1035.509490
 20
185.607816
 30
0.0
 10
1032.321107
 20
180.085456
 30
0.0
 10
1031.207884
 20
173.802184
 30
0.0
 10
1032.321107
 20
167.518912
 30
0.0
 10
1035.509490
 20
161.996552
 30
0.0
 10
1040.394169
 20
157.890822
 30
0.0
 10
1046.392912
 20
155.713279
 30
0.0
 10
1052.767183
 20
155.713279
 30
0.0
 10
1058.774339
 20
157.890822
 30
0.0
 10
1063.625425
 20
161.996552
 30
0.0
 10
1066.938625
 20
167.518912
 30
0.0
 10
1067.365674
 20
171.697721
 30
0.0
 10
1067.580737
 20
173.802184
 30
0.0
 11
1067.580737
 21
173.802184
 31
0.0
 11
1066.485008
 21
179.987229
 31
0.0
 11
1063.389279
 21
185.349189
 31
0.0
 11
1058.580737
 21
189.390641
 31
0.0
 11
1052.676466
 21
191.534235
 31
0.0
 11
1046.485008
 21
191.534235
 31
0.0
 11
1040.580737
 21
189.390641
 31
0.0
 11
1035.772195
 21
185.349189
 31
0.0
 11
1032.676466
 21
179.987229
 31
0.0
 11
1031.580737
 21
173.802184
 31
0.0
 11
1032.676466
 21
167.617139
 31
0.0
 11
1035.772195
 21
162.255179
 31
0.0
 11
1040.580737
 21
158.213727
 31
0.0
 11
1046.485008
 21
156.070133
 31
0.0
 11
1052.676466
 21
156.070133
 31
0.0
 11
1058.580737
 21
158.213727
 31
0.0
 11
1063.389279
 21
162.255179
 31
0.0
 11
1066.485008
 21
167.617139
 31
0.0
 11
1067.580737
 21
173.802184
 31
0.0
  0
LWPOLYLINE
  5
11e
100
AcDbEntity
  8
DT500
 62
5
100
AcDbPolyline
 90
2
 70
1
 10
1067.580737
 20
173.802184
 30
0.0
 10
1067.580737
 20
173.802184
 30
0.0
  0
SPLINE
  5
11f
100
AcDbEntity
  8
DT500
 62
5
100
AcDbSpline
 70
0
 71
3
 72
25
 73
21
 74
19
 40
0.000000
 40
0.000000
 40
0.000000
 40
0.000000
 40
6.281354
 40
12.472812
 40
18.754166
 40
25.035520
 40
31.226978
 40
37.508332
 40
43.789686
 40
49.981145
 40
56.262499
 40
62.543853
 40
68.735311
 40
75.016665
 40
81.298019
 40
87.489477
 40
93.770831
 40
100.052185
 40
106.243643
 40
112.524997
 40
112.524997
 40
112.524997
 40
112.524997
 10
331.353297
 20
394.864984
 30
0.0
 10
331.138234
 20
396.969447
 30
0.0
 10
330.711185
 20
401.148256
 30
0.0
 10
327.397985
 20
406.670616
 30
0.0
 10
322.546899
 20
410.776346
 30
0.0
 10
316.539743
 20
412.953889
 30
0.0
 10
310.165472
 20
412.953889
 30
0.0
 10
304.166729
 20
410.776346
 30
0.0
 10
299.282050
 20
406.670616
 30
0.0
 10
296.093667
 20
401.148256
 30
0.0
 10
294.980444
 20
394.864984
 30
0.0
 10
296.093667
 20
388.581712
 30
0.0
 10
299.282050
 20
383.059352
 30
0.0
 10
304.166729
 20
378.953622
 30
0.0
 10
310.165472
 20
376.776079
 30
0.0
 10
316.539743
 20
376.776079
 30
0.0
 10
322.546899
 20
378.953622
 30
0.0
 10
327.397985
 20
383.059352
 30
0.0
 10
330.711185
 20
388.581712
 30
0.0
 10
331.138234
 20
392.760521
 30
0.0
 10
331.353297
 20
394.864984
 30
0.0
 11
331.353297
 21
394.864984
 31
0.0
 11
330.257568
 21
401.050029
 31
0.0
 11
327.161839
 21
406.411989
 31
0.0
 11
322.353297
 21
410.453441
 31
0.0
 11
316.449026
 21
412.597035
 31
0.0
 11
310.257568
 21
412.597035
 31
0.0
 11
304.353297
 21
410.453441
 31
0.0
 11
299.544755
 21
406.411989
 31
0.0
 11
296.449026
 21
401.050029
 31
0.0
 11
295.353297
 21
394.864984
 31
0.0
 11
296.449026
 21
388.679939
 31
0.0
 11
299.544755
 21
383.317979
 31
0.0
 11
304.353297
 21
379.276527
 31
0.0
 11
310.257568
 21
377.132933
 31
0.0
 11
316.449026
 21
377.132933
 31
0.0
 11
322.353297
 21
379.276527
 31
0.0
 11
327.161839
 21
383.317979
 31
0.0
 11
330.257568
 21
388.679939
 31
0.0
 11
331.353297
 21
394.864984
 31
0.0
  0
LWPOLYLINE
  5
120
100
AcDbEntity
  8
DT500
 62
5
100
AcDbPolyline
 90
2
 70
1
 10
331.353297
 20
394.864984
 30
0.0
 10
331.353297
 20
394.864984
 30
0.0
  0
SPLINE
  5
121
100
AcDbEntity
  8
DT500
 62
5
100
AcDbSpline
 70
0
 71
3
 72
25
 73
21
 74
19
 40
0.000000
 40
0.000000
 40
0.000000
 40
0.000000
 40
1.118081
 40
2.220161
 40
3.338242
 40
4.456323
 40
5.558402
 40
6.676483
 40
7.794564
 40
8.896644
 40
10.014725
 40
11.132806
 40
12.234885
 40
13.352966
 40
14.471047
 40
15.573127
 40
16.691208
 40
17.809289
 40
18.911368
 40
20.029450
 40
20.029450
 40
20.029450
 40
20.029450
 10
280.477697
 20
309.108904
 30
0.0
 10
280.439416
 20
309.483498
 30
0.0
 10
280.363401
 20
310.227326
 30
0.0
 10
279.773651
 20
311.210307
 30
0.0
 10
278.910158
 20
311.941126
 30
0.0
 10
277.840884
 20
312.328729
 30
0.0
 10
276.706264
 20
312.328729
 30
0.0
 10
275.638488
 20
311.941126
 30
0.0
 10
274.769015
 20
311.210307
 30
0.0
 10
274.201483
 20
310.227326
 30
0.0
 10
274.003329
 20
309.108904
 30
0.0
 10
274.201483
 20
307.990482
 30
0.0
 10
274.769015
 20
307.007501
 30
0.0
 10
275.638488
 20
306.276682
 30
0.0
 10
276.706264
 20
305.889079
 30
0.0
 10
277.840884
 20
305.889079
 30
0.0
 10
278.910158
 20
306.276682
 30
0.0
 10
279.773651
 20
307.007501
 30
0.0
 10
280.363401
 20
307.990482
 30
0.0
 10
280.439416
 20
308.734310
 30
0.0
 10
280.477697
 20
309.108904
 30
0.0
 11
280.477697
 21
309.108904
 31
0.0
 11
280.282657
 21
310.209842
 31
0.0
 11
279.731617
 21
311.164271
 31
0.0
 11
278.875697
 21
311.883649
 31
0.0
 11
277.824737
 21
312.265209
 31
0.0
 11
276.722657
 21
312.265209
 31
0.0
 11
275.671697
 21
311.883649
 31
0.0
 11
274.815776
 21
311.164271
 31
0.0
 11
274.264737
 21
310.209842
 31
0.0
 11
274.069697
 21
309.108904
 31
0.0
 11
274.264737
 21
308.007966
 31
0.0
 11
274.815776
 21
307.053537
 31
0.0
 11
275.671697
 21
306.334159
 31
0.0
 11
276.722657
 21
305.952599
 31
0.0
 11
277.824737
 21
305.952599
 31
0.0
 11
278.875697
 21
306.334159
 31
0.0
 11
279.731617
 21
307.053537
 31
0.0
 11
280.282657
 21
308.007966
 31
0.0
 11
280.477697
 21
309.108904
 31
0.0
  0
LWPOLYLINE
  5
122
100
AcDbEntity
  8
DT500
 62
5
100
AcDbPolyline
 90
2
 70
1
 10
280.477697
 20
309.108904
 30
0.0
 10
280.477697
 20
309.108904
 30
0.0
  0
SPLINE
  5
123
100
AcDbEntity
  8
DT500
 62
5
100
AcDbSpline
 70
0
 71
3
 72
25
 73
21
 74
19
 40
0.000000
 40
0.000000
 40
0.000000
 40
0.000000
 40
1.118081
 40
2.220161
 40
3.338242
 40
4.456323
 40
5.558402
 40
6.676483
 40
7.794564
 40
8.896644
 40
10.014725
 40
11.132806
 40
12.234885
 40
13.352966
 40
14.471047
 40
15.573127
 40
16.691208
 40
17.809289
 40
18.911368
 40
20.029450
 40
20.029450
 40
20.029450
 40
20.029450
 10
291.974977
 20
476.326984
 30
0.0
 10
291.936696
 20
476.701578
 30
0.0
 10
291.860681
 20
477.445406
 30
0.0
 10
291.270931
 20
478.428387
 30
0.0
 10
290.407438
 20
479.159206
 30
0.0
 10
289.338164
 20
479.546809
 30
0.0
 10
288.203544
 20
479.546809
 30
0.0
 10
287.135768
 20
479.159206
 30
0.0
 10
286.266295
 20
478.428387
 30
0.0
 10
285.698763
 20
477.445406
 30
0.0
 10
285.500609
 20
476.326984
 30
0.0
 10
285.698763
 20
475.208562
 30
0.0
 10
286.266295
 20
474.225581
 30
0.0
 10
287.135768
 20
473.494762
 30
0.0
 10
288.203544
 20
473.107159
 30
0.0
 10
289.338164
 20
473.107159
 30
0.0
 10
290.407438
 20
473.494762
 30
0.0
 10
291.270931
 20
474.225581
 30
0.0
 10
291.860681
 20
475.208562
 30
0.0
 10
291.936696
 20
475.952390
 30
0.0
 10
291.974977
 20
476.326984
 30
0.0
 11
291.974977
 21
476.326984
 31
0.0
 11
291.779937
 21
477.427922
 31
0.0
 11
291.228897
 21
478.382351
 31
0.0
 11
290.372977
 21
479.101729
 31
0.0
 11
289.322017
 21
479.483289
 31
0.0
 11
288.219937
 21
479.483289
 31
0.0
 11
287.168977
 21
479.101729
 31
0.0
 11
286.313056
 21
478.382351
 31
0.0
 11
285.762017
 21
477.427922
 31
0.0
 11
285.566977
 21
476.326984
 31
0.0
 11
285.762017
 21
475.226046
 31
0.0
 11
286.313056
 21
474.271617
 31
0.0
 11
287.168977
 21
473.552239
 31
0.0
 11
288.219937
 21
473.170679
 31
0.0
 11
289.322017
 21
473.170679
 31
0.0
 11
290.372977
 21
473.552239
 31
0.0
 11
291.228897
 21
474.271617
 31
0.0
 11
291.779937
 21
475.226046
 31
0.0
 11
291.974977
 21
476.326984
 31
0.0
  0
LWPOLYLINE
  5
124
100
AcDbEntity
  8
DT500
 62
5
100
AcDbPolyline
 90
2
 70
1
 10
291.974977
 20
476.326984
 30
0.0
 10
291.974977
 20
476.326984
 30
0.0
  0
SPLINE
  5
125
100
AcDbEntity
  8
DT500
 62
5
100
AcDbSpline
 70
0
 71
3
 72
25
 73
21
 74
19
 40
0.000000
 40
0.000000
 40
0.000000
 40
0.000000
 40
1.118081
 40
2.220161
 40
3.338242
 40
4.456323
 40
5.558402
 40
6.676483
 40
7.794564
 40
8.896644
 40
10.014725
 40
11.132806
 40
12.234885
 40
13.352966
 40
14.471047
 40
15.573127
 40
16.691208
 40
17.809289
 40
18.911368
 40
20.029450
 40
20.029450
 40
20.029450
 40
20.029450
 10
1515.622497
 20
810.302184
 30
0.0
 10
1515.584216
 20
810.676778
 30
0.0
 10
1515.508201
 20
811.420606
 30
0.0
 10
1514.918451
 20
812.403587
 30
0.0
 10
1514.054958
 20
813.134406
 30
0.0
 10
1512.985684
 20
813.522009
 30
0.0
 10
1511.851064
 20
813.522009
 30
0.0
 10
1510.783288
 20
813.134406
 30
0.0
 10
1509.913815
 20
812.403587
 30
0.0
 10
1509.346283
 20
811.420606
 30
0.0
 10
1509.148129
 20
810.302184
 30
0.0
 10
1509.346283
 20
809.183762
 30
0.0
 10
1509.913815
 20
808.200781
 30
0.0
 10
1510.783288
 20
807.469962
 30
0.0
 10
1511.851064
 20
807.082359
 30
0.0
 10
1512.985684
 20
807.082359
 30
0.0
 10
1514.054958
 20
807.469962
 30
0.0
 10
1514.918451
 20
808.200781
 30
0.0
 10
1515.508201
 20
809.183762
 30
0.0
 10
1515.584216
 20
809.927590
 30
0.0
 10
1515.622497
 20
810.302184
 30
0.0
 11
1515.622497
 21
810.302184
 31
0.0
 11
1515.427457
 21
811.403122
 31
0.0
 11
1514.876417
 21
812.357551
 31
0.0
 11
1514.020497
 21
813.076929
 31
0.0
 11
1512.969537
 21
813.458489
 31
0.0
 11
1511.867457
 21
813.458489
 31
0.0
 11
1510.816497
 21
813.076929
 31
0.0
 11
1509.960576
 21
812.357551
 31
0.0
 11
1509.409537
 21
811.403122
 31
0.0
 11
1509.214497
 21
810.302184
 31
0.0
 11
1509.409537
 21
809.201246
 31
0.0
 11
1509.960576
 21
808.246817
 31
0.0
 11
1510.816497
 21
807.527439
 31
0.0
 11
1511.867457
 21
807.145879
 31
0.0
 11
1512.969537
 21
807.145879
 31
0.0
 11
1514.020497
 21
807.527439
 31
0.0
 11
1514.876417
 21
808.246817
 31
0.0
 11
1515.427457
 21
809.201246
 31
0.0
 11
1515.622497
 21
810.302184
 31
0.0
  0
LWPOLYLINE
  5
126
100
AcDbEntity
  8
DT500
 62
5
100
AcDbPolyline
 90
2
 70
1
 10
1515.622497
 20
810.302184
 30
0.0
 10
1515.622497
 20
810.302184
 30
0.0
  0
SPLINE
  5
127
100
AcDbEntity
  8
DT500
 62
5
100
AcDbSpline
 70
0
 71
3
 72
25
 73
21
 74
19
 40
0.000000
 40
0.000000
 40
0.000000
 40
0.000000
 40
1.570339
 40
3.118203
 40
4.688542
 40
6.258881
 40
7.806745
 40
9.377084
 40
10.947423
 40
12.495287
 40
14.065626
 40
15.635965
 40
17.183829
 40
18.754168
 40
20.324507
 40
21.872371
 40
23.442710
 40
25.013048
 40
26.560913
 40
28.131252
 40
28.131252
 40
28.131252
 40
28.131252
 10
158.390841
 20
743.763384
 30
0.0
 10
158.337075
 20
744.289500
 30
0.0
 10
158.230313
 20
745.334202
 30
0.0
 10
157.402013
 20
746.714792
 30
0.0
 10
156.189241
 20
747.741225
 30
0.0
 10
154.687452
 20
748.285611
 30
0.0
 10
153.093884
 20
748.285611
 30
0.0
 10
151.594198
 20
747.741225
 30
0.0
 10
150.373029
 20
746.714792
 30
0.0
 10
149.575933
 20
745.334202
 30
0.0
 10
149.297627
 20
743.763384
 30
0.0
 10
149.575933
 20
742.192566
 30
0.0
 10
150.373029
 20
740.811976
 30
0.0
 10
151.594198
 20
739.785543
 30
0.0
 10
153.093884
 20
739.241157
 30
0.0
 10
154.687452
 20
739.241157
 30
0.0
 10
156.189241
 20
739.785543
 30
0.0
 10
157.402013
 20
740.811976
 30
0.0
 10
158.230313
 20
742.192566
 30
0.0
 10
158.337075
 20
743.237268
 30
0.0
 10
158.390841
 20
743.763384
 30
0.0
 11
158.390841
 21
743.763384
 31
0.0
 11
158.116909
 21
745.309645
 31
0.0
 11
157.342976
 21
746.650136
 31
0.0
 11
156.140841
 21
747.660499
 31
0.0
 11
154.664773
 21
748.196397
 31
0.0
 11
153.116908
 21
748.196397
 31
0.0
 11
151.640840
 21
747.660499
 31
0.0
 11
150.438705
 21
746.650136
 31
0.0
 11
149.664772
 21
745.309645
 31
0.0
 11
149.390840
 21
743.763384
 31
0.0
 11
149.664772
 21
742.217123
 31
0.0
 11
150.438705
 21
740.876632
 31
0.0
 11
151.640840
 21
739.866269
 31
0.0
 11
153.116908
 21
739.330371
 31
0.0
 11
154.664773
 21
739.330371
 31
0.0
 11
156.140841
 21
739.866269
 31
0.0
 11
157.342976
 21
740.876632
 31
0.0
 11
158.116909
 21
742.217123
 31
0.0
 11
158.390841
 21
743.763384
 31
0.0
  0
LWPOLYLINE
  5
128
100
AcDbEntity
  8
DT500
 62
5
100
AcDbPolyline
 90
2
 70
1
 10
158.390841
 20
743.763384
 30
0.0
 10
158.390841
 20
743.763384
 30
0.0
  0
SPLINE
  5
129
100
AcDbEntity
  8
DT500
 62
5
100
AcDbSpline
 70
0
 71
3
 72
25
 73
21
 74
19
 40
0.000000
 40
0.000000
 40
0.000000
 40
0.000000
 40
1.118081
 40
2.220161
 40
3.338242
 40
4.456323
 40
5.558402
 40
6.676483
 40
7.794564
 40
8.896644
 40
10.014725
 40
11.132806
 40
12.234885
 40
13.352966
 40
14.471047
 40
15.573127
 40
16.691208
 40
17.809289
 40
18.911368
 40
20.029450
 40
20.029450
 40
20.029450
 40
20.029450
 10
258.915441
 20
918.518024
 30
0.0
 10
258.877160
 20
918.892618
 30
0.0
 10
258.801145
 20
919.636446
 30
0.0
 10
258.211395
 20
920.619427
 30
0.0
 10
257.347902
 20
921.350246
 30
0.0
 10
256.278628
 20
921.737849
 30
0.0
 10
255.144008
 20
921.737849
 30
0.0
 10
254.076232
 20
921.350246
 30
0.0
 10
253.206759
 20
920.619427
 30
0.0
 10
252.639227
 20
919.636446
 30
0.0
 10
252.441073
 20
918.518024
 30
0.0
 10
252.639227
 20
917.399602
 30
0.0
 10
253.206759
 20
916.416621
 30
0.0
 10
254.076232
 20
915.685802
 30
0.0
 10
255.144008
 20
915.298199
 30
0.0
 10
256.278628
 20
915.298199
 30
0.0
 10
257.347902
 20
915.685802
 30
0.0
 10
258.211395
 20
916.416621
 30
0.0
 10
258.801145
 20
917.399602
 30
0.0
 10
258.877160
 20
918.143430
 30
0.0
 10
258.915441
 20
918.518024
 30
0.0
 11
258.915441
 21
918.518024
 31
0.0
 11
258.720401
 21
919.618962
 31
0.0
 11
258.169361
 21
920.573391
 31
0.0
 11
257.313441
 21
921.292769
 31
0.0
 11
256.262481
 21
921.674329
 31
0.0
 11
255.160401
 21
921.674329
 31
0.0
 11
254.109441
 21
921.292769
 31
0.0
 11
253.253520
 21
920.573391
 31
0.0
 11
252.702481
 21
919.618962
 31
0.0
 11
252.507441
 21
918.518024
 31
0.0
 11
252.702481
 21
917.417086
 31
0.0
 11
253.253520
 21
916.462657
 31
0.0
 11
254.109441
 21
915.743279
 31
0.0
 11
255.160401
 21
915.361719
 31
0.0
 11
256.262481
 21
915.361719
 31
0.0
 11
257.313441
 21
915.743279
 31
0.0
 11
258.169361
 21
916.462657
 31
0.0
 11
258.720401
 21
917.417086
 31
0.0
 11
258.915441
 21
918.518024
 31
0.0
  0
LWPOLYLINE
  5
12a
100
AcDbEntity
  8
DT500
 62
5
100
AcDbPolyline
 90
2
 70
1
 10
258.915441
 20
918.518024
 30
0.0
 10
258.915441
 20
918.518024
 30
0.0
  0
LWPOLYLINE
  5
12b
100
AcDbEntity
  8
DT500
 62
5
100
AcDbPolyline
 90
2
 70
0
 10
1205.344177
 20
966.283464
 30
0.0
 10
1170.762737
 20
995.078024
 30
0.0
  0
LWPOLYLINE
  5
12c
100
AcDbEntity
  8
DT500
 62
5
100
AcDbPolyline
 90
2
 70
0
 10
1193.798417
 20
1022.743144
 30
0.0
 10
1228.379777
 20
993.948584
 30
0.0
  0
SPLINE
  5
12d
100
AcDbEntity
  8
DT500
 62
5
100
AcDbSpline
 70
0
 71
3
 72
16
 73
12
 74
10
 40
0.000000
 40
0.000000
 40
0.000000
 40
0.000000
 40
6.281357
 40
12.472819
 40
18.754176
 40
25.035534
 40
31.226995
 40
37.508352
 40
43.789710
 40
49.981171
 40
56.262529
 40
56.262529
 40
56.262529
 40
56.262529
 10
1193.798417
 20
1022.743144
 30
0.0
 10
1192.043575
 20
1023.924479
 30
0.0
 10
1188.559007
 20
1026.270244
 30
0.0
 10
1182.195129
 20
1027.257743
 30
0.0
 10
1175.935974
 20
1026.157111
 30
0.0
 10
1170.418311
 20
1022.933625
 30
0.0
 10
1166.341080
 20
1018.037000
 30
0.0
 10
1164.170194
 20
1012.026782
 30
0.0
 10
1164.221345
 20
1005.671801
 30
0.0
 10
1166.345065
 20
999.592005
 30
0.0
 10
1169.283121
 20
996.589897
 30
0.0
 10
1170.762737
 20
995.078024
 30
0.0
 11
1193.798417
 21
1022.743144
 31
0.0
 11
1188.344225
 21
1025.858790
 31
0.0
 11
1182.242795
 21
1026.910809
 31
0.0
 11
1176.060149
 21
1025.801606
 31
0.0
 11
1170.634824
 21
1022.635961
 31
0.0
 11
1166.673034
 21
1017.877976
 31
0.0
 11
1164.542309
 21
1011.969046
 31
0.0
 11
1164.571176
 21
1005.687755
 31
0.0
 11
1166.710816
 21
999.877752
 31
0.0
 11
1170.762737
 21
995.078024
 31
0.0
  0
LWPOLYLINE
  5
12e
100
AcDbEntity
  8
DT500
 62
5
100
AcDbPolyline
 90
2
 70
0
 10
244.855977
 20
275.902424
 30
0.0
 10
707.005937
 20
72.402424
 30
0.0
  0
SPLINE
  5
12f
100
AcDbEntity
  8
DT500
 62
5
100
AcDbSpline
 70
0
 71
3
 72
25
 73
21
 74
19
 40
0.000000
 40
0.000000
 40
0.000000
 40
0.000000
 40
1.118081
 40
2.220161
 40
3.338242
 40
4.456323
 40
5.558402
 40
6.676483
 40
7.794564
 40
8.896644
 40
10.014725
 40
11.132806
 40
12.234885
 40
13.352966
 40
14.471047
 40
15.573127
 40
16.691208
 40
17.809289
 40
18.911368
 40
20.029450
 40
20.029450
 40
20.029450
 40
20.029450
 10
999.405697
 20
1125.838824
 30
0.0
 10
999.367416
 20
1126.213418
 30
0.0
 10
999.291401
 20
1126.957246
 30
0.0
 10
998.701651
 20
1127.940227
 30
0.0
 10
997.838158
 20
1128.671046
 30
0.0
 10
996.768884
 20
1129.058649
 30
0.0
 10
995.634264
 20
1129.058649
 30
0.0
 10
994.566488
 20
1128.671046
 30
0.0
 10
993.697015
 20
1127.940227
 30
0.0
 10
993.129483
 20
1126.957246
 30
0.0
 10
992.931329
 20
1125.838824
 30
0.0
 10
993.129483
 20
1124.720402
 30
0.0
 10
993.697015
 20
1123.737421
 30
0.0
 10
994.566488
 20
1123.006602
 30
0.0
 10
995.634264
 20
1122.618999
 30
0.0
 10
996.768884
 20
1122.618999
 30
0.0
 10
997.838158
 20
1123.006602
 30
0.0
 10
998.701651
 20
1123.737421
 30
0.0
 10
999.291401
 20
1124.720402
 30
0.0
 10
999.367416
 20
1125.464230
 30
0.0
 10
999.405697
 20
1125.838824
 30
0.0
 11
999.405697
 21
1125.838824
 31
0.0
 11
999.210657
 21
1126.939762
 31
0.0
 11
998.659617
 21
1127.894191
 31
0.0
 11
997.803697
 21
1128.613569
 31
0.0
 11
996.752737
 21
1128.995129
 31
0.0
 11
995.650657
 21
1128.995129
 31
0.0
 11
994.599697
 21
1128.613569
 31
0.0
 11
993.743776
 21
1127.894191
 31
0.0
 11
993.192737
 21
1126.939762
 31
0.0
 11
992.997697
 21
1125.838824
 31
0.0
 11
993.192737
 21
1124.737886
 31
0.0
 11
993.743776
 21
1123.783457
 31
0.0
 11
994.599697
 21
1123.064079
 31
0.0
 11
995.650657
 21
1122.682519
 31
0.0
 11
996.752737
 21
1122.682519
 31
0.0
 11
997.803697
 21
1123.064079
 31
0.0
 11
998.659617
 21
1123.783457
 31
0.0
 11
999.210657
 21
1124.737886
 31
0.0
 11
999.405697
 21
1125.838824
 31
0.0
  0
LWPOLYLINE
  5
130
100
AcDbEntity
  8
DT500
 62
5
100
AcDbPolyline
 90
2
 70
1
 10
999.405697
 20
1125.838824
 30
0.0
 10
999.405697
 20
1125.838824
 30
0.0
  0
SPLINE
  5
131
100
AcDbEntity
  8
DT500
 62
5
100
AcDbSpline
 70
0
 71
3
 72
25
 73
21
 74
19
 40
0.000000
 40
0.000000
 40
0.000000
 40
0.000000
 40
1.118081
 40
2.220161
 40
3.338242
 40
4.456323
 40
5.558402
 40
6.676483
 40
7.794564
 40
8.896644
 40
10.014725
 40
11.132806
 40
12.234885
 40
13.352966
 40
14.471047
 40
15.573127
 40
16.691208
 40
17.809289
 40
18.911368
 40
20.029450
 40
20.029450
 40
20.029450
 40
20.029450
 10
1101.317857
 20
1125.838824
 30
0.0
 10
1101.279576
 20
1126.213418
 30
0.0
 10
1101.203561
 20
1126.957246
 30
0.0
 10
1100.613811
 20
1127.940227
 30
0.0
 10
1099.750318
 20
1128.671046
 30
0.0
 10
1098.681044
 20
1129.058649
 30
0.0
 10
1097.546424
 20
1129.058649
 30
0.0
 10
1096.478648
 20
1128.671046
 30
0.0
 10
1095.609175
 20
1127.940227
 30
0.0
 10
1095.041643
 20
1126.957246
 30
0.0
 10
1094.843489
 20
1125.838824
 30
0.0
 10
1095.041643
 20
1124.720402
 30
0.0
 10
1095.609175
 20
1123.737421
 30
0.0
 10
1096.478648
 20
1123.006602
 30
0.0
 10
1097.546424
 20
1122.618999
 30
0.0
 10
1098.681044
 20
1122.618999
 30
0.0
 10
1099.750318
 20
1123.006602
 30
0.0
 10
1100.613811
 20
1123.737421
 30
0.0
 10
1101.203561
 20
1124.720402
 30
0.0
 10
1101.279576
 20
1125.464230
 30
0.0
 10
1101.317857
 20
1125.838824
 30
0.0
 11
1101.317857
 21
1125.838824
 31
0.0
 11
1101.122817
 21
1126.939762
 31
0.0
 11
1100.571777
 21
1127.894191
 31
0.0
 11
1099.715857
 21
1128.613569
 31
0.0
 11
1098.664897
 21
1128.995129
 31
0.0
 11
1097.562817
 21
1128.995129
 31
0.0
 11
1096.511857
 21
1128.613569
 31
0.0
 11
1095.655936
 21
1127.894191
 31
0.0
 11
1095.104897
 21
1126.939762
 31
0.0
 11
1094.909857
 21
1125.838824
 31
0.0
 11
1095.104897
 21
1124.737886
 31
0.0
 11
1095.655936
 21
1123.783457
 31
0.0
 11
1096.511857
 21
1123.064079
 31
0.0
 11
1097.562817
 21
1122.682519
 31
0.0
 11
1098.664897
 21
1122.682519
 31
0.0
 11
1099.715857
 21
1123.064079
 31
0.0
 11
1100.571777
 21
1123.783457
 31
0.0
 11
1101.122817
 21
1124.737886
 31
0.0
 11
1101.317857
 21
1125.838824
 31
0.0
  0
SPLINE
  5
132
100
AcDbEntity
  8
DT500
 62
5
100
AcDbSpline
 70
0
 71
3
 72
13
 73
9
 74
7
 40
0.000000
 40
0.000000
 40
0.000000
 40
0.000000
 40
9.403581
 40
18.528653
 40
27.932234
 40
37.335816
 40
46.460887
 40
55.864469
 40
55.864469
 40
55.864469
 40
55.864469
 10
1205.344177
 20
966.283464
 30
0.0
 10
1208.098968
 20
964.638248
 30
0.0
 10
1213.526959
 20
961.396542
 30
0.0
 10
1223.388578
 20
962.500598
 30
0.0
 10
1231.334952
 20
968.064976
 30
0.0
 10
1235.368131
 20
976.887711
 30
0.0
 10
1234.667877
 20
986.786201
 30
0.0
 10
1230.496710
 20
991.537318
 30
0.0
 10
1228.379777
 20
993.948584
 30
0.0
 11
1205.344177
 21
966.283464
 31
0.0
 11
1213.895393
 21
962.371425
 31
0.0
 11
1222.982109
 21
963.207201
 31
0.0
 11
1230.676250
 21
968.613451
 31
0.0
 11
1234.599597
 21
977.159484
 31
0.0
 11
1233.775843
 21
986.247298
 31
0.0
 11
1228.379777
 21
993.948584
 31
0.0
  0
LWPOLYLINE
  5
133
100
AcDbEntity
  8
DT500
 62
5
100
AcDbPolyline
 90
2
 70
1
 10
1101.317857
 20
1125.838824
 30
0.0
 10
1101.317857
 20
1125.838824
 30
0.0
  0
LWPOLYLINE
  5
134
100
AcDbEntity
  8
DT500
 62
5
100
AcDbPolyline
 90
2
 70
0
 10
1288.339457
 20
897.176504
 30
0.0
 10
1253.758097
 20
925.971064
 30
0.0
  0
SPLINE
  5
135
100
AcDbEntity
  8
DT500
 62
5
100
AcDbSpline
 70
0
 71
3
 72
16
 73
12
 74
10
 40
0.000000
 40
0.000000
 40
0.000000
 40
0.000000
 40
6.281357
 40
12.472819
 40
18.754176
 40
25.035534
 40
31.226995
 40
37.508352
 40
43.789710
 40
49.981171
 40
56.262529
 40
56.262529
 40
56.262529
 40
56.262529
 10
1276.793777
 20
953.636184
 30
0.0
 10
1275.038935
 20
954.817519
 30
0.0
 10
1271.554367
 20
957.163284
 30
0.0
 10
1265.190489
 20
958.150783
 30
0.0
 10
1258.931334
 20
957.050151
 30
0.0
 10
1253.413671
 20
953.826665
 30
0.0
 10
1249.336440
 20
948.930040
 30
0.0
 10
1247.165554
 20
942.919822
 30
0.0
 10
1247.216705
 20
936.564841
 30
0.0
 10
1249.340425
 20
930.485045
 30
0.0
 10
1252.278481
 20
927.482937
 30
0.0
 10
1253.758097
 20
925.971064
 30
0.0
 11
1276.793777
 21
953.636184
 31
0.0
 11
1271.339585
 21
956.751830
 31
0.0
 11
1265.238155
 21
957.803849
 31
0.0
 11
1259.055509
 21
956.694646
 31
0.0
 11
1253.630184
 21
953.529001
 31
0.0
 11
1249.668394
 21
948.771016
 31
0.0
 11
1247.537669
 21
942.862086
 31
0.0
 11
1247.566536
 21
936.580795
 31
0.0
 11
1249.706176
 21
930.770792
 31
0.0
 11
1253.758097
 21
925.971064
 31
0.0
  0
SPLINE
  5
136
100
AcDbEntity
  8
DT500
 62
5
100
AcDbSpline
 70
0
 71
3
 72
16
 73
12
 74
10
 40
0.000000
 40
0.000000
 40
0.000000
 40
0.000000
 40
6.281357
 40
12.472819
 40
18.754176
 40
25.035534
 40
31.226995
 40
37.508352
 40
43.789710
 40
49.981171
 40
56.262529
 40
56.262529
 40
56.262529
 40
56.262529
 10
1288.339457
 20
897.176504
 30
0.0
 10
1290.094298
 20
895.995169
 30
0.0
 10
1293.578867
 20
893.649404
 30
0.0
 10
1299.942745
 20
892.661905
 30
0.0
 10
1306.201899
 20
893.762537
 30
0.0
 10
1311.719562
 20
896.986023
 30
0.0
 10
1315.796793
 20
901.882648
 30
0.0
 10
1317.967680
 20
907.892866
 30
0.0
 10
1317.916528
 20
914.247847
 30
0.0
 10
1315.792809
 20
920.327643
 30
0.0
 10
1312.854753
 20
923.329751
 30
0.0
 10
1311.375137
 20
924.841624
 30
0.0
 11
1288.339457
 21
897.176504
 31
0.0
 11
1293.793648
 21
894.060858
 31
0.0
 11
1299.895078
 21
893.008839
 31
0.0
 11
1306.077725
 21
894.118042
 31
0.0
 11
1311.503049
 21
897.283687
 31
0.0
 11
1315.464839
 21
902.041672
 31
0.0
 11
1317.595565
 21
907.950602
 31
0.0
 11
1317.566698
 21
914.231893
 31
0.0
 11
1315.427058
 21
920.041896
 31
0.0
 11
1311.375137
 21
924.841624
 31
0.0
  0
LWPOLYLINE
  5
137
100
AcDbEntity
  8
DT500
 62
5
100
AcDbPolyline
 90
2
 70
0
 10
1276.793777
 20
953.636184
 30
0.0
 10
1311.375137
 20
924.841624
 30
0.0
  0
LWPOLYLINE
  5
138
100
AcDbEntity
  8
DT500
 62
5
100
AcDbPolyline
 90
2
 70
0
 10
432.048649
 20
995.078024
 30
0.0
 10
397.467257
 20
966.283464
 30
0.0
  0
SPLINE
  5
139
100
AcDbEntity
  8
DT500
 62
5
100
AcDbSpline
 70
0
 71
3
 72
13
 73
9
 74
7
 40
0.000000
 40
0.000000
 40
0.000000
 40
0.000000
 40
9.410506
 40
18.541947
 40
27.952453
 40
37.362958
 40
46.494400
 40
55.904905
 40
55.904905
 40
55.904905
 40
55.904905
 10
374.431601
 20
993.948584
 30
0.0
 10
372.310524
 20
991.537665
 30
0.0
 10
368.131269
 20
986.787322
 30
0.0
 10
367.424716
 20
976.881195
 30
0.0
 10
371.459410
 20
968.050756
 30
0.0
 10
379.413100
 20
962.483511
 30
0.0
 10
389.283373
 20
961.384290
 30
0.0
 10
394.712061
 20
964.634102
 30
0.0
 10
397.467257
 20
966.283464
 30
0.0
 11
374.431601
 21
993.948584
 31
0.0
 11
369.024145
 21
986.246829
 31
0.0
 11
368.194544
 21
977.153150
 31
0.0
 11
372.119097
 21
968.600051
 31
0.0
 11
379.819981
 21
963.191355
 31
0.0
 11
388.913526
 21
962.360289
 31
0.0
 11
397.467257
 21
966.283464
 31
0.0
  0
SPLINE
  5
13a
100
AcDbEntity
  8
DT500
 62
5
100
AcDbSpline
 70
0
 71
3
 72
13
 73
9
 74
7
 40
0.000000
 40
0.000000
 40
0.000000
 40
0.000000
 40
9.410219
 40
18.541397
 40
27.951616
 40
37.361835
 40
46.493012
 40
55.903231
 40
55.903231
 40
55.903231
 40
55.903231
 10
432.048649
 20
995.078024
 30
0.0
 10
434.169555
 20
997.488957
 30
0.0
 10
438.348477
 20
1002.239331
 30
0.0
 10
439.054771
 20
1012.145142
 30
0.0
 10
435.020141
 20
1020.975262
 30
0.0
 10
427.066754
 20
1026.542390
 30
0.0
 10
417.196839
 20
1027.641811
 30
0.0
 10
411.768180
 20
1024.392334
 30
0.0
 10
409.013001
 20
1022.743144
 30
0.0
 11
432.048649
 21
995.078024
 31
0.0
 11
437.455635
 21
1002.779759
 31
0.0
 11
438.284996
 21
1011.873194
 31
0.0
 11
434.360494
 21
1020.426001
 31
0.0
 11
426.659890
 21
1025.834597
 31
0.0
 11
417.566628
 21
1026.665858
 31
0.0
 11
409.013001
 21
1022.743144
 31
0.0
  0
LWPOLYLINE
  5
13b
100
AcDbEntity
  8
DT500
 62
5
100
AcDbPolyline
 90
2
 70
0
 10
374.431601
 20
993.948584
 30
0.0
 10
409.013001
 20
1022.743144
 30
0.0
  0
LWPOLYLINE
  5
13c
100
AcDbEntity
  8
DT500
 62
5
100
AcDbPolyline
 90
2
 70
0
 10
349.053297
 20
925.971064
 30
0.0
 10
314.471897
 20
897.176504
 30
0.0
  0
SPLINE
  5
13d
100
AcDbEntity
  8
DT500
 62
5
100
AcDbSpline
 70
0
 71
3
 72
13
 73
9
 74
7
 40
0.000000
 40
0.000000
 40
0.000000
 40
0.000000
 40
9.410219
 40
18.541397
 40
27.951616
 40
37.361835
 40
46.493012
 40
55.903231
 40
55.903231
 40
55.903231
 40
55.903231
 10
291.436249
 20
924.841624
 30
0.0
 10
289.315342
 20
922.430691
 30
0.0
 10
285.136421
 20
917.680317
 30
0.0
 10
284.430127
 20
907.774506
 30
0.0
 10
288.464757
 20
898.944386
 30
0.0
 10
296.418144
 20
893.377258
 30
0.0
 10
306.288059
 20
892.277837
 30
0.0
 10
311.716718
 20
895.527314
 30
0.0
 10
314.471897
 20
897.176504
 30
0.0
 11
291.436249
 21
924.841624
 31
0.0
 11
286.029262
 21
917.139889
 31
0.0
 11
285.199902
 21
908.046454
 31
0.0
 11
289.124403
 21
899.493647
 31
0.0
 11
296.825008
 21
894.085051
 31
0.0
 11
305.918270
 21
893.253790
 31
0.0
 11
314.471897
 21
897.176504
 31
0.0
  0
LWPOLYLINE
  5
13e
100
AcDbEntity
  8
DT500
 62
5
100
AcDbPolyline
 90
2
 70
0
 10
291.436249
 20
924.841624
 30
0.0
 10
326.017649
 20
953.636184
 30
0.0
  0
LWPOLYLINE
  5
13f
100
AcDbEntity
  8
DT500
 62
5
100
AcDbPolyline
 90
2
 70
0
 10
639.405697
 20
1062.702184
 30
0.0
 10
963.405697
 20
1062.702184
 30
0.0
  0
LWPOLYLINE
  5
140
100
AcDbEntity
  8
DT500
 62
5
100
AcDbPolyline
 90
2
 70
0
 10
675.405697
 20
1152.702184
 30
0.0
 10
675.405697
 20
1098.702184
 30
0.0
  0
LWPOLYLINE
  5
141
100
AcDbEntity
  8
DT500
 62
5
100
AcDbPolyline
 90
2
 70
0
 10
927.405697
 20
1152.702184
 30
0.0
 10
927.405697
 20
1098.702184
 30
0.0
  0
LWPOLYLINE
  5
142
100
AcDbEntity
  8
DT500
 62
5
100
AcDbPolyline
 90
2
 70
0
 10
639.405697
 20
1098.702184
 30
0.0
 10
675.405697
 20
1098.702184
 30
0.0
  0
LWPOLYLINE
  5
143
100
AcDbEntity
  8
DT500
 62
5
100
AcDbPolyline
 90
2
 70
0
 10
927.405697
 20
1098.702184
 30
0.0
 10
963.405697
 20
1098.702184
 30
0.0
  0
SPLINE
  5
144
100
AcDbEntity
  8
DT500
 62
5
100
AcDbSpline
 70
0
 71
3
 72
13
 73
9
 74
7
 40
0.000000
 40
0.000000
 40
0.000000
 40
0.000000
 40
9.410219
 40
18.541397
 40
27.951616
 40
37.361835
 40
46.493012
 40
55.903231
 40
55.903231
 40
55.903231
 40
55.903231
 10
349.053297
 20
925.971064
 30
0.0
 10
351.174203
 20
928.381997
 30
0.0
 10
355.353125
 20
933.132371
 30
0.0
 10
356.059419
 20
943.038182
 30
0.0
 10
352.024789
 20
951.868302
 30
0.0
 10
344.071402
 20
957.435430
 30
0.0
 10
334.201487
 20
958.534851
 30
0.0
 10
328.772828
 20
955.285374
 30
0.0
 10
326.017649
 20
953.636184
 30
0.0
 11
349.053297
 21
925.971064
 31
0.0
 11
354.460283
 21
933.672799
 31
0.0
 11
355.289644
 21
942.766234
 31
0.0
 11
351.365142
 21
951.319041
 31
0.0
 11
343.664538
 21
956.727637
 31
0.0
 11
334.571276
 21
957.558898
 31
0.0
 11
326.017649
 21
953.636184
 31
0.0
  0
LWPOLYLINE
  5
145
100
AcDbEntity
  8
DT500
 62
5
100
AcDbPolyline
 90
2
 70
0
 10
927.405697
 20
1152.702184
 30
0.0
 10
1530.405697
 20
1152.702184
 30
0.0
  0
SPLINE
  5
146
100
AcDbEntity
  8
DT500
 62
5
100
AcDbSpline
 70
0
 71
3
 72
25
 73
21
 74
19
 40
0.000000
 40
0.000000
 40
0.000000
 40
0.000000
 40
1.118081
 40
2.220161
 40
3.338242
 40
4.456323
 40
5.558402
 40
6.676483
 40
7.794564
 40
8.896644
 40
10.014725
 40
11.132806
 40
12.234885
 40
13.352966
 40
14.471047
 40
15.573127
 40
16.691208
 40
17.809289
 40
18.911368
 40
20.029450
 40
20.029450
 40
20.029450
 40
20.029450
 10
1184.313217
 20
1056.731944
 30
0.0
 10
1184.274936
 20
1057.106538
 30
0.0
 10
1184.198921
 20
1057.850366
 30
0.0
 10
1183.609171
 20
1058.833347
 30
0.0
 10
1182.745678
 20
1059.564166
 30
0.0
 10
1181.676404
 20
1059.951769
 30
0.0
 10
1180.541784
 20
1059.951769
 30
0.0
 10
1179.474008
 20
1059.564166
 30
0.0
 10
1178.604535
 20
1058.833347
 30
0.0
 10
1178.037003
 20
1057.850366
 30
0.0
 10
1177.838849
 20
1056.731944
 30
0.0
 10
1178.037003
 20
1055.613522
 30
0.0
 10
1178.604535
 20
1054.630541
 30
0.0
 10
1179.474008
 20
1053.899722
 30
0.0
 10
1180.541784
 20
1053.512119
 30
0.0
 10
1181.676404
 20
1053.512119
 30
0.0
 10
1182.745678
 20
1053.899722
 30
0.0
 10
1183.609171
 20
1054.630541
 30
0.0
 10
1184.198921
 20
1055.613522
 30
0.0
 10
1184.274936
 20
1056.357350
 30
0.0
 10
1184.313217
 20
1056.731944
 30
0.0
 11
1184.313217
 21
1056.731944
 31
0.0
 11
1184.118177
 21
1057.832882
 31
0.0
 11
1183.567137
 21
1058.787311
 31
0.0
 11
1182.711217
 21
1059.506689
 31
0.0
 11
1181.660257
 21
1059.888249
 31
0.0
 11
1180.558177
 21
1059.888249
 31
0.0
 11
1179.507217
 21
1059.506689
 31
0.0
 11
1178.651296
 21
1058.787311
 31
0.0
 11
1178.100257
 21
1057.832882
 31
0.0
 11
1177.905217
 21
1056.731944
 31
0.0
 11
1178.100257
 21
1055.631006
 31
0.0
 11
1178.651296
 21
1054.676577
 31
0.0
 11
1179.507217
 21
1053.957199
 31
0.0
 11
1180.558177
 21
1053.575639
 31
0.0
 11
1181.660257
 21
1053.575639
 31
0.0
 11
1182.711217
 21
1053.957199
 31
0.0
 11
1183.567137
 21
1054.676577
 31
0.0
 11
1184.118177
 21
1055.631006
 31
0.0
 11
1184.313217
 21
1056.731944
 31
0.0
  0
LWPOLYLINE
  5
147
100
AcDbEntity
  8
DT500
 62
5
100
AcDbPolyline
 90
2
 70
1
 10
1184.313217
 20
1056.731944
 30
0.0
 10
1184.313217
 20
1056.731944
 30
0.0
  0
SPLINE
  5
148
100
AcDbEntity
  8
DT500
 62
5
100
AcDbSpline
 70
0
 71
3
 72
25
 73
21
 74
19
 40
0.000000
 40
0.000000
 40
0.000000
 40
0.000000
 40
1.118081
 40
2.220161
 40
3.338242
 40
4.456323
 40
5.558402
 40
6.676483
 40
7.794564
 40
8.896644
 40
10.014725
 40
11.132806
 40
12.234885
 40
13.352966
 40
14.471047
 40
15.573127
 40
16.691208
 40
17.809289
 40
18.911368
 40
20.029450
 40
20.029450
 40
20.029450
 40
20.029450
 10
609.813697
 20
1125.838824
 30
0.0
 10
609.775416
 20
1126.213418
 30
0.0
 10
609.699401
 20
1126.957246
 30
0.0
 10
609.109651
 20
1127.940227
 30
0.0
 10
608.246158
 20
1128.671046
 30
0.0
 10
607.176884
 20
1129.058649
 30
0.0
 10
606.042264
 20
1129.058649
 30
0.0
 10
604.974488
 20
1128.671046
 30
0.0
 10
604.105015
 20
1127.940227
 30
0.0
 10
603.537483
 20
1126.957246
 30
0.0
 10
603.339329
 20
1125.838824
 30
0.0
 10
603.537483
 20
1124.720402
 30
0.0
 10
604.105015
 20
1123.737421
 30
0.0
 10
604.974488
 20
1123.006602
 30
0.0
 10
606.042264
 20
1122.618999
 30
0.0
 10
607.176884
 20
1122.618999
 30
0.0
 10
608.246158
 20
1123.006602
 30
0.0
 10
609.109651
 20
1123.737421
 30
0.0
 10
609.699401
 20
1124.720402
 30
0.0
 10
609.775416
 20
1125.464230
 30
0.0
 10
609.813697
 20
1125.838824
 30
0.0
 11
609.813697
 21
1125.838824
 31
0.0
 11
609.618657
 21
1126.939762
 31
0.0
 11
609.067617
 21
1127.894191
 31
0.0
 11
608.211697
 21
1128.613569
 31
0.0
 11
607.160737
 21
1128.995129
 31
0.0
 11
606.058657
 21
1128.995129
 31
0.0
 11
605.007697
 21
1128.613569
 31
0.0
 11
604.151776
 21
1127.894191
 31
0.0
 11
603.600737
 21
1126.939762
 31
0.0
 11
603.405697
 21
1125.838824
 31
0.0
 11
603.600737
 21
1124.737886
 31
0.0
 11
604.151776
 21
1123.783457
 31
0.0
 11
605.007697
 21
1123.064079
 31
0.0
 11
606.058657
 21
1122.682519
 31
0.0
 11
607.160737
 21
1122.682519
 31
0.0
 11
608.211697
 21
1123.064079
 31
0.0
 11
609.067617
 21
1123.783457
 31
0.0
 11
609.618657
 21
1124.737886
 31
0.0
 11
609.813697
 21
1125.838824
 31
0.0
  0
LWPOLYLINE
  5
149
100
AcDbEntity
  8
DT500
 62
5
100
AcDbPolyline
 90
2
 70
1
 10
609.813697
 20
1125.838824
 30
0.0
 10
609.813697
 20
1125.838824
 30
0.0
  0
LWPOLYLINE
  5
14a
100
AcDbEntity
  8
DT500
 62
5
100
AcDbPolyline
 90
2
 70
1
 10
507.901513
 20
1125.838824
 30
0.0
 10
507.901513
 20
1125.838824
 30
0.0
  0
SPLINE
  5
14b
100
AcDbEntity
  8
DT500
 62
5
100
AcDbSpline
 70
0
 71
3
 72
25
 73
21
 74
19
 40
0.000000
 40
0.000000
 40
0.000000
 40
0.000000
 40
1.118081
 40
2.220161
 40
3.338242
 40
4.456323
 40
5.558402
 40
6.676483
 40
7.794564
 40
8.896644
 40
10.014725
 40
11.132806
 40
12.234885
 40
13.352966
 40
14.471047
 40
15.573127
 40
16.691208
 40
17.809289
 40
18.911368
 40
20.029450
 40
20.029450
 40
20.029450
 40
20.029450
 10
507.901513
 20
1125.838824
 30
0.0
 10
507.863232
 20
1126.213418
 30
0.0
 10
507.787217
 20
1126.957246
 30
0.0
 10
507.197467
 20
1127.940227
 30
0.0
 10
506.333974
 20
1128.671046
 30
0.0
 10
505.264700
 20
1129.058649
 30
0.0
 10
504.130080
 20
1129.058649
 30
0.0
 10
503.062304
 20
1128.671046
 30
0.0
 10
502.192831
 20
1127.940227
 30
0.0
 10
501.625299
 20
1126.957246
 30
0.0
 10
501.427145
 20
1125.838824
 30
0.0
 10
501.625299
 20
1124.720402
 30
0.0
 10
502.192831
 20
1123.737421
 30
0.0
 10
503.062304
 20
1123.006602
 30
0.0
 10
504.130080
 20
1122.618999
 30
0.0
 10
505.264700
 20
1122.618999
 30
0.0
 10
506.333974
 20
1123.006602
 30
0.0
 10
507.197467
 20
1123.737421
 30
0.0
 10
507.787217
 20
1124.720402
 30
0.0
 10
507.863232
 20
1125.464230
 30
0.0
 10
507.901513
 20
1125.838824
 30
0.0
 11
507.901513
 21
1125.838824
 31
0.0
 11
507.706473
 21
1126.939762
 31
0.0
 11
507.155433
 21
1127.894191
 31
0.0
 11
506.299513
 21
1128.613569
 31
0.0
 11
505.248553
 21
1128.995129
 31
0.0
 11
504.146473
 21
1128.995129
 31
0.0
 11
503.095513
 21
1128.613569
 31
0.0
 11
502.239592
 21
1127.894191
 31
0.0
 11
501.688553
 21
1126.939762
 31
0.0
 11
501.493513
 21
1125.838824
 31
0.0
 11
501.688553
 21
1124.737886
 31
0.0
 11
502.239592
 21
1123.783457
 31
0.0
 11
503.095513
 21
1123.064079
 31
0.0
 11
504.146473
 21
1122.682519
 31
0.0
 11
505.248553
 21
1122.682519
 31
0.0
 11
506.299513
 21
1123.064079
 31
0.0
 11
507.155433
 21
1123.783457
 31
0.0
 11
507.706473
 21
1124.737886
 31
0.0
 11
507.901513
 21
1125.838824
 31
0.0
  0
SPLINE
  5
14c
100
AcDbEntity
  8
DT500
 62
5
100
AcDbSpline
 70
0
 71
3
 72
13
 73
9
 74
7
 40
0.000000
 40
0.000000
 40
0.000000
 40
0.000000
 40
9.410219
 40
18.541397
 40
27.951616
 40
37.361835
 40
46.493012
 40
55.903231
 40
55.903231
 40
55.903231
 40
55.903231
 10
515.044009
 20
1064.184984
 30
0.0
 10
517.164915
 20
1066.595917
 30
0.0
 10
521.343837
 20
1071.346291
 30
0.0
 10
522.050131
 20
1081.252102
 30
0.0
 10
518.015501
 20
1090.082222
 30
0.0
 10
510.062114
 20
1095.649350
 30
0.0
 10
500.192199
 20
1096.748771
 30
0.0
 10
494.763540
 20
1093.499294
 30
0.0
 10
492.008361
 20
1091.850104
 30
0.0
 11
515.044009
 21
1064.184984
 31
0.0
 11
520.450995
 21
1071.886719
 31
0.0
 11
521.280356
 21
1080.980154
 31
0.0
 11
517.355854
 21
1089.532961
 31
0.0
 11
509.655250
 21
1094.941557
 31
0.0
 11
500.561988
 21
1095.772818
 31
0.0
 11
492.008361
 21
1091.850104
 31
0.0
  0
LWPOLYLINE
  5
14d
100
AcDbEntity
  8
DT500
 62
5
100
AcDbPolyline
 90
2
 70
0
 10
457.426961
 20
1063.055544
 30
0.0
 10
492.008361
 20
1091.850104
 30
0.0
  0
SPLINE
  5
14e
100
AcDbEntity
  8
DT500
 62
5
100
AcDbSpline
 70
0
 71
3
 72
25
 73
21
 74
19
 40
0.000000
 40
0.000000
 40
0.000000
 40
0.000000
 40
1.118081
 40
2.220161
 40
3.338242
 40
4.456323
 40
5.558402
 40
6.676483
 40
7.794564
 40
8.896644
 40
10.014725
 40
11.132806
 40
12.234885
 40
13.352966
 40
14.471047
 40
15.573127
 40
16.691208
 40
17.809289
 40
18.911368
 40
20.029450
 40
20.029450
 40
20.029450
 40
20.029450
 10
424.906153
 20
1056.731944
 30
0.0
 10
424.867872
 20
1057.106538
 30
0.0
 10
424.791857
 20
1057.850366
 30
0.0
 10
424.202107
 20
1058.833347
 30
0.0
 10
423.338614
 20
1059.564166
 30
0.0
 10
422.269340
 20
1059.951769
 30
0.0
 10
421.134720
 20
1059.951769
 30
0.0
 10
420.066944
 20
1059.564166
 30
0.0
 10
419.197471
 20
1058.833347
 30
0.0
 10
418.629939
 20
1057.850366
 30
0.0
 10
418.431785
 20
1056.731944
 30
0.0
 10
418.629939
 20
1055.613522
 30
0.0
 10
419.197471
 20
1054.630541
 30
0.0
 10
420.066944
 20
1053.899722
 30
0.0
 10
421.134720
 20
1053.512119
 30
0.0
 10
422.269340
 20
1053.512119
 30
0.0
 10
423.338614
 20
1053.899722
 30
0.0
 10
424.202107
 20
1054.630541
 30
0.0
 10
424.791857
 20
1055.613522
 30
0.0
 10
424.867872
 20
1056.357350
 30
0.0
 10
424.906153
 20
1056.731944
 30
0.0
 11
424.906153
 21
1056.731944
 31
0.0
 11
424.711113
 21
1057.832882
 31
0.0
 11
424.160073
 21
1058.787311
 31
0.0
 11
423.304153
 21
1059.506689
 31
0.0
 11
422.253193
 21
1059.888249
 31
0.0
 11
421.151113
 21
1059.888249
 31
0.0
 11
420.100153
 21
1059.506689
 31
0.0
 11
419.244232
 21
1058.787311
 31
0.0
 11
418.693193
 21
1057.832882
 31
0.0
 11
418.498153
 21
1056.731944
 31
0.0
 11
418.693193
 21
1055.631006
 31
0.0
 11
419.244232
 21
1054.676577
 31
0.0
 11
420.100153
 21
1053.957199
 31
0.0
 11
421.151113
 21
1053.575639
 31
0.0
 11
422.253193
 21
1053.575639
 31
0.0
 11
423.304153
 21
1053.957199
 31
0.0
 11
424.160073
 21
1054.676577
 31
0.0
 11
424.711113
 21
1055.631006
 31
0.0
 11
424.906153
 21
1056.731944
 31
0.0
  0
LWPOLYLINE
  5
14f
100
AcDbEntity
  8
DT500
 62
5
100
AcDbPolyline
 90
2
 70
1
 10
424.906153
 20
1056.731944
 30
0.0
 10
424.906153
 20
1056.731944
 30
0.0
  0
SPLINE
  5
150
100
AcDbEntity
  8
DT500
 62
5
100
AcDbSpline
 70
0
 71
3
 72
25
 73
21
 74
19
 40
0.000000
 40
0.000000
 40
0.000000
 40
0.000000
 40
1.118081
 40
2.220161
 40
3.338242
 40
4.456323
 40
5.558402
 40
6.676483
 40
7.794564
 40
8.896644
 40
10.014725
 40
11.132806
 40
12.234885
 40
13.352966
 40
14.471047
 40
15.573127
 40
16.691208
 40
17.809289
 40
18.911368
 40
20.029450
 40
20.029450
 40
20.029450
 40
20.029450
 10
505.593209
 20
212.060744
 30
0.0
 10
505.554928
 20
212.435338
 30
0.0
 10
505.478913
 20
213.179166
 30
0.0
 10
504.889163
 20
214.162147
 30
0.0
 10
504.025670
 20
214.892966
 30
0.0
 10
502.956396
 20
215.280569
 30
0.0
 10
501.821776
 20
215.280569
 30
0.0
 10
500.754000
 20
214.892966
 30
0.0
 10
499.884527
 20
214.162147
 30
0.0
 10
499.316995
 20
213.179166
 30
0.0
 10
499.118841
 20
212.060744
 30
0.0
 10
499.316995
 20
210.942322
 30
0.0
 10
499.884527
 20
209.959341
 30
0.0
 10
500.754000
 20
209.228522
 30
0.0
 10
501.821776
 20
208.840919
 30
0.0
 10
502.956396
 20
208.840919
 30
0.0
 10
504.025670
 20
209.228522
 30
0.0
 10
504.889163
 20
209.959341
 30
0.0
 10
505.478913
 20
210.942322
 30
0.0
 10
505.554928
 20
211.686150
 30
0.0
 10
505.593209
 20
212.060744
 30
0.0
 11
505.593209
 21
212.060744
 31
0.0
 11
505.398169
 21
213.161682
 31
0.0
 11
504.847129
 21
214.116111
 31
0.0
 11
503.991209
 21
214.835489
 31
0.0
 11
502.940249
 21
215.217049
 31
0.0
 11
501.838169
 21
215.217049
 31
0.0
 11
500.787209
 21
214.835489
 31
0.0
 11
499.931288
 21
214.116111
 31
0.0
 11
499.380249
 21
213.161682
 31
0.0
 11
499.185209
 21
212.060744
 31
0.0
 11
499.380249
 21
210.959806
 31
0.0
 11
499.931288
 21
210.005377
 31
0.0
 11
500.787209
 21
209.285999
 31
0.0
 11
501.838169
 21
208.904439
 31
0.0
 11
502.940249
 21
208.904439
 31
0.0
 11
503.991209
 21
209.285999
 31
0.0
 11
504.847129
 21
210.005377
 31
0.0
 11
505.398169
 21
210.959806
 31
0.0
 11
505.593209
 21
212.060744
 31
0.0
  0
LWPOLYLINE
  5
151
100
AcDbEntity
  8
DT500
 62
5
100
AcDbPolyline
 90
2
 70
1
 10
505.593209
 20
212.060744
 30
0.0
 10
505.593209
 20
212.060744
 30
0.0
  0
SPLINE
  5
152
100
AcDbEntity
  8
DT500
 62
5
100
AcDbSpline
 70
0
 71
3
 72
25
 73
21
 74
19
 40
0.000000
 40
0.000000
 40
0.000000
 40
0.000000
 40
1.118081
 40
2.220161
 40
3.338242
 40
4.456323
 40
5.558402
 40
6.676483
 40
7.794564
 40
8.896644
 40
10.014725
 40
11.132806
 40
12.234886
 40
13.352967
 40
14.471048
 40
15.573127
 40
16.691208
 40
17.809289
 40
18.911369
 40
20.029450
 40
20.029450
 40
20.029450
 40
20.029450
 10
93.622477
 20
594.302184
 30
0.0
 10
93.584196
 20
594.676779
 30
0.0
 10
93.508181
 20
595.420606
 30
0.0
 10
92.918431
 20
596.403587
 30
0.0
 10
92.054938
 20
597.134407
 30
0.0
 10
90.985664
 20
597.522009
 30
0.0
 10
89.851044
 20
597.522009
 30
0.0
 10
88.783268
 20
597.134407
 30
0.0
 10
87.913795
 20
596.403587
 30
0.0
 10
87.346263
 20
595.420606
 30
0.0
 10
87.148109
 20
594.302184
 30
0.0
 10
87.346263
 20
593.183762
 30
0.0
 10
87.913795
 20
592.200781
 30
0.0
 10
88.783268
 20
591.469961
 30
0.0
 10
89.851044
 20
591.082359
 30
0.0
 10
90.985664
 20
591.082359
 30
0.0
 10
92.054938
 20
591.469961
 30
0.0
 10
92.918431
 20
592.200781
 30
0.0
 10
93.508181
 20
593.183762
 30
0.0
 10
93.584196
 20
593.927589
 30
0.0
 10
93.622477
 20
594.302184
 30
0.0
 11
93.622477
 21
594.302184
 31
0.0
 11
93.427437
 21
595.403122
 31
0.0
 11
92.876397
 21
596.357551
 31
0.0
 11
92.020477
 21
597.076929
 31
0.0
 11
90.969517
 21
597.458489
 31
0.0
 11
89.867437
 21
597.458489
 31
0.0
 11
88.816477
 21
597.076929
 31
0.0
 11
87.960556
 21
596.357551
 31
0.0
 11
87.409517
 21
595.403122
 31
0.0
 11
87.214477
 21
594.302184
 31
0.0
 11
87.409517
 21
593.201246
 31
0.0
 11
87.960556
 21
592.246817
 31
0.0
 11
88.816477
 21
591.527439
 31
0.0
 11
89.867437
 21
591.145879
 31
0.0
 11
90.969517
 21
591.145879
 31
0.0
 11
92.020477
 21
591.527439
 31
0.0
 11
92.876397
 21
592.246817
 31
0.0
 11
93.427437
 21
593.201246
 31
0.0
 11
93.622477
 21
594.302184
 31
0.0
  0
LWPOLYLINE
  5
153
100
AcDbEntity
  8
DT500
 62
5
100
AcDbPolyline
 90
2
 70
1
 10
93.622477
 20
594.302184
 30
0.0
 10
93.622477
 20
594.302184
 30
0.0
  0
SPLINE
  5
154
100
AcDbEntity
  8
DT500
 62
5
100
AcDbSpline
 70
0
 71
3
 72
25
 73
21
 74
19
 40
0.000000
 40
0.000000
 40
0.000000
 40
0.000000
 40
1.118081
 40
2.220161
 40
3.338242
 40
4.456323
 40
5.558402
 40
6.676483
 40
7.794564
 40
8.896644
 40
10.014725
 40
11.132806
 40
12.234886
 40
13.352967
 40
14.471048
 40
15.573127
 40
16.691208
 40
17.809289
 40
18.911369
 40
20.029450
 40
20.029450
 40
20.029450
 40
20.029450
 10
93.622477
 20
306.302184
 30
0.0
 10
93.584196
 20
306.676779
 30
0.0
 10
93.508181
 20
307.420606
 30
0.0
 10
92.918431
 20
308.403587
 30
0.0
 10
92.054938
 20
309.134407
 30
0.0
 10
90.985664
 20
309.522009
 30
0.0
 10
89.851044
 20
309.522009
 30
0.0
 10
88.783268
 20
309.134407
 30
0.0
 10
87.913795
 20
308.403587
 30
0.0
 10
87.346263
 20
307.420606
 30
0.0
 10
87.148109
 20
306.302184
 30
0.0
 10
87.346263
 20
305.183762
 30
0.0
 10
87.913795
 20
304.200781
 30
0.0
 10
88.783268
 20
303.469961
 30
0.0
 10
89.851044
 20
303.082359
 30
0.0
 10
90.985664
 20
303.082359
 30
0.0
 10
92.054938
 20
303.469961
 30
0.0
 10
92.918431
 20
304.200781
 30
0.0
 10
93.508181
 20
305.183762
 30
0.0
 10
93.584196
 20
305.927589
 30
0.0
 10
93.622477
 20
306.302184
 30
0.0
 11
93.622477
 21
306.302184
 31
0.0
 11
93.427437
 21
307.403122
 31
0.0
 11
92.876397
 21
308.357551
 31
0.0
 11
92.020477
 21
309.076929
 31
0.0
 11
90.969517
 21
309.458489
 31
0.0
 11
89.867437
 21
309.458489
 31
0.0
 11
88.816477
 21
309.076929
 31
0.0
 11
87.960556
 21
308.357551
 31
0.0
 11
87.409517
 21
307.403122
 31
0.0
 11
87.214477
 21
306.302184
 31
0.0
 11
87.409517
 21
305.201246
 31
0.0
 11
87.960556
 21
304.246817
 31
0.0
 11
88.816477
 21
303.527439
 31
0.0
 11
89.867437
 21
303.145879
 31
0.0
 11
90.969517
 21
303.145879
 31
0.0
 11
92.020477
 21
303.527439
 31
0.0
 11
92.876397
 21
304.246817
 31
0.0
 11
93.427437
 21
305.201246
 31
0.0
 11
93.622477
 21
306.302184
 31
0.0
  0
SPLINE
  5
155
100
AcDbEntity
  8
DT500
 62
5
100
AcDbSpline
 70
0
 71
3
 72
16
 73
12
 74
10
 40
0.000000
 40
0.000000
 40
0.000000
 40
0.000000
 40
14.919514
 40
29.625472
 40
44.544986
 40
59.464500
 40
74.170458
 40
89.089972
 40
104.009486
 40
118.715444
 40
133.634958
 40
133.634958
 40
133.634958
 40
133.634958
 10
210.844417
 20
1055.415464
 30
0.0
 10
210.334242
 20
1060.414074
 30
0.0
 10
209.321195
 20
1070.339744
 30
0.0
 10
201.452702
 20
1083.457256
 30
0.0
 10
189.931354
 20
1093.209938
 30
0.0
 10
175.661687
 20
1098.382499
 30
0.0
 10
160.527144
 20
1098.382499
 30
0.0
 10
146.257478
 20
1093.209938
 30
0.0
 10
134.736129
 20
1083.457256
 30
0.0
 10
126.867636
 20
1070.339744
 30
0.0
 10
125.854589
 20
1060.414074
 30
0.0
 10
125.344414
 20
1055.415464
 30
0.0
 11
210.844417
 21
1055.415464
 31
0.0
 11
208.243617
 21
1070.106541
 31
0.0
 11
200.891800
 21
1082.842945
 31
0.0
 11
189.471105
 21
1092.442925
 31
0.0
 11
175.447394
 21
1097.534826
 31
0.0
 11
160.741437
 21
1097.534826
 31
0.0
 11
146.717727
 21
1092.442925
 31
0.0
 11
135.297031
 21
1082.842945
 31
0.0
 11
127.945214
 21
1070.106541
 31
0.0
 11
125.344414
 21
1055.415464
 31
0.0
  0
LWPOLYLINE
  5
156
100
AcDbEntity
  8
DT500
 62
5
100
AcDbPolyline
 90
2
 70
1
 10
93.622477
 20
306.302184
 30
0.0
 10
93.622477
 20
306.302184
 30
0.0
  0
SPLINE
  5
157
100
AcDbEntity
  8
DT500
 62
5
100
AcDbSpline
 70
0
 71
3
 72
16
 73
12
 74
10
 40
0.000000
 40
0.000000
 40
0.000000
 40
0.000000
 40
14.919514
 40
29.625472
 40
44.544986
 40
59.464500
 40
74.170458
 40
89.089972
 40
104.009486
 40
118.715444
 40
133.634958
 40
133.634958
 40
133.634958
 40
133.634958
 10
125.344414
 20
1055.415464
 30
0.0
 10
125.854589
 20
1050.416854
 30
0.0
 10
126.867636
 20
1040.491184
 30
0.0
 10
134.736129
 20
1027.373672
 30
0.0
 10
146.257478
 20
1017.620990
 30
0.0
 10
160.527144
 20
1012.448429
 30
0.0
 10
175.661687
 20
1012.448429
 30
0.0
 10
189.931354
 20
1017.620990
 30
0.0
 10
201.452702
 20
1027.373672
 30
0.0
 10
209.321195
 20
1040.491184
 30
0.0
 10
210.334242
 20
1050.416854
 30
0.0
 10
210.844417
 20
1055.415464
 30
0.0
 11
125.344414
 21
1055.415464
 31
0.0
 11
127.945214
 21
1040.724387
 31
0.0
 11
135.297031
 21
1027.987983
 31
0.0
 11
146.717727
 21
1018.388003
 31
0.0
 11
160.741437
 21
1013.296102
 31
0.0
 11
175.447394
 21
1013.296102
 31
0.0
 11
189.471105
 21
1018.388003
 31
0.0
 11
200.891800
 21
1027.987983
 31
0.0
 11
208.243617
 21
1040.724387
 31
0.0
 11
210.844417
 21
1055.415464
 31
0.0
  0
LWPOLYLINE
  5
158
100
AcDbEntity
  8
DT500
 62
5
100
AcDbPolyline
 90
2
 70
1
 10
210.844417
 20
1055.415464
 30
0.0
 10
210.844417
 20
1055.415464
 30
0.0
  0
SPLINE
  5
159
100
AcDbEntity
  8
DT500
 62
5
100
AcDbSpline
 70
0
 71
3
 72
25
 73
21
 74
19
 40
0.000000
 40
0.000000
 40
0.000000
 40
0.000000
 40
14.918216
 40
29.622929
 40
44.541145
 40
59.459361
 40
74.164074
 40
89.082289
 40
104.000505
 40
118.705218
 40
133.623434
 40
148.541650
 40
163.246363
 40
178.164579
 40
193.082795
 40
207.787508
 40
222.705724
 40
237.623940
 40
252.328652
 40
267.246868
 40
267.246868
 40
267.246868
 40
267.246868
 10
1477.466977
 20
1055.415464
 30
0.0
 10
1476.956202
 20
1060.413565
 30
0.0
 10
1475.941961
 20
1070.338236
 30
0.0
 10
1468.073111
 20
1083.453841
 30
0.0
 10
1456.551781
 20
1093.204949
 30
0.0
 10
1442.284785
 20
1098.376612
 30
0.0
 10
1427.145894
 20
1098.376612
 30
0.0
 10
1412.898879
 20
1093.204949
 30
0.0
 10
1401.297767
 20
1083.453841
 30
0.0
 10
1393.725357
 20
1070.338236
 30
0.0
 10
1391.081450
 20
1055.415464
 30
0.0
 10
1393.725357
 20
1040.492692
 30
0.0
 10
1401.297767
 20
1027.377087
 30
0.0
 10
1412.898879
 20
1017.625979
 30
0.0
 10
1427.145894
 20
1012.454316
 30
0.0
 10
1442.284785
 20
1012.454316
 30
0.0
 10
1456.551781
 20
1017.625979
 30
0.0
 10
1468.073111
 20
1027.377087
 30
0.0
 10
1475.941961
 20
1040.492692
 30
0.0
 10
1476.956202
 20
1050.417363
 30
0.0
 10
1477.466977
 20
1055.415464
 30
0.0
 11
1477.466977
 21
1055.415464
 31
0.0
 11
1474.864620
 21
1070.104947
 31
0.0
 11
1467.512264
 21
1082.839602
 31
0.0
 11
1456.091977
 21
1092.438050
 31
0.0
 11
1442.069333
 21
1097.529085
 31
0.0
 11
1427.364620
 21
1097.529085
 31
0.0
 11
1413.341977
 21
1092.438050
 31
0.0
 11
1401.921690
 21
1082.839602
 31
0.0
 11
1394.569333
 21
1070.104947
 31
0.0
 11
1391.966977
 21
1055.415464
 31
0.0
 11
1394.569333
 21
1040.725981
 31
0.0
 11
1401.921690
 21
1027.991326
 31
0.0
 11
1413.341977
 21
1018.392878
 31
0.0
 11
1427.364620
 21
1013.301843
 31
0.0
 11
1442.069333
 21
1013.301843
 31
0.0
 11
1456.091977
 21
1018.392878
 31
0.0
 11
1467.512264
 21
1027.991326
 31
0.0
 11
1474.864620
 21
1040.725981
 31
0.0
 11
1477.466977
 21
1055.415464
 31
0.0
  0
LWPOLYLINE
  5
15a
100
AcDbEntity
  8
DT500
 62
5
100
AcDbPolyline
 90
2
 70
1
 10
1477.466977
 20
1055.415464
 30
0.0
 10
1477.466977
 20
1055.415464
 30
0.0
  0
SPLINE
  5
15b
100
AcDbEntity
  8
DT500
 62
5
100
AcDbSpline
 70
0
 71
3
 72
25
 73
21
 74
19
 40
0.000000
 40
0.000000
 40
0.000000
 40
0.000000
 40
6.281354
 40
12.472812
 40
18.754166
 40
25.035520
 40
31.226978
 40
37.508332
 40
43.789686
 40
49.981145
 40
56.262499
 40
62.543853
 40
68.735311
 40
75.016665
 40
81.298019
 40
87.489477
 40
93.770831
 40
100.052185
 40
106.243643
 40
112.524997
 40
112.524997
 40
112.524997
 40
112.524997
 10
1309.860337
 20
396.401704
 30
0.0
 10
1309.645274
 20
398.506167
 30
0.0
 10
1309.218225
 20
402.684976
 30
0.0
 10
1305.905025
 20
408.207336
 30
0.0
 10
1301.053939
 20
412.313066
 30
0.0
 10
1295.046783
 20
414.490609
 30
0.0
 10
1288.672512
 20
414.490609
 30
0.0
 10
1282.673769
 20
412.313066
 30
0.0
 10
1277.789090
 20
408.207336
 30
0.0
 10
1274.600707
 20
402.684976
 30
0.0
 10
1273.487484
 20
396.401704
 30
0.0
 10
1274.600707
 20
390.118432
 30
0.0
 10
1277.789090
 20
384.596072
 30
0.0
 10
1282.673769
 20
380.490342
 30
0.0
 10
1288.672512
 20
378.312799
 30
0.0
 10
1295.046783
 20
378.312799
 30
0.0
 10
1301.053939
 20
380.490342
 30
0.0
 10
1305.905025
 20
384.596072
 30
0.0
 10
1309.218225
 20
390.118432
 30
0.0
 10
1309.645274
 20
394.297241
 30
0.0
 10
1309.860337
 20
396.401704
 30
0.0
 11
1309.860337
 21
396.401704
 31
0.0
 11
1308.764608
 21
402.586749
 31
0.0
 11
1305.668879
 21
407.948709
 31
0.0
 11
1300.860337
 21
411.990161
 31
0.0
 11
1294.956066
 21
414.133755
 31
0.0
 11
1288.764608
 21
414.133755
 31
0.0
 11
1282.860337
 21
411.990161
 31
0.0
 11
1278.051795
 21
407.948709
 31
0.0
 11
1274.956066
 21
402.586749
 31
0.0
 11
1273.860337
 21
396.401704
 31
0.0
 11
1274.956066
 21
390.216659
 31
0.0
 11
1278.051795
 21
384.854699
 31
0.0
 11
1282.860337
 21
380.813247
 31
0.0
 11
1288.764608
 21
378.669653
 31
0.0
 11
1294.956066
 21
378.669653
 31
0.0
 11
1300.860337
 21
380.813247
 31
0.0
 11
1305.668879
 21
384.854699
 31
0.0
 11
1308.764608
 21
390.216659
 31
0.0
 11
1309.860337
 21
396.401704
 31
0.0
  0
LWPOLYLINE
  5
15c
100
AcDbEntity
  8
DT500
 62
5
100
AcDbPolyline
 90
2
 70
1
 10
1309.860337
 20
396.401704
 30
0.0
 10
1309.860337
 20
396.401704
 30
0.0
  0
LWPOLYLINE
  5
15d
100
AcDbEntity
  8
DT500
 62
5
100
AcDbPolyline
 90
2
 70
1
 10
1327.403297
 20
312.999944
 30
0.0
 10
1327.403297
 20
312.999944
 30
0.0
  0
LWPOLYLINE
  5
15e
100
AcDbEntity
  8
DT500
 62
5
100
AcDbPolyline
 90
2
 70
0
 10
1356.330657
 20
276.652744
 30
0.0
 10
1530.405697
 20
248.152424
 30
0.0
  0
SPLINE
  5
15f
100
AcDbEntity
  8
DT500
 62
5
100
AcDbSpline
 70
0
 71
3
 72
25
 73
21
 74
19
 40
0.000000
 40
0.000000
 40
0.000000
 40
0.000000
 40
1.118081
 40
2.220161
 40
3.338242
 40
4.456323
 40
5.558402
 40
6.676483
 40
7.794564
 40
8.896644
 40
10.014725
 40
11.132806
 40
12.234885
 40
13.352966
 40
14.471047
 40
15.573127
 40
16.691208
 40
17.809289
 40
18.911368
 40
20.029450
 40
20.029450
 40
20.029450
 40
20.029450
 10
1327.403297
 20
312.999944
 30
0.0
 10
1327.365016
 20
313.374538
 30
0.0
 10
1327.289001
 20
314.118366
 30
0.0
 10
1326.699251
 20
315.101347
 30
0.0
 10
1325.835758
 20
315.832166
 30
0.0
 10
1324.766484
 20
316.219769
 30
0.0
 10
1323.631864
 20
316.219769
 30
0.0
 10
1322.564088
 20
315.832166
 30
0.0
 10
1321.694615
 20
315.101347
 30
0.0
 10
1321.127083
 20
314.118366
 30
0.0
 10
1320.928929
 20
312.999944
 30
0.0
 10
1321.127083
 20
311.881522
 30
0.0
 10
1321.694615
 20
310.898541
 30
0.0
 10
1322.564088
 20
310.167722
 30
0.0
 10
1323.631864
 20
309.780119
 30
0.0
 10
1324.766484
 20
309.780119
 30
0.0
 10
1325.835758
 20
310.167722
 30
0.0
 10
1326.699251
 20
310.898541
 30
0.0
 10
1327.289001
 20
311.881522
 30
0.0
 10
1327.365016
 20
312.625350
 30
0.0
 10
1327.403297
 20
312.999944
 30
0.0
 11
1327.403297
 21
312.999944
 31
0.0
 11
1327.208257
 21
314.100882
 31
0.0
 11
1326.657217
 21
315.055311
 31
0.0
 11
1325.801297
 21
315.774689
 31
0.0
 11
1324.750337
 21
316.156249
 31
0.0
 11
1323.648257
 21
316.156249
 31
0.0
 11
1322.597297
 21
315.774689
 31
0.0
 11
1321.741376
 21
315.055311
 31
0.0
 11
1321.190337
 21
314.100882
 31
0.0
 11
1320.995297
 21
312.999944
 31
0.0
 11
1321.190337
 21
311.899006
 31
0.0
 11
1321.741376
 21
310.944577
 31
0.0
 11
1322.597297
 21
310.225199
 31
0.0
 11
1323.648257
 21
309.843639
 31
0.0
 11
1324.750337
 21
309.843639
 31
0.0
 11
1325.801297
 21
310.225199
 31
0.0
 11
1326.657217
 21
310.944577
 31
0.0
 11
1327.208257
 21
311.899006
 31
0.0
 11
1327.403297
 21
312.999944
 31
0.0
  0
LWPOLYLINE
  5
160
100
AcDbEntity
  8
DT500
 62
5
100
AcDbPolyline
 90
2
 70
0
 10
896.406257
 20
72.402424
 30
0.0
 10
1356.330657
 20
276.702584
 30
0.0
  0
SPLINE
  5
161
100
AcDbEntity
  8
DT500
 62
5
100
AcDbSpline
 70
0
 71
3
 72
25
 73
21
 74
19
 40
0.000000
 40
0.000000
 40
0.000000
 40
0.000000
 40
1.570339
 40
3.118203
 40
4.688542
 40
6.258880
 40
7.806745
 40
9.377083
 40
10.947422
 40
12.495286
 40
14.065625
 40
15.635963
 40
17.183828
 40
18.754166
 40
20.324505
 40
21.872369
 40
23.442708
 40
25.013046
 40
26.560911
 40
28.131249
 40
28.131249
 40
28.131249
 40
28.131249
 10
1453.612737
 20
744.117464
 30
0.0
 10
1453.558971
 20
744.643580
 30
0.0
 10
1453.452209
 20
745.688282
 30
0.0
 10
1452.623909
 20
747.068872
 30
0.0
 10
1451.411137
 20
748.095305
 30
0.0
 10
1449.909348
 20
748.639690
 30
0.0
 10
1448.315781
 20
748.639690
 30
0.0
 10
1446.816095
 20
748.095305
 30
0.0
 10
1445.594925
 20
747.068872
 30
0.0
 10
1444.797829
 20
745.688282
 30
0.0
 10
1444.519523
 20
744.117464
 30
0.0
 10
1444.797829
 20
742.546646
 30
0.0
 10
1445.594925
 20
741.166056
 30
0.0
 10
1446.816095
 20
740.139623
 30
0.0
 10
1448.315781
 20
739.595238
 30
0.0
 10
1449.909348
 20
739.595238
 30
0.0
 10
1451.411137
 20
740.139623
 30
0.0
 10
1452.623909
 20
741.166056
 30
0.0
 10
1453.452209
 20
742.546646
 30
0.0
 10
1453.558971
 20
743.591348
 30
0.0
 10
1453.612737
 20
744.117464
 30
0.0
 11
1453.612737
 21
744.117464
 31
0.0
 11
1453.338805
 21
745.663725
 31
0.0
 11
1452.564872
 21
747.004215
 31
0.0
 11
1451.362737
 21
748.014578
 31
0.0
 11
1449.886669
 21
748.550477
 31
0.0
 11
1448.338805
 21
748.550477
 31
0.0
 11
1446.862737
 21
748.014578
 31
0.0
 11
1445.660601
 21
747.004215
 31
0.0
 11
1444.886669
 21
745.663725
 31
0.0
 11
1444.612737
 21
744.117464
 31
0.0
 11
1444.886669
 21
742.571203
 31
0.0
 11
1445.660601
 21
741.230713
 31
0.0
 11
1446.862737
 21
740.220350
 31
0.0
 11
1448.338805
 21
739.684451
 31
0.0
 11
1449.886669
 21
739.684451
 31
0.0
 11
1451.362737
 21
740.220350
 31
0.0
 11
1452.564872
 21
741.230713
 31
0.0
 11
1453.338805
 21
742.571203
 31
0.0
 11
1453.612737
 21
744.117464
 31
0.0
  0
LWPOLYLINE
  5
162
100
AcDbEntity
  8
DT500
 62
5
100
AcDbPolyline
 90
2
 70
1
 10
1453.612737
 20
744.117464
 30
0.0
 10
1453.612737
 20
744.117464
 30
0.0
  0
SPLINE
  5
163
100
AcDbEntity
  8
DT500
 62
5
100
AcDbSpline
 70
0
 71
3
 72
25
 73
21
 74
19
 40
0.000000
 40
0.000000
 40
0.000000
 40
0.000000
 40
1.570339
 40
3.118203
 40
4.688542
 40
6.258880
 40
7.806745
 40
9.377083
 40
10.947422
 40
12.495286
 40
14.065625
 40
15.635963
 40
17.183828
 40
18.754166
 40
20.324505
 40
21.872369
 40
23.442708
 40
25.013046
 40
26.560911
 40
28.131249
 40
28.131249
 40
28.131249
 40
28.131249
 10
1307.637057
 20
1034.501784
 30
0.0
 10
1307.583291
 20
1035.027900
 30
0.0
 10
1307.476529
 20
1036.072602
 30
0.0
 10
1306.648229
 20
1037.453192
 30
0.0
 10
1305.435457
 20
1038.479625
 30
0.0
 10
1303.933668
 20
1039.024010
 30
0.0
 10
1302.340101
 20
1039.024010
 30
0.0
 10
1300.840415
 20
1038.479625
 30
0.0
 10
1299.619245
 20
1037.453192
 30
0.0
 10
1298.822149
 20
1036.072602
 30
0.0
 10
1298.543843
 20
1034.501784
 30
0.0
 10
1298.822149
 20
1032.930966
 30
0.0
 10
1299.619245
 20
1031.550376
 30
0.0
 10
1300.840415
 20
1030.523943
 30
0.0
 10
1302.340101
 20
1029.979558
 30
0.0
 10
1303.933668
 20
1029.979558
 30
0.0
 10
1305.435457
 20
1030.523943
 30
0.0
 10
1306.648229
 20
1031.550376
 30
0.0
 10
1307.476529
 20
1032.930966
 30
0.0
 10
1307.583291
 20
1033.975668
 30
0.0
 10
1307.637057
 20
1034.501784
 30
0.0
 11
1307.637057
 21
1034.501784
 31
0.0
 11
1307.363125
 21
1036.048045
 31
0.0
 11
1306.589192
 21
1037.388535
 31
0.0
 11
1305.387057
 21
1038.398898
 31
0.0
 11
1303.910989
 21
1038.934797
 31
0.0
 11
1302.363125
 21
1038.934797
 31
0.0
 11
1300.887057
 21
1038.398898
 31
0.0
 11
1299.684921
 21
1037.388535
 31
0.0
 11
1298.910989
 21
1036.048045
 31
0.0
 11
1298.637057
 21
1034.501784
 31
0.0
 11
1298.910989
 21
1032.955523
 31
0.0
 11
1299.684921
 21
1031.615033
 31
0.0
 11
1300.887057
 21
1030.604670
 31
0.0
 11
1302.363125
 21
1030.068771
 31
0.0
 11
1303.910989
 21
1030.068771
 31
0.0
 11
1305.387057
 21
1030.604670
 31
0.0
 11
1306.589192
 21
1031.615033
 31
0.0
 11
1307.363125
 21
1032.955523
 31
0.0
 11
1307.637057
 21
1034.501784
 31
0.0
  0
LWPOLYLINE
  5
164
100
AcDbEntity
  8
DT500
 62
5
100
AcDbPolyline
 90
2
 70
1
 10
1307.637057
 20
1034.501784
 30
0.0
 10
1307.637057
 20
1034.501784
 30
0.0
  0
SPLINE
  5
165
100
AcDbEntity
  8
DT500
 62
5
100
AcDbSpline
 70
0
 71
3
 72
25
 73
21
 74
19
 40
0.000000
 40
0.000000
 40
0.000000
 40
0.000000
 40
1.118081
 40
2.220161
 40
3.338242
 40
4.456323
 40
5.558402
 40
6.676483
 40
7.794564
 40
8.896644
 40
10.014725
 40
11.132806
 40
12.234885
 40
13.352966
 40
14.471047
 40
15.573127
 40
16.691208
 40
17.809289
 40
18.911368
 40
20.029450
 40
20.029450
 40
20.029450
 40
20.029450
 10
1267.308577
 20
987.624984
 30
0.0
 10
1267.270296
 20
987.999578
 30
0.0
 10
1267.194281
 20
988.743406
 30
0.0
 10
1266.604531
 20
989.726387
 30
0.0
 10
1265.741038
 20
990.457206
 30
0.0
 10
1264.671764
 20
990.844809
 30
0.0
 10
1263.537144
 20
990.844809
 30
0.0
 10
1262.469368
 20
990.457206
 30
0.0
 10
1261.599895
 20
989.726387
 30
0.0
 10
1261.032363
 20
988.743406
 30
0.0
 10
1260.834209
 20
987.624984
 30
0.0
 10
1261.032363
 20
986.506562
 30
0.0
 10
1261.599895
 20
985.523581
 30
0.0
 10
1262.469368
 20
984.792762
 30
0.0
 10
1263.537144
 20
984.405159
 30
0.0
 10
1264.671764
 20
984.405159
 30
0.0
 10
1265.741038
 20
984.792762
 30
0.0
 10
1266.604531
 20
985.523581
 30
0.0
 10
1267.194281
 20
986.506562
 30
0.0
 10
1267.270296
 20
987.250390
 30
0.0
 10
1267.308577
 20
987.624984
 30
0.0
 11
1267.308577
 21
987.624984
 31
0.0
 11
1267.113537
 21
988.725922
 31
0.0
 11
1266.562497
 21
989.680351
 31
0.0
 11
1265.706577
 21
990.399729
 31
0.0
 11
1264.655617
 21
990.781289
 31
0.0
 11
1263.553537
 21
990.781289
 31
0.0
 11
1262.502577
 21
990.399729
 31
0.0
 11
1261.646656
 21
989.680351
 31
0.0
 11
1261.095617
 21
988.725922
 31
0.0
 11
1260.900577
 21
987.624984
 31
0.0
 11
1261.095617
 21
986.524046
 31
0.0
 11
1261.646656
 21
985.569617
 31
0.0
 11
1262.502577
 21
984.850239
 31
0.0
 11
1263.553537
 21
984.468679
 31
0.0
 11
1264.655617
 21
984.468679
 31
0.0
 11
1265.706577
 21
984.850239
 31
0.0
 11
1266.562497
 21
985.569617
 31
0.0
 11
1267.113537
 21
986.524046
 31
0.0
 11
1267.308577
 21
987.624984
 31
0.0
  0
LWPOLYLINE
  5
166
100
AcDbEntity
  8
DT500
 62
5
100
AcDbPolyline
 90
2
 70
1
 10
1267.308577
 20
987.624984
 30
0.0
 10
1267.308577
 20
987.624984
 30
0.0
  0
SPLINE
  5
167
100
AcDbEntity
  8
DT500
 62
5
100
AcDbSpline
 70
0
 71
3
 72
25
 73
21
 74
19
 40
0.000000
 40
0.000000
 40
0.000000
 40
0.000000
 40
1.118081
 40
2.220161
 40
3.338242
 40
4.456323
 40
5.558402
 40
6.676483
 40
7.794564
 40
8.896644
 40
10.014725
 40
11.132806
 40
12.234885
 40
13.352966
 40
14.471047
 40
15.573127
 40
16.691208
 40
17.809289
 40
18.911368
 40
20.029450
 40
20.029450
 40
20.029450
 40
20.029450
 10
1350.303937
 20
918.518024
 30
0.0
 10
1350.265656
 20
918.892618
 30
0.0
 10
1350.189641
 20
919.636446
 30
0.0
 10
1349.599891
 20
920.619427
 30
0.0
 10
1348.736398
 20
921.350246
 30
0.0
 10
1347.667124
 20
921.737849
 30
0.0
 10
1346.532504
 20
921.737849
 30
0.0
 10
1345.464728
 20
921.350246
 30
0.0
 10
1344.595255
 20
920.619427
 30
0.0
 10
1344.027723
 20
919.636446
 30
0.0
 10
1343.829569
 20
918.518024
 30
0.0
 10
1344.027723
 20
917.399602
 30
0.0
 10
1344.595255
 20
916.416621
 30
0.0
 10
1345.464728
 20
915.685802
 30
0.0
 10
1346.532504
 20
915.298199
 30
0.0
 10
1347.667124
 20
915.298199
 30
0.0
 10
1348.736398
 20
915.685802
 30
0.0
 10
1349.599891
 20
916.416621
 30
0.0
 10
1350.189641
 20
917.399602
 30
0.0
 10
1350.265656
 20
918.143430
 30
0.0
 10
1350.303937
 20
918.518024
 30
0.0
 11
1350.303937
 21
918.518024
 31
0.0
 11
1350.108897
 21
919.618962
 31
0.0
 11
1349.557857
 21
920.573391
 31
0.0
 11
1348.701937
 21
921.292769
 31
0.0
 11
1347.650977
 21
921.674329
 31
0.0
 11
1346.548897
 21
921.674329
 31
0.0
 11
1345.497937
 21
921.292769
 31
0.0
 11
1344.642016
 21
920.573391
 31
0.0
 11
1344.090977
 21
919.618962
 31
0.0
 11
1343.895937
 21
918.518024
 31
0.0
 11
1344.090977
 21
917.417086
 31
0.0
 11
1344.642016
 21
916.462657
 31
0.0
 11
1345.497937
 21
915.743279
 31
0.0
 11
1346.548897
 21
915.361719
 31
0.0
 11
1347.650977
 21
915.361719
 31
0.0
 11
1348.701937
 21
915.743279
 31
0.0
 11
1349.557857
 21
916.462657
 31
0.0
 11
1350.108897
 21
917.417086
 31
0.0
 11
1350.303937
 21
918.518024
 31
0.0
  0
SPLINE
  5
168
100
AcDbEntity
  8
DT500
 62
5
100
AcDbSpline
 70
0
 71
3
 72
16
 73
12
 74
10
 40
0.000000
 40
0.000000
 40
0.000000
 40
0.000000
 40
6.281354
 40
12.472812
 40
18.754166
 40
25.035520
 40
31.226978
 40
37.508332
 40
43.789686
 40
49.981145
 40
56.262499
 40
56.262499
 40
56.262499
 40
56.262499
 10
639.405697
 20
1098.702184
 30
0.0
 10
637.301233
 20
1098.487124
 30
0.0
 10
633.122425
 20
1098.060081
 30
0.0
 10
627.600064
 20
1094.746836
 30
0.0
 10
623.494335
 20
1089.895924
 30
0.0
 10
621.316792
 20
1083.888118
 30
0.0
 10
621.316792
 20
1077.516250
 30
0.0
 10
623.494335
 20
1071.508444
 30
0.0
 10
627.600064
 20
1066.657532
 30
0.0
 10
633.122425
 20
1063.344287
 30
0.0
 10
637.301233
 20
1062.917244
 30
0.0
 10
639.405697
 20
1062.702184
 30
0.0
 11
639.405697
 21
1098.702184
 31
0.0
 11
633.220651
 21
1097.606455
 31
0.0
 11
627.858691
 21
1094.510726
 31
0.0
 11
623.817240
 21
1089.702184
 31
0.0
 11
621.673646
 21
1083.797913
 31
0.0
 11
621.673646
 21
1077.606455
 31
0.0
 11
623.817240
 21
1071.702184
 31
0.0
 11
627.858691
 21
1066.893642
 31
0.0
 11
633.220651
 21
1063.797913
 31
0.0
 11
639.405697
 21
1062.702184
 31
0.0
  0
SPLINE
  5
169
100
AcDbEntity
  8
DT500
 62
5
100
AcDbSpline
 70
0
 71
3
 72
16
 73
12
 74
10
 40
0.000000
 40
0.000000
 40
0.000000
 40
0.000000
 40
6.281354
 40
12.472812
 40
18.754166
 40
25.035520
 40
31.226978
 40
37.508332
 40
43.789686
 40
49.981145
 40
56.262499
 40
56.262499
 40
56.262499
 40
56.262499
 10
963.405697
 20
1062.702184
 30
0.0
 10
965.510160
 20
1062.917244
 30
0.0
 10
969.688969
 20
1063.344287
 30
0.0
 10
975.211329
 20
1066.657532
 30
0.0
 10
979.317059
 20
1071.508444
 30
0.0
 10
981.494601
 20
1077.516250
 30
0.0
 10
981.494601
 20
1083.888118
 30
0.0
 10
979.317059
 20
1089.895924
 30
0.0
 10
975.211329
 20
1094.746836
 30
0.0
 10
969.688969
 20
1098.060081
 30
0.0
 10
965.510160
 20
1098.487124
 30
0.0
 10
963.405697
 20
1098.702184
 30
0.0
 11
963.405697
 21
1062.702184
 31
0.0
 11
969.590742
 21
1063.797913
 31
0.0
 11
974.952702
 21
1066.893642
 31
0.0
 11
978.994154
 21
1071.702184
 31
0.0
 11
981.137748
 21
1077.606455
 31
0.0
 11
981.137748
 21
1083.797913
 31
0.0
 11
978.994154
 21
1089.702184
 31
0.0
 11
974.952702
 21
1094.510726
 31
0.0
 11
969.590742
 21
1097.606455
 31
0.0
 11
963.405697
 21
1098.702184
 31
0.0
  0
LWPOLYLINE
  5
16a
100
AcDbEntity
  8
DT500
 62
5
100
AcDbPolyline
 90
2
 70
1
 10
1350.303937
 20
918.518024
 30
0.0
 10
1350.303937
 20
918.518024
 30
0.0
  0
SPLINE
  5
16b
100
AcDbEntity
  8
DT500
 62
5
100
AcDbSpline
 70
0
 71
3
 72
25
 73
21
 74
19
 40
0.000000
 40
0.000000
 40
0.000000
 40
0.000000
 40
1.444711
 40
2.868747
 40
4.313458
 40
5.758170
 40
7.182205
 40
8.626917
 40
10.071628
 40
11.495664
 40
12.940375
 40
14.385087
 40
15.809122
 40
17.253833
 40
18.698545
 40
20.122580
 40
21.567292
 40
23.012003
 40
24.436038
 40
25.880750
 40
25.880750
 40
25.880750
 40
25.880750
 10
191.970577
 20
743.763384
 30
0.0
 10
191.921112
 20
744.247411
 30
0.0
 10
191.822891
 20
745.208537
 30
0.0
 10
191.060855
 20
746.478680
 30
0.0
 10
189.945105
 20
747.422998
 30
0.0
 10
188.563459
 20
747.923832
 30
0.0
 10
187.097377
 20
747.923832
 30
0.0
 10
185.717666
 20
747.422998
 30
0.0
 10
184.594190
 20
746.478680
 30
0.0
 10
183.860862
 20
745.208537
 30
0.0
 10
183.604821
 20
743.763384
 30
0.0
 10
183.860862
 20
742.318231
 30
0.0
 10
184.594190
 20
741.048089
 30
0.0
 10
185.717666
 20
740.103771
 30
0.0
 10
187.097377
 20
739.602936
 30
0.0
 10
188.563459
 20
739.602936
 30
0.0
 10
189.945105
 20
740.103771
 30
0.0
 10
191.060855
 20
741.048089
 30
0.0
 10
191.822891
 20
742.318231
 30
0.0
 10
191.921112
 20
743.279357
 30
0.0
 10
191.970577
 20
743.763384
 30
0.0
 11
191.970577
 21
743.763384
 31
0.0
 11
191.718559
 21
745.185945
 31
0.0
 11
191.006542
 21
746.419195
 31
0.0
 11
189.900577
 21
747.348729
 31
0.0
 11
188.542595
 21
747.841756
 31
0.0
 11
187.118559
 21
747.841756
 31
0.0
 11
185.760577
 21
747.348729
 31
0.0
 11
184.654612
 21
746.419195
 31
0.0
 11
183.942594
 21
745.185945
 31
0.0
 11
183.690577
 21
743.763384
 31
0.0
 11
183.942594
 21
742.340824
 31
0.0
 11
184.654612
 21
741.107573
 31
0.0
 11
185.760577
 21
740.178039
 31
0.0
 11
187.118559
 21
739.685012
 31
0.0
 11
188.542594
 21
739.685012
 31
0.0
 11
189.900577
 21
740.178039
 31
0.0
 11
191.006541
 21
741.107573
 31
0.0
 11
191.718559
 21
742.340824
 31
0.0
 11
191.970577
 21
743.763384
 31
0.0
  0
LWPOLYLINE
  5
16c
100
AcDbEntity
  8
DT500
 62
5
100
AcDbPolyline
 90
2
 70
1
 10
191.970577
 20
743.763384
 30
0.0
 10
191.970577
 20
743.763384
 30
0.0
  0
SPLINE
  5
16d
100
AcDbEntity
  8
DT500
 62
5
100
AcDbSpline
 70
0
 71
3
 72
25
 73
21
 74
19
 40
0.000000
 40
0.000000
 40
0.000000
 40
0.000000
 40
1.118081
 40
2.220161
 40
3.338242
 40
4.456323
 40
5.558402
 40
6.676483
 40
7.794564
 40
8.896644
 40
10.014725
 40
11.132806
 40
12.234885
 40
13.352966
 40
14.471047
 40
15.573127
 40
16.691208
 40
17.809289
 40
18.911368
 40
20.029450
 40
20.029450
 40
20.029450
 40
20.029450
 10
251.233761
 20
999.302184
 30
0.0
 10
251.195480
 20
999.676778
 30
0.0
 10
251.119465
 20
1000.420606
 30
0.0
 10
250.529715
 20
1001.403587
 30
0.0
 10
249.666222
 20
1002.134406
 30
0.0
 10
248.596948
 20
1002.522009
 30
0.0
 10
247.462328
 20
1002.522009
 30
0.0
 10
246.394552
 20
1002.134406
 30
0.0
 10
245.525079
 20
1001.403587
 30
0.0
 10
244.957547
 20
1000.420606
 30
0.0
 10
244.759393
 20
999.302184
 30
0.0
 10
244.957547
 20
998.183762
 30
0.0
 10
245.525079
 20
997.200781
 30
0.0
 10
246.394552
 20
996.469962
 30
0.0
 10
247.462328
 20
996.082359
 30
0.0
 10
248.596948
 20
996.082359
 30
0.0
 10
249.666222
 20
996.469962
 30
0.0
 10
250.529715
 20
997.200781
 30
0.0
 10
251.119465
 20
998.183762
 30
0.0
 10
251.195480
 20
998.927590
 30
0.0
 10
251.233761
 20
999.302184
 30
0.0
 11
251.233761
 21
999.302184
 31
0.0
 11
251.038721
 21
1000.403122
 31
0.0
 11
250.487681
 21
1001.357551
 31
0.0
 11
249.631761
 21
1002.076929
 31
0.0
 11
248.580801
 21
1002.458489
 31
0.0
 11
247.478721
 21
1002.458489
 31
0.0
 11
246.427761
 21
1002.076929
 31
0.0
 11
245.571840
 21
1001.357551
 31
0.0
 11
245.020801
 21
1000.403122
 31
0.0
 11
244.825761
 21
999.302184
 31
0.0
 11
245.020801
 21
998.201246
 31
0.0
 11
245.571840
 21
997.246817
 31
0.0
 11
246.427761
 21
996.527439
 31
0.0
 11
247.478721
 21
996.145879
 31
0.0
 11
248.580801
 21
996.145879
 31
0.0
 11
249.631761
 21
996.527439
 31
0.0
 11
250.487681
 21
997.246817
 31
0.0
 11
251.038721
 21
998.201246
 31
0.0
 11
251.233761
 21
999.302184
 31
0.0
  0
LWPOLYLINE
  5
16e
100
AcDbEntity
  8
DT500
 62
5
100
AcDbPolyline
 90
2
 70
1
 10
251.233761
 20
999.302184
 30
0.0
 10
251.233761
 20
999.302184
 30
0.0
  0
SPLINE
  5
16f
100
AcDbEntity
  8
DT500
 62
5
100
AcDbSpline
 70
0
 71
3
 72
25
 73
21
 74
19
 40
0.000000
 40
0.000000
 40
0.000000
 40
0.000000
 40
1.118081
 40
2.220161
 40
3.338242
 40
4.456323
 40
5.558402
 40
6.676483
 40
7.794564
 40
8.896644
 40
10.014725
 40
11.132806
 40
12.234886
 40
13.352967
 40
14.471048
 40
15.573127
 40
16.691208
 40
17.809289
 40
18.911369
 40
20.029450
 40
20.029450
 40
20.029450
 40
20.029450
 10
93.622477
 20
810.302184
 30
0.0
 10
93.584196
 20
810.676779
 30
0.0
 10
93.508181
 20
811.420606
 30
0.0
 10
92.918431
 20
812.403587
 30
0.0
 10
92.054938
 20
813.134407
 30
0.0
 10
90.985664
 20
813.522009
 30
0.0
 10
89.851044
 20
813.522009
 30
0.0
 10
88.783268
 20
813.134407
 30
0.0
 10
87.913795
 20
812.403587
 30
0.0
 10
87.346263
 20
811.420606
 30
0.0
 10
87.148109
 20
810.302184
 30
0.0
 10
87.346263
 20
809.183762
 30
0.0
 10
87.913795
 20
808.200781
 30
0.0
 10
88.783268
 20
807.469961
 30
0.0
 10
89.851044
 20
807.082359
 30
0.0
 10
90.985664
 20
807.082359
 30
0.0
 10
92.054938
 20
807.469961
 30
0.0
 10
92.918431
 20
808.200781
 30
0.0
 10
93.508181
 20
809.183762
 30
0.0
 10
93.584196
 20
809.927589
 30
0.0
 10
93.622477
 20
810.302184
 30
0.0
 11
93.622477
 21
810.302184
 31
0.0
 11
93.427437
 21
811.403122
 31
0.0
 11
92.876397
 21
812.357551
 31
0.0
 11
92.020477
 21
813.076929
 31
0.0
 11
90.969517
 21
813.458489
 31
0.0
 11
89.867437
 21
813.458489
 31
0.0
 11
88.816477
 21
813.076929
 31
0.0
 11
87.960556
 21
812.357551
 31
0.0
 11
87.409517
 21
811.403122
 31
0.0
 11
87.214477
 21
810.302184
 31
0.0
 11
87.409517
 21
809.201246
 31
0.0
 11
87.960556
 21
808.246817
 31
0.0
 11
88.816477
 21
807.527439
 31
0.0
 11
89.867437
 21
807.145879
 31
0.0
 11
90.969517
 21
807.145879
 31
0.0
 11
92.020477
 21
807.527439
 31
0.0
 11
92.876397
 21
808.246817
 31
0.0
 11
93.427437
 21
809.201246
 31
0.0
 11
93.622477
 21
810.302184
 31
0.0
  0
LWPOLYLINE
  5
170
100
AcDbEntity
  8
DT500
 62
5
100
AcDbPolyline
 90
2
 70
1
 10
93.622477
 20
810.302184
 30
0.0
 10
93.622477
 20
810.302184
 30
0.0
  0
SPLINE
  5
171
100
AcDbEntity
  8
DT500
 62
5
100
AcDbSpline
 70
0
 71
3
 72
25
 73
21
 74
19
 40
0.000000
 40
0.000000
 40
0.000000
 40
0.000000
 40
1.570339
 40
3.118203
 40
4.688542
 40
6.258880
 40
7.806745
 40
9.377083
 40
10.947422
 40
12.495286
 40
14.065625
 40
15.635963
 40
17.183828
 40
18.754166
 40
20.324505
 40
21.872369
 40
23.442708
 40
25.013046
 40
26.560911
 40
28.131249
 40
28.131249
 40
28.131249
 40
28.131249
 10
304.174337
 20
1034.501784
 30
0.0
 10
304.120571
 20
1035.027900
 30
0.0
 10
304.013809
 20
1036.072602
 30
0.0
 10
303.185509
 20
1037.453192
 30
0.0
 10
301.972737
 20
1038.479625
 30
0.0
 10
300.470948
 20
1039.024010
 30
0.0
 10
298.877381
 20
1039.024010
 30
0.0
 10
297.377695
 20
1038.479625
 30
0.0
 10
296.156525
 20
1037.453192
 30
0.0
 10
295.359429
 20
1036.072602
 30
0.0
 10
295.081123
 20
1034.501784
 30
0.0
 10
295.359429
 20
1032.930966
 30
0.0
 10
296.156525
 20
1031.550376
 30
0.0
 10
297.377695
 20
1030.523943
 30
0.0
 10
298.877381
 20
1029.979558
 30
0.0
 10
300.470948
 20
1029.979558
 30
0.0
 10
301.972737
 20
1030.523943
 30
0.0
 10
303.185509
 20
1031.550376
 30
0.0
 10
304.013809
 20
1032.930966
 30
0.0
 10
304.120571
 20
1033.975668
 30
0.0
 10
304.174337
 20
1034.501784
 30
0.0
 11
304.174337
 21
1034.501784
 31
0.0
 11
303.900405
 21
1036.048045
 31
0.0
 11
303.126472
 21
1037.388535
 31
0.0
 11
301.924337
 21
1038.398898
 31
0.0
 11
300.448269
 21
1038.934797
 31
0.0
 11
298.900405
 21
1038.934797
 31
0.0
 11
297.424337
 21
1038.398898
 31
0.0
 11
296.222201
 21
1037.388535
 31
0.0
 11
295.448269
 21
1036.048045
 31
0.0
 11
295.174337
 21
1034.501784
 31
0.0
 11
295.448269
 21
1032.955523
 31
0.0
 11
296.222201
 21
1031.615033
 31
0.0
 11
297.424337
 21
1030.604670
 31
0.0
 11
298.900405
 21
1030.068771
 31
0.0
 11
300.448269
 21
1030.068771
 31
0.0
 11
301.924337
 21
1030.604670
 31
0.0
 11
303.126472
 21
1031.615033
 31
0.0
 11
303.900405
 21
1032.955523
 31
0.0
 11
304.174337
 21
1034.501784
 31
0.0
  0
LWPOLYLINE
  5
172
100
AcDbEntity
  8
DT500
 62
5
100
AcDbPolyline
 90
2
 70
1
 10
304.174337
 20
1034.501784
 30
0.0
 10
304.174337
 20
1034.501784
 30
0.0
  0
SPLINE
  5
173
100
AcDbEntity
  8
DT500
 62
5
100
AcDbSpline
 70
0
 71
3
 72
25
 73
21
 74
19
 40
0.000000
 40
0.000000
 40
0.000000
 40
0.000000
 40
1.118081
 40
2.220161
 40
3.338242
 40
4.456323
 40
5.558402
 40
6.676483
 40
7.794564
 40
8.896644
 40
10.014725
 40
11.132806
 40
12.234885
 40
13.352966
 40
14.471047
 40
15.573127
 40
16.691208
 40
17.809289
 40
18.911368
 40
20.029450
 40
20.029450
 40
20.029450
 40
20.029450
 10
183.622473
 20
1134.302184
 30
0.0
 10
183.584192
 20
1134.676778
 30
0.0
 10
183.508177
 20
1135.420606
 30
0.0
 10
182.918427
 20
1136.403587
 30
0.0
 10
182.054934
 20
1137.134406
 30
0.0
 10
180.985660
 20
1137.522009
 30
0.0
 10
179.851040
 20
1137.522009
 30
0.0
 10
178.783264
 20
1137.134406
 30
0.0
 10
177.913791
 20
1136.403587
 30
0.0
 10
177.346259
 20
1135.420606
 30
0.0
 10
177.148105
 20
1134.302184
 30
0.0
 10
177.346259
 20
1133.183762
 30
0.0
 10
177.913791
 20
1132.200781
 30
0.0
 10
178.783264
 20
1131.469962
 30
0.0
 10
179.851040
 20
1131.082359
 30
0.0
 10
180.985660
 20
1131.082359
 30
0.0
 10
182.054934
 20
1131.469962
 30
0.0
 10
182.918427
 20
1132.200781
 30
0.0
 10
183.508177
 20
1133.183762
 30
0.0
 10
183.584192
 20
1133.927590
 30
0.0
 10
183.622473
 20
1134.302184
 30
0.0
 11
183.622473
 21
1134.302184
 31
0.0
 11
183.427433
 21
1135.403122
 31
0.0
 11
182.876393
 21
1136.357551
 31
0.0
 11
182.020473
 21
1137.076929
 31
0.0
 11
180.969513
 21
1137.458489
 31
0.0
 11
179.867433
 21
1137.458489
 31
0.0
 11
178.816473
 21
1137.076929
 31
0.0
 11
177.960552
 21
1136.357551
 31
0.0
 11
177.409513
 21
1135.403122
 31
0.0
 11
177.214473
 21
1134.302184
 31
0.0
 11
177.409513
 21
1133.201246
 31
0.0
 11
177.960552
 21
1132.246817
 31
0.0
 11
178.816473
 21
1131.527439
 31
0.0
 11
179.867433
 21
1131.145879
 31
0.0
 11
180.969513
 21
1131.145879
 31
0.0
 11
182.020473
 21
1131.527439
 31
0.0
 11
182.876393
 21
1132.246817
 31
0.0
 11
183.427433
 21
1133.201246
 31
0.0
 11
183.622473
 21
1134.302184
 31
0.0
  0
LWPOLYLINE
  5
174
100
AcDbEntity
  8
DT500
 62
5
100
AcDbPolyline
 90
2
 70
1
 10
183.622473
 20
1134.302184
 30
0.0
 10
183.622473
 20
1134.302184
 30
0.0
  0
SPLINE
  5
175
100
AcDbEntity
  8
DT500
 62
5
100
AcDbSpline
 70
0
 71
3
 72
25
 73
21
 74
19
 40
0.000000
 40
0.000000
 40
0.000000
 40
0.000000
 40
1.118082
 40
2.220163
 40
3.338246
 40
4.456328
 40
5.558409
 40
6.676492
 40
7.794574
 40
8.896655
 40
10.014737
 40
11.132820
 40
12.234901
 40
13.352983
 40
14.471065
 40
15.573146
 40
16.691229
 40
17.809311
 40
18.911392
 40
20.029475
 40
20.029475
 40
20.029475
 40
20.029475
 10
399.622481
 20
1134.302184
 30
0.0
 10
399.584199
 20
1134.676779
 30
0.0
 10
399.508185
 20
1135.420608
 30
0.0
 10
398.918434
 20
1136.403589
 30
0.0
 10
398.054940
 20
1137.134410
 30
0.0
 10
396.985665
 20
1137.522013
 30
0.0
 10
395.851043
 20
1137.522013
 30
0.0
 10
394.783266
 20
1137.134410
 30
0.0
 10
393.913792
 20
1136.403589
 30
0.0
 10
393.346259
 20
1135.420608
 30
0.0
 10
393.148105
 20
1134.302184
 30
0.0
 10
393.346259
 20
1133.183760
 30
0.0
 10
393.913792
 20
1132.200779
 30
0.0
 10
394.783266
 20
1131.469958
 30
0.0
 10
395.851043
 20
1131.082355
 30
0.0
 10
396.985665
 20
1131.082355
 30
0.0
 10
398.054940
 20
1131.469958
 30
0.0
 10
398.918434
 20
1132.200779
 30
0.0
 10
399.508185
 20
1133.183760
 30
0.0
 10
399.584199
 20
1133.927589
 30
0.0
 10
399.622481
 20
1134.302184
 30
0.0
 11
399.622481
 21
1134.302184
 31
0.0
 11
399.427441
 21
1135.403123
 31
0.0
 11
398.876400
 21
1136.357554
 31
0.0
 11
398.020479
 21
1137.076933
 31
0.0
 11
396.969517
 21
1137.458493
 31
0.0
 11
395.867436
 21
1137.458493
 31
0.0
 11
394.816475
 21
1137.076933
 31
0.0
 11
393.960553
 21
1136.357554
 31
0.0
 11
393.409513
 21
1135.403123
 31
0.0
 11
393.214473
 21
1134.302184
 31
0.0
 11
393.409513
 21
1133.201245
 31
0.0
 11
393.960553
 21
1132.246814
 31
0.0
 11
394.816475
 21
1131.527435
 31
0.0
 11
395.867436
 21
1131.145875
 31
0.0
 11
396.969517
 21
1131.145875
 31
0.0
 11
398.020479
 21
1131.527435
 31
0.0
 11
398.876400
 21
1132.246814
 31
0.0
 11
399.427441
 21
1133.201245
 31
0.0
 11
399.622481
 21
1134.302184
 31
0.0
  0
LWPOLYLINE
  5
176
100
AcDbEntity
  8
DT500
 62
5
100
AcDbPolyline
 90
2
 70
1
 10
399.622481
 20
1134.302184
 30
0.0
 10
399.622481
 20
1134.302184
 30
0.0
  0
SPLINE
  5
177
100
AcDbEntity
  8
DT500
 62
5
100
AcDbSpline
 70
0
 71
3
 72
25
 73
21
 74
19
 40
0.000000
 40
0.000000
 40
0.000000
 40
0.000000
 40
1.118081
 40
2.220161
 40
3.338242
 40
4.456323
 40
5.558402
 40
6.676483
 40
7.794564
 40
8.896644
 40
10.014725
 40
11.132806
 40
12.234885
 40
13.352966
 40
14.471047
 40
15.573127
 40
16.691208
 40
17.809289
 40
18.911368
 40
20.029450
 40
20.029450
 40
20.029450
 40
20.029450
 10
251.233761
 20
1071.302184
 30
0.0
 10
251.195480
 20
1071.676778
 30
0.0
 10
251.119465
 20
1072.420606
 30
0.0
 10
250.529715
 20
1073.403587
 30
0.0
 10
249.666222
 20
1074.134406
 30
0.0
 10
248.596948
 20
1074.522009
 30
0.0
 10
247.462328
 20
1074.522009
 30
0.0
 10
246.394552
 20
1074.134406
 30
0.0
 10
245.525079
 20
1073.403587
 30
0.0
 10
244.957547
 20
1072.420606
 30
0.0
 10
244.759393
 20
1071.302184
 30
0.0
 10
244.957547
 20
1070.183762
 30
0.0
 10
245.525079
 20
1069.200781
 30
0.0
 10
246.394552
 20
1068.469962
 30
0.0
 10
247.462328
 20
1068.082359
 30
0.0
 10
248.596948
 20
1068.082359
 30
0.0
 10
249.666222
 20
1068.469962
 30
0.0
 10
250.529715
 20
1069.200781
 30
0.0
 10
251.119465
 20
1070.183762
 30
0.0
 10
251.195480
 20
1070.927590
 30
0.0
 10
251.233761
 20
1071.302184
 30
0.0
 11
251.233761
 21
1071.302184
 31
0.0
 11
251.038721
 21
1072.403122
 31
0.0
 11
250.487681
 21
1073.357551
 31
0.0
 11
249.631761
 21
1074.076929
 31
0.0
 11
248.580801
 21
1074.458489
 31
0.0
 11
247.478721
 21
1074.458489
 31
0.0
 11
246.427761
 21
1074.076929
 31
0.0
 11
245.571840
 21
1073.357551
 31
0.0
 11
245.020801
 21
1072.403122
 31
0.0
 11
244.825761
 21
1071.302184
 31
0.0
 11
245.020801
 21
1070.201246
 31
0.0
 11
245.571840
 21
1069.246817
 31
0.0
 11
246.427761
 21
1068.527439
 31
0.0
 11
247.478721
 21
1068.145879
 31
0.0
 11
248.580801
 21
1068.145879
 31
0.0
 11
249.631761
 21
1068.527439
 31
0.0
 11
250.487681
 21
1069.246817
 31
0.0
 11
251.038721
 21
1070.201246
 31
0.0
 11
251.233761
 21
1071.302184
 31
0.0
  0
LWPOLYLINE
  5
178
100
AcDbEntity
  8
DT500
 62
5
100
AcDbPolyline
 90
2
 70
1
 10
251.233761
 20
1071.302184
 30
0.0
 10
251.233761
 20
1071.302184
 30
0.0
  0
SPLINE
  5
179
100
AcDbEntity
  8
DT500
 62
5
100
AcDbSpline
 70
0
 71
3
 72
25
 73
21
 74
19
 40
0.000000
 40
0.000000
 40
0.000000
 40
0.000000
 40
1.118081
 40
2.220161
 40
3.338242
 40
4.456323
 40
5.558402
 40
6.676483
 40
7.794564
 40
8.896644
 40
10.014725
 40
11.132806
 40
12.234886
 40
13.352967
 40
14.471048
 40
15.573127
 40
16.691208
 40
17.809289
 40
18.911369
 40
20.029450
 40
20.029450
 40
20.029450
 40
20.029450
 10
93.622477
 20
1098.302184
 30
0.0
 10
93.584196
 20
1098.676779
 30
0.0
 10
93.508181
 20
1099.420606
 30
0.0
 10
92.918431
 20
1100.403587
 30
0.0
 10
92.054938
 20
1101.134407
 30
0.0
 10
90.985664
 20
1101.522009
 30
0.0
 10
89.851044
 20
1101.522009
 30
0.0
 10
88.783268
 20
1101.134407
 30
0.0
 10
87.913795
 20
1100.403587
 30
0.0
 10
87.346263
 20
1099.420606
 30
0.0
 10
87.148109
 20
1098.302184
 30
0.0
 10
87.346263
 20
1097.183762
 30
0.0
 10
87.913795
 20
1096.200781
 30
0.0
 10
88.783268
 20
1095.469961
 30
0.0
 10
89.851044
 20
1095.082359
 30
0.0
 10
90.985664
 20
1095.082359
 30
0.0
 10
92.054938
 20
1095.469961
 30
0.0
 10
92.918431
 20
1096.200781
 30
0.0
 10
93.508181
 20
1097.183762
 30
0.0
 10
93.584196
 20
1097.927589
 30
0.0
 10
93.622477
 20
1098.302184
 30
0.0
 11
93.622477
 21
1098.302184
 31
0.0
 11
93.427437
 21
1099.403122
 31
0.0
 11
92.876397
 21
1100.357551
 31
0.0
 11
92.020477
 21
1101.076929
 31
0.0
 11
90.969517
 21
1101.458489
 31
0.0
 11
89.867437
 21
1101.458489
 31
0.0
 11
88.816477
 21
1101.076929
 31
0.0
 11
87.960556
 21
1100.357551
 31
0.0
 11
87.409517
 21
1099.403122
 31
0.0
 11
87.214477
 21
1098.302184
 31
0.0
 11
87.409517
 21
1097.201246
 31
0.0
 11
87.960556
 21
1096.246817
 31
0.0
 11
88.816477
 21
1095.527439
 31
0.0
 11
89.867437
 21
1095.145879
 31
0.0
 11
90.969517
 21
1095.145879
 31
0.0
 11
92.020477
 21
1095.527439
 31
0.0
 11
92.876397
 21
1096.246817
 31
0.0
 11
93.427437
 21
1097.201246
 31
0.0
 11
93.622477
 21
1098.302184
 31
0.0
  0
LWPOLYLINE
  5
17a
100
AcDbEntity
  8
DT500
 62
5
100
AcDbPolyline
 90
2
 70
1
 10
93.622477
 20
1098.302184
 30
0.0
 10
93.622477
 20
1098.302184
 30
0.0
  0
SPLINE
  5
17b
100
AcDbEntity
  8
DT500
 62
5
100
AcDbSpline
 70
0
 71
3
 72
25
 73
21
 74
19
 40
0.000000
 40
0.000000
 40
0.000000
 40
0.000000
 40
1.118081
 40
2.220161
 40
3.338242
 40
4.456323
 40
5.558403
 40
6.676484
 40
7.794565
 40
8.896645
 40
10.014726
 40
11.132807
 40
12.234887
 40
13.352968
 40
14.471049
 40
15.573128
 40
16.691209
 40
17.809290
 40
18.911370
 40
20.029451
 40
20.029451
 40
20.029451
 40
20.029451
 10
1425.622497
 20
1134.302184
 30
0.0
 10
1425.584216
 20
1134.676779
 30
0.0
 10
1425.508201
 20
1135.420607
 30
0.0
 10
1424.918452
 20
1136.403587
 30
0.0
 10
1424.054958
 20
1137.134407
 30
0.0
 10
1422.985684
 20
1137.522010
 30
0.0
 10
1421.851064
 20
1137.522010
 30
0.0
 10
1420.783288
 20
1137.134407
 30
0.0
 10
1419.913815
 20
1136.403587
 30
0.0
 10
1419.346282
 20
1135.420607
 30
0.0
 10
1419.148129
 20
1134.302184
 30
0.0
 10
1419.346283
 20
1133.183762
 30
0.0
 10
1419.913815
 20
1132.200781
 30
0.0
 10
1420.783288
 20
1131.469962
 30
0.0
 10
1421.851064
 20
1131.082359
 30
0.0
 10
1422.985684
 20
1131.082359
 30
0.0
 10
1424.054958
 20
1131.469962
 30
0.0
 10
1424.918451
 20
1132.200781
 30
0.0
 10
1425.508201
 20
1133.183762
 30
0.0
 10
1425.584216
 20
1133.927590
 30
0.0
 10
1425.622497
 20
1134.302184
 30
0.0
 11
1425.622497
 21
1134.302184
 31
0.0
 11
1425.427457
 21
1135.403122
 31
0.0
 11
1424.876418
 21
1136.357551
 31
0.0
 11
1424.020497
 21
1137.076930
 31
0.0
 11
1422.969537
 21
1137.458490
 31
0.0
 11
1421.867457
 21
1137.458490
 31
0.0
 11
1420.816497
 21
1137.076930
 31
0.0
 11
1419.960576
 21
1136.357551
 31
0.0
 11
1419.409536
 21
1135.403122
 31
0.0
 11
1419.214497
 21
1134.302184
 31
0.0
 11
1419.409537
 21
1133.201246
 31
0.0
 11
1419.960576
 21
1132.246817
 31
0.0
 11
1420.816497
 21
1131.527439
 31
0.0
 11
1421.867457
 21
1131.145879
 31
0.0
 11
1422.969537
 21
1131.145879
 31
0.0
 11
1424.020497
 21
1131.527439
 31
0.0
 11
1424.876417
 21
1132.246817
 31
0.0
 11
1425.427457
 21
1133.201246
 31
0.0
 11
1425.622497
 21
1134.302184
 31
0.0
  0
LWPOLYLINE
  5
17c
100
AcDbEntity
  8
DT500
 62
5
100
AcDbPolyline
 90
2
 70
1
 10
1425.622497
 20
1134.302184
 30
0.0
 10
1425.622497
 20
1134.302184
 30
0.0
  0
SPLINE
  5
17d
100
AcDbEntity
  8
DT500
 62
5
100
AcDbSpline
 70
0
 71
3
 72
25
 73
21
 74
19
 40
0.000000
 40
0.000000
 40
0.000000
 40
0.000000
 40
1.118081
 40
2.220161
 40
3.338242
 40
4.456323
 40
5.558402
 40
6.676483
 40
7.794564
 40
8.896644
 40
10.014725
 40
11.132806
 40
12.234885
 40
13.352966
 40
14.471047
 40
15.573127
 40
16.691208
 40
17.809289
 40
18.911368
 40
20.029450
 40
20.029450
 40
20.029450
 40
20.029450
 10
1209.622497
 20
1134.302184
 30
0.0
 10
1209.584216
 20
1134.676778
 30
0.0
 10
1209.508201
 20
1135.420606
 30
0.0
 10
1208.918451
 20
1136.403587
 30
0.0
 10
1208.054958
 20
1137.134406
 30
0.0
 10
1206.985684
 20
1137.522009
 30
0.0
 10
1205.851064
 20
1137.522009
 30
0.0
 10
1204.783288
 20
1137.134406
 30
0.0
 10
1203.913815
 20
1136.403587
 30
0.0
 10
1203.346283
 20
1135.420606
 30
0.0
 10
1203.148129
 20
1134.302184
 30
0.0
 10
1203.346283
 20
1133.183762
 30
0.0
 10
1203.913815
 20
1132.200781
 30
0.0
 10
1204.783288
 20
1131.469962
 30
0.0
 10
1205.851064
 20
1131.082359
 30
0.0
 10
1206.985684
 20
1131.082359
 30
0.0
 10
1208.054958
 20
1131.469962
 30
0.0
 10
1208.918451
 20
1132.200781
 30
0.0
 10
1209.508201
 20
1133.183762
 30
0.0
 10
1209.584216
 20
1133.927590
 30
0.0
 10
1209.622497
 20
1134.302184
 30
0.0
 11
1209.622497
 21
1134.302184
 31
0.0
 11
1209.427457
 21
1135.403122
 31
0.0
 11
1208.876417
 21
1136.357551
 31
0.0
 11
1208.020497
 21
1137.076929
 31
0.0
 11
1206.969537
 21
1137.458489
 31
0.0
 11
1205.867457
 21
1137.458489
 31
0.0
 11
1204.816497
 21
1137.076929
 31
0.0
 11
1203.960576
 21
1136.357551
 31
0.0
 11
1203.409537
 21
1135.403122
 31
0.0
 11
1203.214497
 21
1134.302184
 31
0.0
 11
1203.409537
 21
1133.201246
 31
0.0
 11
1203.960576
 21
1132.246817
 31
0.0
 11
1204.816497
 21
1131.527439
 31
0.0
 11
1205.867457
 21
1131.145879
 31
0.0
 11
1206.969537
 21
1131.145879
 31
0.0
 11
1208.020497
 21
1131.527439
 31
0.0
 11
1208.876417
 21
1132.246817
 31
0.0
 11
1209.427457
 21
1133.201246
 31
0.0
 11
1209.622497
 21
1134.302184
 31
0.0
  0
LWPOLYLINE
  5
17e
100
AcDbEntity
  8
DT500
 62
5
100
AcDbPolyline
 90
2
 70
1
 10
1209.622497
 20
1134.302184
 30
0.0
 10
1209.622497
 20
1134.302184
 30
0.0
  0
SPLINE
  5
17f
100
AcDbEntity
  8
DT500
 62
5
100
AcDbSpline
 70
0
 71
3
 72
25
 73
21
 74
19
 40
0.000000
 40
0.000000
 40
0.000000
 40
0.000000
 40
1.118081
 40
2.220161
 40
3.338242
 40
4.456323
 40
5.558402
 40
6.676483
 40
7.794564
 40
8.896644
 40
10.014725
 40
11.132806
 40
12.234885
 40
13.352966
 40
14.471047
 40
15.573127
 40
16.691208
 40
17.809289
 40
18.911368
 40
20.029450
 40
20.029450
 40
20.029450
 40
20.029450
 10
1358.011217
 20
1071.302184
 30
0.0
 10
1357.972936
 20
1071.676778
 30
0.0
 10
1357.896921
 20
1072.420606
 30
0.0
 10
1357.307171
 20
1073.403587
 30
0.0
 10
1356.443678
 20
1074.134406
 30
0.0
 10
1355.374404
 20
1074.522009
 30
0.0
 10
1354.239784
 20
1074.522009
 30
0.0
 10
1353.172008
 20
1074.134406
 30
0.0
 10
1352.302535
 20
1073.403587
 30
0.0
 10
1351.735003
 20
1072.420606
 30
0.0
 10
1351.536849
 20
1071.302184
 30
0.0
 10
1351.735003
 20
1070.183762
 30
0.0
 10
1352.302535
 20
1069.200781
 30
0.0
 10
1353.172008
 20
1068.469962
 30
0.0
 10
1354.239784
 20
1068.082359
 30
0.0
 10
1355.374404
 20
1068.082359
 30
0.0
 10
1356.443678
 20
1068.469962
 30
0.0
 10
1357.307171
 20
1069.200781
 30
0.0
 10
1357.896921
 20
1070.183762
 30
0.0
 10
1357.972936
 20
1070.927590
 30
0.0
 10
1358.011217
 20
1071.302184
 30
0.0
 11
1358.011217
 21
1071.302184
 31
0.0
 11
1357.816177
 21
1072.403122
 31
0.0
 11
1357.265137
 21
1073.357551
 31
0.0
 11
1356.409217
 21
1074.076929
 31
0.0
 11
1355.358257
 21
1074.458489
 31
0.0
 11
1354.256177
 21
1074.458489
 31
0.0
 11
1353.205217
 21
1074.076929
 31
0.0
 11
1352.349296
 21
1073.357551
 31
0.0
 11
1351.798257
 21
1072.403122
 31
0.0
 11
1351.603217
 21
1071.302184
 31
0.0
 11
1351.798257
 21
1070.201246
 31
0.0
 11
1352.349296
 21
1069.246817
 31
0.0
 11
1353.205217
 21
1068.527439
 31
0.0
 11
1354.256177
 21
1068.145879
 31
0.0
 11
1355.358257
 21
1068.145879
 31
0.0
 11
1356.409217
 21
1068.527439
 31
0.0
 11
1357.265137
 21
1069.246817
 31
0.0
 11
1357.816177
 21
1070.201246
 31
0.0
 11
1358.011217
 21
1071.302184
 31
0.0
  0
LWPOLYLINE
  5
180
100
AcDbEntity
  8
DT500
 62
5
100
AcDbPolyline
 90
2
 70
1
 10
1358.011217
 20
1071.302184
 30
0.0
 10
1358.011217
 20
1071.302184
 30
0.0
  0
LWPOLYLINE
  5
181
100
AcDbEntity
  8
DT500
 62
5
100
AcDbPolyline
 90
2
 70
1
 10
1515.622497
 20
1098.302184
 30
0.0
 10
1515.622497
 20
1098.302184
 30
0.0
  0
SPLINE
  5
182
100
AcDbEntity
  8
DT500
 62
5
100
AcDbSpline
 70
0
 71
3
 72
25
 73
21
 74
19
 40
0.000000
 40
0.000000
 40
0.000000
 40
0.000000
 40
1.118081
 40
2.220161
 40
3.338242
 40
4.456323
 40
5.558402
 40
6.676483
 40
7.794564
 40
8.896644
 40
10.014725
 40
11.132806
 40
12.234885
 40
13.352966
 40
14.471047
 40
15.573127
 40
16.691208
 40
17.809289
 40
18.911368
 40
20.029450
 40
20.029450
 40
20.029450
 40
20.029450
 10
1515.622497
 20
1098.302184
 30
0.0
 10
1515.584216
 20
1098.676778
 30
0.0
 10
1515.508201
 20
1099.420606
 30
0.0
 10
1514.918451
 20
1100.403587
 30
0.0
 10
1514.054958
 20
1101.134406
 30
0.0
 10
1512.985684
 20
1101.522009
 30
0.0
 10
1511.851064
 20
1101.522009
 30
0.0
 10
1510.783288
 20
1101.134406
 30
0.0
 10
1509.913815
 20
1100.403587
 30
0.0
 10
1509.346283
 20
1099.420606
 30
0.0
 10
1509.148129
 20
1098.302184
 30
0.0
 10
1509.346283
 20
1097.183762
 30
0.0
 10
1509.913815
 20
1096.200781
 30
0.0
 10
1510.783288
 20
1095.469962
 30
0.0
 10
1511.851064
 20
1095.082359
 30
0.0
 10
1512.985684
 20
1095.082359
 30
0.0
 10
1514.054958
 20
1095.469962
 30
0.0
 10
1514.918451
 20
1096.200781
 30
0.0
 10
1515.508201
 20
1097.183762
 30
0.0
 10
1515.584216
 20
1097.927590
 30
0.0
 10
1515.622497
 20
1098.302184
 30
0.0
 11
1515.622497
 21
1098.302184
 31
0.0
 11
1515.427457
 21
1099.403122
 31
0.0
 11
1514.876417
 21
1100.357551
 31
0.0
 11
1514.020497
 21
1101.076929
 31
0.0
 11
1512.969537
 21
1101.458489
 31
0.0
 11
1511.867457
 21
1101.458489
 31
0.0
 11
1510.816497
 21
1101.076929
 31
0.0
 11
1509.960576
 21
1100.357551
 31
0.0
 11
1509.409537
 21
1099.403122
 31
0.0
 11
1509.214497
 21
1098.302184
 31
0.0
 11
1509.409537
 21
1097.201246
 31
0.0
 11
1509.960576
 21
1096.246817
 31
0.0
 11
1510.816497
 21
1095.527439
 31
0.0
 11
1511.867457
 21
1095.145879
 31
0.0
 11
1512.969537
 21
1095.145879
 31
0.0
 11
1514.020497
 21
1095.527439
 31
0.0
 11
1514.876417
 21
1096.246817
 31
0.0
 11
1515.427457
 21
1097.201246
 31
0.0
 11
1515.622497
 21
1098.302184
 31
0.0
  0
LWPOLYLINE
  5
183
100
AcDbEntity
  8
DT500
 62
5
100
AcDbPolyline
 90
2
 70
0
 10
1530.405697
 20
1152.702184
 30
0.0
 10
1530.405697
 20
248.152424
 30
0.0
  0
SPLINE
  5
184
100
AcDbEntity
  8
DT500
 62
5
100
AcDbSpline
 70
0
 71
3
 72
25
 73
21
 74
19
 40
0.000000
 40
0.000000
 40
0.000000
 40
0.000000
 40
1.570339
 40
3.118203
 40
4.688542
 40
6.258880
 40
7.806745
 40
9.377083
 40
10.947422
 40
12.495286
 40
14.065625
 40
15.635963
 40
17.183828
 40
18.754166
 40
20.324505
 40
21.872369
 40
23.442708
 40
25.013046
 40
26.560911
 40
28.131249
 40
28.131249
 40
28.131249
 40
28.131249
 10
353.899337
 20
289.937304
 30
0.0
 10
353.845571
 20
290.463420
 30
0.0
 10
353.738809
 20
291.508122
 30
0.0
 10
352.910509
 20
292.888712
 30
0.0
 10
351.697737
 20
293.915145
 30
0.0
 10
350.195948
 20
294.459530
 30
0.0
 10
348.602381
 20
294.459530
 30
0.0
 10
347.102695
 20
293.915145
 30
0.0
 10
345.881525
 20
292.888712
 30
0.0
 10
345.084429
 20
291.508122
 30
0.0
 10
344.806123
 20
289.937304
 30
0.0
 10
345.084429
 20
288.366486
 30
0.0
 10
345.881525
 20
286.985896
 30
0.0
 10
347.102695
 20
285.959463
 30
0.0
 10
348.602381
 20
285.415078
 30
0.0
 10
350.195948
 20
285.415078
 30
0.0
 10
351.697737
 20
285.959463
 30
0.0
 10
352.910509
 20
286.985896
 30
0.0
 10
353.738809
 20
288.366486
 30
0.0
 10
353.845571
 20
289.411188
 30
0.0
 10
353.899337
 20
289.937304
 30
0.0
 11
353.899337
 21
289.937304
 31
0.0
 11
353.625405
 21
291.483565
 31
0.0
 11
352.851472
 21
292.824055
 31
0.0
 11
351.649337
 21
293.834418
 31
0.0
 11
350.173269
 21
294.370317
 31
0.0
 11
348.625405
 21
294.370317
 31
0.0
 11
347.149337
 21
293.834418
 31
0.0
 11
345.947201
 21
292.824055
 31
0.0
 11
345.173269
 21
291.483565
 31
0.0
 11
344.899337
 21
289.937304
 31
0.0
 11
345.173269
 21
288.391043
 31
0.0
 11
345.947201
 21
287.050553
 31
0.0
 11
347.149337
 21
286.040190
 31
0.0
 11
348.625405
 21
285.504291
 31
0.0
 11
350.173269
 21
285.504291
 31
0.0
 11
351.649337
 21
286.040190
 31
0.0
 11
352.851472
 21
287.050553
 31
0.0
 11
353.625405
 21
288.391043
 31
0.0
 11
353.899337
 21
289.937304
 31
0.0
  0
LWPOLYLINE
  5
185
100
AcDbEntity
  8
DT500
 62
5
100
AcDbPolyline
 90
2
 70
1
 10
353.899337
 20
289.937304
 30
0.0
 10
353.899337
 20
289.937304
 30
0.0
  0
SPLINE
  5
186
100
AcDbEntity
  8
DT500
 62
5
100
AcDbSpline
 70
0
 71
3
 72
25
 73
21
 74
19
 40
0.000000
 40
0.000000
 40
0.000000
 40
0.000000
 40
1.118081
 40
2.220161
 40
3.338242
 40
4.456323
 40
5.558402
 40
6.676483
 40
7.794564
 40
8.896644
 40
10.014725
 40
11.132806
 40
12.234885
 40
13.352966
 40
14.471047
 40
15.573127
 40
16.691208
 40
17.809289
 40
18.911368
 40
20.029450
 40
20.029450
 40
20.029450
 40
20.029450
 10
1515.622497
 20
594.302184
 30
0.0
 10
1515.584216
 20
594.676778
 30
0.0
 10
1515.508201
 20
595.420606
 30
0.0
 10
1514.918451
 20
596.403587
 30
0.0
 10
1514.054958
 20
597.134406
 30
0.0
 10
1512.985684
 20
597.522009
 30
0.0
 10
1511.851064
 20
597.522009
 30
0.0
 10
1510.783288
 20
597.134406
 30
0.0
 10
1509.913815
 20
596.403587
 30
0.0
 10
1509.346283
 20
595.420606
 30
0.0
 10
1509.148129
 20
594.302184
 30
0.0
 10
1509.346283
 20
593.183762
 30
0.0
 10
1509.913815
 20
592.200781
 30
0.0
 10
1510.783288
 20
591.469962
 30
0.0
 10
1511.851064
 20
591.082359
 30
0.0
 10
1512.985684
 20
591.082359
 30
0.0
 10
1514.054958
 20
591.469962
 30
0.0
 10
1514.918451
 20
592.200781
 30
0.0
 10
1515.508201
 20
593.183762
 30
0.0
 10
1515.584216
 20
593.927590
 30
0.0
 10
1515.622497
 20
594.302184
 30
0.0
 11
1515.622497
 21
594.302184
 31
0.0
 11
1515.427457
 21
595.403122
 31
0.0
 11
1514.876417
 21
596.357551
 31
0.0
 11
1514.020497
 21
597.076929
 31
0.0
 11
1512.969537
 21
597.458489
 31
0.0
 11
1511.867457
 21
597.458489
 31
0.0
 11
1510.816497
 21
597.076929
 31
0.0
 11
1509.960576
 21
596.357551
 31
0.0
 11
1509.409537
 21
595.403122
 31
0.0
 11
1509.214497
 21
594.302184
 31
0.0
 11
1509.409537
 21
593.201246
 31
0.0
 11
1509.960576
 21
592.246817
 31
0.0
 11
1510.816497
 21
591.527439
 31
0.0
 11
1511.867457
 21
591.145879
 31
0.0
 11
1512.969537
 21
591.145879
 31
0.0
 11
1514.020497
 21
591.527439
 31
0.0
 11
1514.876417
 21
592.246817
 31
0.0
 11
1515.427457
 21
593.201246
 31
0.0
 11
1515.622497
 21
594.302184
 31
0.0
  0
LWPOLYLINE
  5
187
100
AcDbEntity
  8
DT500
 62
5
100
AcDbPolyline
 90
2
 70
1
 10
1515.622497
 20
594.302184
 30
0.0
 10
1515.622497
 20
594.302184
 30
0.0
  0
SPLINE
  5
188
100
AcDbEntity
  8
DT500
 62
5
100
AcDbSpline
 70
0
 71
3
 72
25
 73
21
 74
19
 40
0.000000
 40
0.000000
 40
0.000000
 40
0.000000
 40
1.118081
 40
2.220161
 40
3.338242
 40
4.456323
 40
5.558402
 40
6.676483
 40
7.794564
 40
8.896644
 40
10.014725
 40
11.132806
 40
12.234885
 40
13.352966
 40
14.471047
 40
15.573127
 40
16.691208
 40
17.809289
 40
18.911368
 40
20.029450
 40
20.029450
 40
20.029450
 40
20.029450
 10
1515.622497
 20
306.302184
 30
0.0
 10
1515.584216
 20
306.676778
 30
0.0
 10
1515.508201
 20
307.420606
 30
0.0
 10
1514.918451
 20
308.403587
 30
0.0
 10
1514.054958
 20
309.134406
 30
0.0
 10
1512.985684
 20
309.522009
 30
0.0
 10
1511.851064
 20
309.522009
 30
0.0
 10
1510.783288
 20
309.134406
 30
0.0
 10
1509.913815
 20
308.403587
 30
0.0
 10
1509.346283
 20
307.420606
 30
0.0
 10
1509.148129
 20
306.302184
 30
0.0
 10
1509.346283
 20
305.183762
 30
0.0
 10
1509.913815
 20
304.200781
 30
0.0
 10
1510.783288
 20
303.469962
 30
0.0
 10
1511.851064
 20
303.082359
 30
0.0
 10
1512.985684
 20
303.082359
 30
0.0
 10
1514.054958
 20
303.469962
 30
0.0
 10
1514.918451
 20
304.200781
 30
0.0
 10
1515.508201
 20
305.183762
 30
0.0
 10
1515.584216
 20
305.927590
 30
0.0
 10
1515.622497
 20
306.302184
 30
0.0
 11
1515.622497
 21
306.302184
 31
0.0
 11
1515.427457
 21
307.403122
 31
0.0
 11
1514.876417
 21
308.357551
 31
0.0
 11
1514.020497
 21
309.076929
 31
0.0
 11
1512.969537
 21
309.458489
 31
0.0
 11
1511.867457
 21
309.458489
 31
0.0
 11
1510.816497
 21
309.076929
 31
0.0
 11
1509.960576
 21
308.357551
 31
0.0
 11
1509.409537
 21
307.403122
 31
0.0
 11
1509.214497
 21
306.302184
 31
0.0
 11
1509.409537
 21
305.201246
 31
0.0
 11
1509.960576
 21
304.246817
 31
0.0
 11
1510.816497
 21
303.527439
 31
0.0
 11
1511.867457
 21
303.145879
 31
0.0
 11
1512.969537
 21
303.145879
 31
0.0
 11
1514.020497
 21
303.527439
 31
0.0
 11
1514.876417
 21
304.246817
 31
0.0
 11
1515.427457
 21
305.201246
 31
0.0
 11
1515.622497
 21
306.302184
 31
0.0
  0
LWPOLYLINE
  5
189
100
AcDbEntity
  8
DT500
 62
5
100
AcDbPolyline
 90
2
 70
1
 10
1515.622497
 20
306.302184
 30
0.0
 10
1515.622497
 20
306.302184
 30
0.0
  0
SPLINE
  5
18a
100
AcDbEntity
  8
DT500
 62
5
100
AcDbSpline
 70
0
 71
3
 72
25
 73
21
 74
19
 40
0.000000
 40
0.000000
 40
0.000000
 40
0.000000
 40
1.118081
 40
2.220161
 40
3.338242
 40
4.456323
 40
5.558402
 40
6.676483
 40
7.794564
 40
8.896644
 40
10.014725
 40
11.132806
 40
12.234885
 40
13.352966
 40
14.471047
 40
15.573127
 40
16.691208
 40
17.809289
 40
18.911368
 40
20.029450
 40
20.029450
 40
20.029450
 40
20.029450
 10
341.910801
 20
987.624984
 30
0.0
 10
341.872520
 20
987.999578
 30
0.0
 10
341.796505
 20
988.743406
 30
0.0
 10
341.206755
 20
989.726387
 30
0.0
 10
340.343262
 20
990.457206
 30
0.0
 10
339.273988
 20
990.844809
 30
0.0
 10
338.139368
 20
990.844809
 30
0.0
 10
337.071592
 20
990.457206
 30
0.0
 10
336.202119
 20
989.726387
 30
0.0
 10
335.634587
 20
988.743406
 30
0.0
 10
335.436433
 20
987.624984
 30
0.0
 10
335.634587
 20
986.506562
 30
0.0
 10
336.202119
 20
985.523581
 30
0.0
 10
337.071592
 20
984.792762
 30
0.0
 10
338.139368
 20
984.405159
 30
0.0
 10
339.273988
 20
984.405159
 30
0.0
 10
340.343262
 20
984.792762
 30
0.0
 10
341.206755
 20
985.523581
 30
0.0
 10
341.796505
 20
986.506562
 30
0.0
 10
341.872520
 20
987.250390
 30
0.0
 10
341.910801
 20
987.624984
 30
0.0
 11
341.910801
 21
987.624984
 31
0.0
 11
341.715761
 21
988.725922
 31
0.0
 11
341.164721
 21
989.680351
 31
0.0
 11
340.308801
 21
990.399729
 31
0.0
 11
339.257841
 21
990.781289
 31
0.0
 11
338.155761
 21
990.781289
 31
0.0
 11
337.104801
 21
990.399729
 31
0.0
 11
336.248880
 21
989.680351
 31
0.0
 11
335.697841
 21
988.725922
 31
0.0
 11
335.502801
 21
987.624984
 31
0.0
 11
335.697841
 21
986.524046
 31
0.0
 11
336.248880
 21
985.569617
 31
0.0
 11
337.104801
 21
984.850239
 31
0.0
 11
338.155761
 21
984.468679
 31
0.0
 11
339.257841
 21
984.468679
 31
0.0
 11
340.308801
 21
984.850239
 31
0.0
 11
341.164721
 21
985.569617
 31
0.0
 11
341.715761
 21
986.524046
 31
0.0
 11
341.910801
 21
987.624984
 31
0.0
  0
LWPOLYLINE
  5
18b
100
AcDbEntity
  8
DT500
 62
5
100
AcDbPolyline
 90
2
 70
1
 10
341.910801
 20
987.624984
 30
0.0
 10
341.910801
 20
987.624984
 30
0.0
  0
LWPOLYLINE
  5
18c
100
AcDbEntity
  8
DT500
 62
5
100
AcDbPolyline
 90
2
 70
1
 10
569.894025
 20
173.902184
 30
0.0
 10
569.894025
 20
173.902184
 30
0.0
  0
SPLINE
  5
18d
100
AcDbEntity
  8
DT500
 62
5
100
AcDbSpline
 70
0
 71
3
 72
25
 73
21
 74
19
 40
0.000000
 40
0.000000
 40
0.000000
 40
0.000000
 40
6.281354
 40
12.472812
 40
18.754166
 40
25.035520
 40
31.226978
 40
37.508332
 40
43.789686
 40
49.981145
 40
56.262499
 40
62.543853
 40
68.735311
 40
75.016665
 40
81.298019
 40
87.489477
 40
93.770831
 40
100.052185
 40
106.243643
 40
112.524997
 40
112.524997
 40
112.524997
 40
112.524997
 10
569.894025
 20
173.902184
 30
0.0
 10
569.678962
 20
176.006647
 30
0.0
 10
569.251913
 20
180.185456
 30
0.0
 10
565.938713
 20
185.707816
 30
0.0
 10
561.087627
 20
189.813546
 30
0.0
 10
555.080471
 20
191.991089
 30
0.0
 10
548.706200
 20
191.991089
 30
0.0
 10
542.707457
 20
189.813546
 30
0.0
 10
537.822778
 20
185.707816
 30
0.0
 10
534.634395
 20
180.185456
 30
0.0
 10
533.521172
 20
173.902184
 30
0.0
 10
534.634395
 20
167.618912
 30
0.0
 10
537.822778
 20
162.096552
 30
0.0
 10
542.707457
 20
157.990822
 30
0.0
 10
548.706200
 20
155.813279
 30
0.0
 10
555.080471
 20
155.813279
 30
0.0
 10
561.087627
 20
157.990822
 30
0.0
 10
565.938713
 20
162.096552
 30
0.0
 10
569.251913
 20
167.618912
 30
0.0
 10
569.678962
 20
171.797721
 30
0.0
 10
569.894025
 20
173.902184
 30
0.0
 11
569.894025
 21
173.902184
 31
0.0
 11
568.798296
 21
180.087229
 31
0.0
 11
565.702567
 21
185.449189
 31
0.0
 11
560.894025
 21
189.490641
 31
0.0
 11
554.989754
 21
191.634235
 31
0.0
 11
548.798296
 21
191.634235
 31
0.0
 11
542.894025
 21
189.490641
 31
0.0
 11
538.085483
 21
185.449189
 31
0.0
 11
534.989754
 21
180.087229
 31
0.0
 11
533.894025
 21
173.902184
 31
0.0
 11
534.989754
 21
167.717139
 31
0.0
 11
538.085483
 21
162.355179
 31
0.0
 11
542.894025
 21
158.313727
 31
0.0
 11
548.798296
 21
156.170133
 31
0.0
 11
554.989754
 21
156.170133
 31
0.0
 11
560.894025
 21
158.313727
 31
0.0
 11
565.702567
 21
162.355179
 31
0.0
 11
568.798296
 21
167.717139
 31
0.0
 11
569.894025
 21
173.902184
 31
0.0
  0
LWPOLYLINE
  5
18e
100
AcDbEntity
  8
DT500
 62
5
100
AcDbPolyline
 90
2
 70
0
 10
707.005937
 20
72.402424
 30
0.0
 10
896.406257
 20
72.402424
 30
0.0
  0
SPLINE
  5
18f
100
AcDbEntity
  8
DT500
 62
5
100
AcDbSpline
 70
0
 71
3
 72
25
 73
21
 74
19
 40
0.000000
 40
0.000000
 40
0.000000
 40
0.000000
 40
1.118081
 40
2.220161
 40
3.338242
 40
4.456323
 40
5.558402
 40
6.676483
 40
7.794564
 40
8.896644
 40
10.014725
 40
11.132806
 40
12.234885
 40
13.352966
 40
14.471047
 40
15.573127
 40
16.691208
 40
17.809289
 40
18.911368
 40
20.029450
 40
20.029450
 40
20.029450
 40
20.029450
 10
1315.905457
 20
480.219304
 30
0.0
 10
1315.867176
 20
480.593898
 30
0.0
 10
1315.791161
 20
481.337726
 30
0.0
 10
1315.201411
 20
482.320707
 30
0.0
 10
1314.337918
 20
483.051526
 30
0.0
 10
1313.268644
 20
483.439129
 30
0.0
 10
1312.134024
 20
483.439129
 30
0.0
 10
1311.066248
 20
483.051526
 30
0.0
 10
1310.196775
 20
482.320707
 30
0.0
 10
1309.629243
 20
481.337726
 30
0.0
 10
1309.431089
 20
480.219304
 30
0.0
 10
1309.629243
 20
479.100882
 30
0.0
 10
1310.196775
 20
478.117901
 30
0.0
 10
1311.066248
 20
477.387082
 30
0.0
 10
1312.134024
 20
476.999479
 30
0.0
 10
1313.268644
 20
476.999479
 30
0.0
 10
1314.337918
 20
477.387082
 30
0.0
 10
1315.201411
 20
478.117901
 30
0.0
 10
1315.791161
 20
479.100882
 30
0.0
 10
1315.867176
 20
479.844710
 30
0.0
 10
1315.905457
 20
480.219304
 30
0.0
 11
1315.905457
 21
480.219304
 31
0.0
 11
1315.710417
 21
481.320242
 31
0.0
 11
1315.159377
 21
482.274671
 31
0.0
 11
1314.303457
 21
482.994049
 31
0.0
 11
1313.252497
 21
483.375609
 31
0.0
 11
1312.150417
 21
483.375609
 31
0.0
 11
1311.099457
 21
482.994049
 31
0.0
 11
1310.243536
 21
482.274671
 31
0.0
 11
1309.692497
 21
481.320242
 31
0.0
 11
1309.497457
 21
480.219304
 31
0.0
 11
1309.692497
 21
479.118366
 31
0.0
 11
1310.243536
 21
478.163937
 31
0.0
 11
1311.099457
 21
477.444559
 31
0.0
 11
1312.150417
 21
477.062999
 31
0.0
 11
1313.252497
 21
477.062999
 31
0.0
 11
1314.303457
 21
477.444559
 31
0.0
 11
1315.159377
 21
478.163937
 31
0.0
 11
1315.710417
 21
479.118366
 31
0.0
 11
1315.905457
 21
480.219304
 31
0.0
  0
LWPOLYLINE
  5
190
100
AcDbEntity
  8
DT500
 62
5
100
AcDbPolyline
 90
2
 70
1
 10
1315.905457
 20
480.219304
 30
0.0
 10
1315.905457
 20
480.219304
 30
0.0
  0
SPLINE
  5
191
100
AcDbEntity
  8
DT500
 62
5
100
AcDbSpline
 70
0
 71
3
 72
25
 73
21
 74
19
 40
0.000000
 40
0.000000
 40
0.000000
 40
0.000000
 40
1.570339
 40
3.118203
 40
4.688542
 40
6.258880
 40
7.806745
 40
9.377083
 40
10.947422
 40
12.495286
 40
14.065625
 40
15.635963
 40
17.183828
 40
18.754166
 40
20.324505
 40
21.872369
 40
23.442708
 40
25.013046
 40
26.560911
 40
28.131249
 40
28.131249
 40
28.131249
 40
28.131249
 10
1256.573697
 20
293.828344
 30
0.0
 10
1256.519931
 20
294.354460
 30
0.0
 10
1256.413169
 20
295.399162
 30
0.0
 10
1255.584869
 20
296.779752
 30
0.0
 10
1254.372097
 20
297.806185
 30
0.0
 10
1252.870308
 20
298.350570
 30
0.0
 10
1251.276741
 20
298.350570
 30
0.0
 10
1249.777055
 20
297.806185
 30
0.0
 10
1248.555885
 20
296.779752
 30
0.0
 10
1247.758789
 20
295.399162
 30
0.0
 10
1247.480483
 20
293.828344
 30
0.0
 10
1247.758789
 20
292.257526
 30
0.0
 10
1248.555885
 20
290.876936
 30
0.0
 10
1249.777055
 20
289.850503
 30
0.0
 10
1251.276741
 20
289.306118
 30
0.0
 10
1252.870308
 20
289.306118
 30
0.0
 10
1254.372097
 20
289.850503
 30
0.0
 10
1255.584869
 20
290.876936
 30
0.0
 10
1256.413169
 20
292.257526
 30
0.0
 10
1256.519931
 20
293.302228
 30
0.0
 10
1256.573697
 20
293.828344
 30
0.0
 11
1256.573697
 21
293.828344
 31
0.0
 11
1256.299765
 21
295.374605
 31
0.0
 11
1255.525832
 21
296.715095
 31
0.0
 11
1254.323697
 21
297.725458
 31
0.0
 11
1252.847629
 21
298.261357
 31
0.0
 11
1251.299765
 21
298.261357
 31
0.0
 11
1249.823697
 21
297.725458
 31
0.0
 11
1248.621561
 21
296.715095
 31
0.0
 11
1247.847629
 21
295.374605
 31
0.0
 11
1247.573697
 21
293.828344
 31
0.0
 11
1247.847629
 21
292.282083
 31
0.0
 11
1248.621561
 21
290.941593
 31
0.0
 11
1249.823697
 21
289.931230
 31
0.0
 11
1251.299765
 21
289.395331
 31
0.0
 11
1252.847629
 21
289.395331
 31
0.0
 11
1254.323697
 21
289.931230
 31
0.0
 11
1255.525832
 21
290.941593
 31
0.0
 11
1256.299765
 21
292.282083
 31
0.0
 11
1256.573697
 21
293.828344
 31
0.0
  0
LWPOLYLINE
  5
192
100
AcDbEntity
  8
DT500
 62
5
100
AcDbPolyline
 90
2
 70
1
 10
1256.573697
 20
293.828344
 30
0.0
 10
1256.573697
 20
293.828344
 30
0.0
  0
SPLINE
  5
193
100
AcDbEntity
  8
DT500
 62
5
100
AcDbSpline
 70
0
 71
3
 72
25
 73
21
 74
19
 40
0.000000
 40
0.000000
 40
0.000000
 40
0.000000
 40
1.444712
 40
2.868747
 40
4.313459
 40
5.758171
 40
7.182206
 40
8.626918
 40
10.071629
 40
11.495665
 40
12.940377
 40
14.385088
 40
15.809123
 40
17.253835
 40
18.698546
 40
20.122582
 40
21.567293
 40
23.012005
 40
24.436040
 40
25.880751
 40
25.880751
 40
25.880751
 40
25.880751
 10
1419.123057
 20
743.742344
 30
0.0
 10
1419.073592
 20
744.226371
 30
0.0
 10
1418.975371
 20
745.187497
 30
0.0
 10
1418.213335
 20
746.457640
 30
0.0
 10
1417.097586
 20
747.401958
 30
0.0
 10
1415.715939
 20
747.902793
 30
0.0
 10
1414.249857
 20
747.902793
 30
0.0
 10
1412.870146
 20
747.401958
 30
0.0
 10
1411.746670
 20
746.457640
 30
0.0
 10
1411.013342
 20
745.187497
 30
0.0
 10
1410.757301
 20
743.742344
 30
0.0
 10
1411.013342
 20
742.297191
 30
0.0
 10
1411.746670
 20
741.027049
 30
0.0
 10
1412.870146
 20
740.082731
 30
0.0
 10
1414.249857
 20
739.581896
 30
0.0
 10
1415.715939
 20
739.581896
 30
0.0
 10
1417.097585
 20
740.082731
 30
0.0
 10
1418.213335
 20
741.027049
 30
0.0
 10
1418.975371
 20
742.297191
 30
0.0
 10
1419.073592
 20
743.258317
 30
0.0
 10
1419.123057
 20
743.742344
 30
0.0
 11
1419.123057
 21
743.742344
 31
0.0
 11
1418.871039
 21
745.164905
 31
0.0
 11
1418.159022
 21
746.398156
 31
0.0
 11
1417.053057
 21
747.327690
 31
0.0
 11
1415.695075
 21
747.820717
 31
0.0
 11
1414.271039
 21
747.820717
 31
0.0
 11
1412.913057
 21
747.327690
 31
0.0
 11
1411.807092
 21
746.398156
 31
0.0
 11
1411.095074
 21
745.164905
 31
0.0
 11
1410.843057
 21
743.742344
 31
0.0
 11
1411.095074
 21
742.319784
 31
0.0
 11
1411.807092
 21
741.086533
 31
0.0
 11
1412.913057
 21
740.156999
 31
0.0
 11
1414.271039
 21
739.663972
 31
0.0
 11
1415.695074
 21
739.663972
 31
0.0
 11
1417.053057
 21
740.156999
 31
0.0
 11
1418.159021
 21
741.086533
 31
0.0
 11
1418.871039
 21
742.319784
 31
0.0
 11
1419.123057
 21
743.742344
 31
0.0
  0
LWPOLYLINE
  5
194
100
AcDbEntity
  8
DT500
 62
5
100
AcDbPolyline
 90
2
 70
1
 10
1419.123057
 20
743.742344
 30
0.0
 10
1419.123057
 20
743.742344
 30
0.0
  0
LWPOLYLINE
  5
195
100
AcDbEntity
  8
DT500
 62
5
100
AcDbPolyline
 90
2
 70
1
 10
1358.011217
 20
999.302184
 30
0.0
 10
1358.011217
 20
999.302184
 30
0.0
  0
LWPOLYLINE
  5
196
100
AcDbEntity
  8
DT500
 62
5
100
AcDbPolyline
 90
2
 70
0
 10
72.405697
 20
1152.702184
 30
0.0
 10
72.405697
 20
248.927384
 30
0.0
  0
LWPOLYLINE
  5
197
100
AcDbEntity
  8
DT500
 62
5
100
AcDbPolyline
 90
2
 70
0
 10
675.405697
 20
1152.702184
 30
0.0
 10
72.405697
 20
1152.702184
 30
0.0
  0
SPLINE
  5
198
100
AcDbEntity
  8
DT500
 62
5
100
AcDbSpline
 70
0
 71
3
 72
25
 73
21
 74
19
 40
0.000000
 40
0.000000
 40
0.000000
 40
0.000000
 40
1.118081
 40
2.220161
 40
3.338242
 40
4.456323
 40
5.558402
 40
6.676483
 40
7.794564
 40
8.896644
 40
10.014725
 40
11.132806
 40
12.234885
 40
13.352966
 40
14.471047
 40
15.573127
 40
16.691208
 40
17.809289
 40
18.911368
 40
20.029450
 40
20.029450
 40
20.029450
 40
20.029450
 10
1358.011217
 20
999.302184
 30
0.0
 10
1357.972936
 20
999.676778
 30
0.0
 10
1357.896921
 20
1000.420606
 30
0.0
 10
1357.307171
 20
1001.403587
 30
0.0
 10
1356.443678
 20
1002.134406
 30
0.0
 10
1355.374404
 20
1002.522009
 30
0.0
 10
1354.239784
 20
1002.522009
 30
0.0
 10
1353.172008
 20
1002.134406
 30
0.0
 10
1352.302535
 20
1001.403587
 30
0.0
 10
1351.735003
 20
1000.420606
 30
0.0
 10
1351.536849
 20
999.302184
 30
0.0
 10
1351.735003
 20
998.183762
 30
0.0
 10
1352.302535
 20
997.200781
 30
0.0
 10
1353.172008
 20
996.469962
 30
0.0
 10
1354.239784
 20
996.082359
 30
0.0
 10
1355.374404
 20
996.082359
 30
0.0
 10
1356.443678
 20
996.469962
 30
0.0
 10
1357.307171
 20
997.200781
 30
0.0
 10
1357.896921
 20
998.183762
 30
0.0
 10
1357.972936
 20
998.927590
 30
0.0
 10
1358.011217
 20
999.302184
 30
0.0
 11
1358.011217
 21
999.302184
 31
0.0
 11
1357.816177
 21
1000.403122
 31
0.0
 11
1357.265137
 21
1001.357551
 31
0.0
 11
1356.409217
 21
1002.076929
 31
0.0
 11
1355.358257
 21
1002.458489
 31
0.0
 11
1354.256177
 21
1002.458489
 31
0.0
 11
1353.205217
 21
1002.076929
 31
0.0
 11
1352.349296
 21
1001.357551
 31
0.0
 11
1351.798257
 21
1000.403122
 31
0.0
 11
1351.603217
 21
999.302184
 31
0.0
 11
1351.798257
 21
998.201246
 31
0.0
 11
1352.349296
 21
997.246817
 31
0.0
 11
1353.205217
 21
996.527439
 31
0.0
 11
1354.256177
 21
996.145879
 31
0.0
 11
1355.358257
 21
996.145879
 31
0.0
 11
1356.409217
 21
996.527439
 31
0.0
 11
1357.265137
 21
997.246817
 31
0.0
 11
1357.816177
 21
998.201246
 31
0.0
 11
1358.011217
 21
999.302184
 31
0.0
  0
LWPOLYLINE
  5
199
100
AcDbEntity
  8
DT500
 62
5
100
AcDbPolyline
 90
2
 70
0
 10
72.418477
 20
248.527384
 30
0.0
 10
244.868761
 20
275.502424
 30
0.0
  0
SPLINE
  5
19a
100
AcDbEntity
  8
DT500
 62
5
100
AcDbSpline
 70
0
 71
3
 72
25
 73
21
 74
19
 40
0.000000
 40
0.000000
 40
0.000000
 40
0.000000
 40
6.281354
 40
12.472812
 40
18.754166
 40
25.035520
 40
31.226978
 40
37.508332
 40
43.789686
 40
49.981145
 40
56.262499
 40
62.543853
 40
68.735311
 40
75.016665
 40
81.298019
 40
87.489477
 40
93.770831
 40
100.052185
 40
106.243643
 40
112.524997
 40
112.524997
 40
112.524997
 40
112.524997
 10
1494.193297
 20
778.650264
 30
0.0
 10
1493.978234
 20
780.754727
 30
0.0
 10
1493.551185
 20
784.933536
 30
0.0
 10
1490.237985
 20
790.455896
 30
0.0
 10
1485.386899
 20
794.561626
 30
0.0
 10
1479.379743
 20
796.739169
 30
0.0
 10
1473.005472
 20
796.739169
 30
0.0
 10
1467.006729
 20
794.561626
 30
0.0
 10
1462.122050
 20
790.455896
 30
0.0
 10
1458.933667
 20
784.933536
 30
0.0
 10
1457.820444
 20
778.650264
 30
0.0
 10
1458.933667
 20
772.366992
 30
0.0
 10
1462.122050
 20
766.844632
 30
0.0
 10
1467.006729
 20
762.738902
 30
0.0
 10
1473.005472
 20
760.561359
 30
0.0
 10
1479.379743
 20
760.561359
 30
0.0
 10
1485.386899
 20
762.738902
 30
0.0
 10
1490.237985
 20
766.844632
 30
0.0
 10
1493.551185
 20
772.366992
 30
0.0
 10
1493.978234
 20
776.545801
 30
0.0
 10
1494.193297
 20
778.650264
 30
0.0
 11
1494.193297
 21
778.650264
 31
0.0
 11
1493.097568
 21
784.835309
 31
0.0
 11
1490.001839
 21
790.197269
 31
0.0
 11
1485.193297
 21
794.238721
 31
0.0
 11
1479.289026
 21
796.382315
 31
0.0
 11
1473.097568
 21
796.382315
 31
0.0
 11
1467.193297
 21
794.238721
 31
0.0
 11
1462.384755
 21
790.197269
 31
0.0
 11
1459.289026
 21
784.835309
 31
0.0
 11
1458.193297
 21
778.650264
 31
0.0
 11
1459.289026
 21
772.465219
 31
0.0
 11
1462.384755
 21
767.103259
 31
0.0
 11
1467.193297
 21
763.061807
 31
0.0
 11
1473.097568
 21
760.918213
 31
0.0
 11
1479.289026
 21
760.918213
 31
0.0
 11
1485.193297
 21
763.061807
 31
0.0
 11
1490.001839
 21
767.103259
 31
0.0
 11
1493.097568
 21
772.465219
 31
0.0
 11
1494.193297
 21
778.650264
 31
0.0
  0
LWPOLYLINE
  5
19b
100
AcDbEntity
  8
DT500
 62
5
100
AcDbPolyline
 90
2
 70
1
 10
1494.193297
 20
778.650264
 30
0.0
 10
1494.193297
 20
778.650264
 30
0.0
  0
SPLINE
  5
19c
100
AcDbEntity
  8
DT500
 62
5
100
AcDbSpline
 70
0
 71
3
 72
25
 73
21
 74
19
 40
0.000000
 40
0.000000
 40
0.000000
 40
0.000000
 40
6.281354
 40
12.472812
 40
18.754166
 40
25.035520
 40
31.226978
 40
37.508332
 40
43.789686
 40
49.981145
 40
56.262499
 40
62.543853
 40
68.735311
 40
75.016665
 40
81.298019
 40
87.489477
 40
93.770831
 40
100.052185
 40
106.243643
 40
112.524997
 40
112.524997
 40
112.524997
 40
112.524997
 10
145.744369
 20
776.625624
 30
0.0
 10
145.529306
 20
778.730087
 30
0.0
 10
145.102257
 20
782.908896
 30
0.0
 10
141.789057
 20
788.431256
 30
0.0
 10
136.937971
 20
792.536986
 30
0.0
 10
130.930815
 20
794.714529
 30
0.0
 10
124.556544
 20
794.714529
 30
0.0
 10
118.557801
 20
792.536986
 30
0.0
 10
113.673122
 20
788.431256
 30
0.0
 10
110.484739
 20
782.908896
 30
0.0
 10
109.371516
 20
776.625624
 30
0.0
 10
110.484739
 20
770.342352
 30
0.0
 10
113.673122
 20
764.819992
 30
0.0
 10
118.557801
 20
760.714262
 30
0.0
 10
124.556544
 20
758.536719
 30
0.0
 10
130.930815
 20
758.536719
 30
0.0
 10
136.937971
 20
760.714262
 30
0.0
 10
141.789057
 20
764.819992
 30
0.0
 10
145.102257
 20
770.342352
 30
0.0
 10
145.529306
 20
774.521161
 30
0.0
 10
145.744369
 20
776.625624
 30
0.0
 11
145.744369
 21
776.625624
 31
0.0
 11
144.648640
 21
782.810669
 31
0.0
 11
141.552911
 21
788.172629
 31
0.0
 11
136.744369
 21
792.214081
 31
0.0
 11
130.840098
 21
794.357675
 31
0.0
 11
124.648640
 21
794.357675
 31
0.0
 11
118.744369
 21
792.214081
 31
0.0
 11
113.935827
 21
788.172629
 31
0.0
 11
110.840098
 21
782.810669
 31
0.0
 11
109.744369
 21
776.625624
 31
0.0
 11
110.840098
 21
770.440579
 31
0.0
 11
113.935827
 21
765.078619
 31
0.0
 11
118.744369
 21
761.037167
 31
0.0
 11
124.648640
 21
758.893573
 31
0.0
 11
130.840098
 21
758.893573
 31
0.0
 11
136.744369
 21
761.037167
 31
0.0
 11
141.552911
 21
765.078619
 31
0.0
 11
144.648640
 21
770.440579
 31
0.0
 11
145.744369
 21
776.625624
 31
0.0
  0
LWPOLYLINE
  5
19d
100
AcDbEntity
  8
DT500
 62
5
100
AcDbPolyline
 90
2
 70
1
 10
145.744369
 20
776.625624
 30
0.0
 10
145.744369
 20
776.625624
 30
0.0
  0
SPLINE
  5
19e
100
AcDbEntity
  8
DT500
 62
5
100
AcDbSpline
 70
0
 71
3
 72
25
 73
21
 74
19
 40
0.000000
 40
0.000000
 40
0.000000
 40
0.000000
 40
31.658025
 40
62.862973
 40
94.520998
 40
126.179022
 40
157.383971
 40
189.041995
 40
220.700020
 40
251.904968
 40
283.562993
 40
315.221017
 40
346.425966
 40
378.083991
 40
409.742015
 40
440.946964
 40
472.604988
 40
504.263013
 40
535.467961
 40
567.125986
 40
567.125986
 40
567.125986
 40
567.125986
 10
1063.125697
 20
723.444024
 30
0.0
 10
1062.041778
 20
734.050520
 30
0.0
 10
1059.889453
 20
755.111716
 30
0.0
 10
1043.190924
 20
782.944411
 30
0.0
 10
1018.741451
 20
803.637290
 30
0.0
 10
988.465383
 20
814.612103
 30
0.0
 10
956.339061
 20
814.612103
 30
0.0
 10
926.105397
 20
803.637290
 30
0.0
 10
901.486615
 20
782.944411
 30
0.0
 10
885.417164
 20
755.111716
 30
0.0
 10
879.806516
 20
723.444024
 30
0.0
 10
885.417164
 20
691.776332
 30
0.0
 10
901.486615
 20
663.943637
 30
0.0
 10
926.105397
 20
643.250758
 30
0.0
 10
956.339061
 20
632.275945
 30
0.0
 10
988.465383
 20
632.275945
 30
0.0
 10
1018.741451
 20
643.250758
 30
0.0
 10
1043.190924
 20
663.943637
 30
0.0
 10
1059.889453
 20
691.776332
 30
0.0
 10
1062.041778
 20
712.837528
 30
0.0
 10
1063.125697
 20
723.444024
 30
0.0
 11
1063.125697
 21
723.444024
 31
0.0
 11
1057.603223
 21
754.616653
 31
0.0
 11
1042.000748
 21
781.640931
 31
0.0
 11
1017.765697
 21
802.009849
 31
0.0
 11
988.008171
 21
812.813560
 31
0.0
 11
956.803223
 21
812.813560
 31
0.0
 11
927.045697
 21
802.009849
 31
0.0
 11
902.810645
 21
781.640931
 31
0.0
 11
887.208171
 21
754.616653
 31
0.0
 11
881.685697
 21
723.444024
 31
0.0
 11
887.208171
 21
692.271395
 31
0.0
 11
902.810645
 21
665.247117
 31
0.0
 11
927.045697
 21
644.878199
 31
0.0
 11
956.803223
 21
634.074488
 31
0.0
 11
988.008171
 21
634.074488
 31
0.0
 11
1017.765697
 21
644.878199
 31
0.0
 11
1042.000748
 21
665.247117
 31
0.0
 11
1057.603223
 21
692.271395
 31
0.0
 11
1063.125697
 21
723.444024
 31
0.0
  0
LWPOLYLINE
  5
19f
100
AcDbEntity
  8
DT500
 62
5
100
AcDbPolyline
 90
2
 70
1
 10
1063.125697
 20
723.444024
 30
0.0
 10
1063.125697
 20
723.444024
 30
0.0
  0
SPLINE
  5
1a0
100
AcDbEntity
  8
DT500
 62
5
100
AcDbSpline
 70
0
 71
3
 72
25
 73
21
 74
19
 40
0.000000
 40
0.000000
 40
0.000000
 40
0.000000
 40
31.658025
 40
62.862973
 40
94.520998
 40
126.179022
 40
157.383971
 40
189.041995
 40
220.700020
 40
251.904968
 40
283.562993
 40
315.221018
 40
346.425968
 40
378.083993
 40
409.742018
 40
440.946968
 40
472.604993
 40
504.263019
 40
535.467968
 40
567.125993
 40
567.125993
 40
567.125993
 40
567.125993
 10
721.125697
 20
723.444024
 30
0.0
 10
720.041778
 20
734.050520
 30
0.0
 10
717.889453
 20
755.111716
 30
0.0
 10
701.190924
 20
782.944411
 30
0.0
 10
676.741451
 20
803.637290
 30
0.0
 10
646.465383
 20
814.612103
 30
0.0
 10
614.339061
 20
814.612103
 30
0.0
 10
584.105397
 20
803.637290
 30
0.0
 10
559.486615
 20
782.944411
 30
0.0
 10
543.417164
 20
755.111716
 30
0.0
 10
537.806517
 20
723.444024
 30
0.0
 10
543.417163
 20
691.776331
 30
0.0
 10
559.486614
 20
663.943635
 30
0.0
 10
584.105396
 20
643.250755
 30
0.0
 10
614.339061
 20
632.275941
 30
0.0
 10
646.465384
 20
632.275941
 30
0.0
 10
676.741452
 20
643.250755
 30
0.0
 10
701.190925
 20
663.943635
 30
0.0
 10
717.889454
 20
691.776331
 30
0.0
 10
720.041778
 20
712.837528
 30
0.0
 10
721.125697
 20
723.444024
 30
0.0
 11
721.125697
 21
723.444024
 31
0.0
 11
715.603223
 21
754.616653
 31
0.0
 11
700.000748
 21
781.640931
 31
0.0
 11
675.765697
 21
802.009849
 31
0.0
 11
646.008171
 21
812.813560
 31
0.0
 11
614.803223
 21
812.813560
 31
0.0
 11
585.045697
 21
802.009849
 31
0.0
 11
560.810645
 21
781.640931
 31
0.0
 11
545.208171
 21
754.616653
 31
0.0
 11
539.685697
 21
723.444024
 31
0.0
 11
545.208170
 21
692.271394
 31
0.0
 11
560.810644
 21
665.247115
 31
0.0
 11
585.045696
 21
644.878196
 31
0.0
 11
614.803222
 21
634.074484
 31
0.0
 11
646.008171
 21
634.074484
 31
0.0
 11
675.765698
 21
644.878196
 31
0.0
 11
700.000750
 21
665.247115
 31
0.0
 11
715.603224
 21
692.271394
 31
0.0
 11
721.125697
 21
723.444024
 31
0.0
  0
LWPOLYLINE
  5
1a1
100
AcDbEntity
  8
DT500
 62
5
100
AcDbPolyline
 90
2
 70
1
 10
721.125697
 20
723.444024
 30
0.0
 10
721.125697
 20
723.444024
 30
0.0
  0
SPLINE
  5
1a2
100
AcDbEntity
  8
DT500
 62
5
100
AcDbSpline
 70
0
 71
3
 72
25
 73
21
 74
19
 40
0.000000
 40
0.000000
 40
0.000000
 40
0.000000
 40
7.976357
 40
15.838559
 40
23.814915
 40
31.791272
 40
39.653474
 40
47.629831
 40
55.606187
 40
63.468390
 40
71.444746
 40
79.421103
 40
87.283305
 40
95.259662
 40
103.236018
 40
111.098221
 40
119.074577
 40
127.050934
 40
134.913136
 40
142.889493
 40
142.889493
 40
142.889493
 40
142.889493
 10
1247.834737
 20
856.243544
 30
0.0
 10
1247.561639
 20
858.915890
 30
0.0
 10
1247.019353
 20
864.222336
 30
0.0
 10
1242.812097
 20
871.234887
 30
0.0
 10
1236.651962
 20
876.448534
 30
0.0
 10
1229.023794
 20
879.213679
 30
0.0
 10
1220.929448
 20
879.213679
 30
0.0
 10
1213.311965
 20
876.448534
 30
0.0
 10
1207.109172
 20
871.234887
 30
0.0
 10
1203.060414
 20
864.222336
 30
0.0
 10
1201.646790
 20
856.243544
 30
0.0
 10
1203.060414
 20
848.264752
 30
0.0
 10
1207.109172
 20
841.252201
 30
0.0
 10
1213.311965
 20
836.038554
 30
0.0
 10
1220.929448
 20
833.273409
 30
0.0
 10
1229.023794
 20
833.273409
 30
0.0
 10
1236.651962
 20
836.038554
 30
0.0
 10
1242.812097
 20
841.252201
 30
0.0
 10
1247.019353
 20
848.264752
 30
0.0
 10
1247.561639
 20
853.571198
 30
0.0
 10
1247.834737
 20
856.243544
 30
0.0
 11
1247.834737
 21
856.243544
 31
0.0
 11
1246.443329
 21
864.097603
 31
0.0
 11
1242.512228
 21
870.906470
 31
0.0
 11
1236.406117
 21
876.038495
 31
0.0
 11
1228.908598
 21
878.760530
 31
0.0
 11
1221.046396
 21
878.760530
 31
0.0
 11
1213.548877
 21
876.038495
 31
0.0
 11
1207.442766
 21
870.906470
 31
0.0
 11
1203.511665
 21
864.097603
 31
0.0
 11
1202.120257
 21
856.243544
 31
0.0
 11
1203.511665
 21
848.389485
 31
0.0
 11
1207.442766
 21
841.580618
 31
0.0
 11
1213.548877
 21
836.448593
 31
0.0
 11
1221.046396
 21
833.726558
 31
0.0
 11
1228.908598
 21
833.726558
 31
0.0
 11
1236.406117
 21
836.448593
 31
0.0
 11
1242.512228
 21
841.580618
 31
0.0
 11
1246.443329
 21
848.389485
 31
0.0
 11
1247.834737
 21
856.243544
 31
0.0
  0
LWPOLYLINE
  5
1a3
100
AcDbEntity
  8
DT500
 62
5
100
AcDbPolyline
 90
2
 70
1
 10
1247.834737
 20
856.243544
 30
0.0
 10
1247.834737
 20
856.243544
 30
0.0
  0
SPLINE
  5
1a4
100
AcDbEntity
  8
DT500
 62
5
100
AcDbSpline
 70
0
 71
3
 72
25
 73
21
 74
19
 40
0.000000
 40
0.000000
 40
0.000000
 40
0.000000
 40
7.976357
 40
15.838559
 40
23.814915
 40
31.791272
 40
39.653474
 40
47.629831
 40
55.606187
 40
63.468390
 40
71.444746
 40
79.421103
 40
87.283305
 40
95.259662
 40
103.236018
 40
111.098221
 40
119.074577
 40
127.050934
 40
134.913136
 40
142.889493
 40
142.889493
 40
142.889493
 40
142.889493
 10
1164.839377
 20
925.350504
 30
0.0
 10
1164.566279
 20
928.022850
 30
0.0
 10
1164.023993
 20
933.329296
 30
0.0
 10
1159.816737
 20
940.341847
 30
0.0
 10
1153.656602
 20
945.555494
 30
0.0
 10
1146.028434
 20
948.320639
 30
0.0
 10
1137.934088
 20
948.320639
 30
0.0
 10
1130.316605
 20
945.555494
 30
0.0
 10
1124.113812
 20
940.341847
 30
0.0
 10
1120.065054
 20
933.329296
 30
0.0
 10
1118.651430
 20
925.350504
 30
0.0
 10
1120.065054
 20
917.371712
 30
0.0
 10
1124.113812
 20
910.359161
 30
0.0
 10
1130.316605
 20
905.145514
 30
0.0
 10
1137.934088
 20
902.380369
 30
0.0
 10
1146.028434
 20
902.380369
 30
0.0
 10
1153.656602
 20
905.145514
 30
0.0
 10
1159.816737
 20
910.359161
 30
0.0
 10
1164.023993
 20
917.371712
 30
0.0
 10
1164.566279
 20
922.678158
 30
0.0
 10
1164.839377
 20
925.350504
 30
0.0
 11
1164.839377
 21
925.350504
 31
0.0
 11
1163.447969
 21
933.204563
 31
0.0
 11
1159.516868
 21
940.013430
 31
0.0
 11
1153.410757
 21
945.145455
 31
0.0
 11
1145.913238
 21
947.867490
 31
0.0
 11
1138.051036
 21
947.867490
 31
0.0
 11
1130.553517
 21
945.145455
 31
0.0
 11
1124.447406
 21
940.013430
 31
0.0
 11
1120.516305
 21
933.204563
 31
0.0
 11
1119.124897
 21
925.350504
 31
0.0
 11
1120.516305
 21
917.496445
 31
0.0
 11
1124.447406
 21
910.687578
 31
0.0
 11
1130.553517
 21
905.555553
 31
0.0
 11
1138.051036
 21
902.833518
 31
0.0
 11
1145.913238
 21
902.833518
 31
0.0
 11
1153.410757
 21
905.555553
 31
0.0
 11
1159.516868
 21
910.687578
 31
0.0
 11
1163.447969
 21
917.496445
 31
0.0
 11
1164.839377
 21
925.350504
 31
0.0
  0
LWPOLYLINE
  5
1a5
100
AcDbEntity
  8
DT500
 62
5
100
AcDbPolyline
 90
2
 70
1
 10
1164.839377
 20
925.350504
 30
0.0
 10
1164.839377
 20
925.350504
 30
0.0
  0
SPLINE
  5
1a6
100
AcDbEntity
  8
DT500
 62
5
100
AcDbSpline
 70
0
 71
3
 72
25
 73
21
 74
19
 40
0.000000
 40
0.000000
 40
0.000000
 40
0.000000
 40
7.976357
 40
15.838559
 40
23.814915
 40
31.791272
 40
39.653474
 40
47.629831
 40
55.606187
 40
63.468390
 40
71.444746
 40
79.421103
 40
87.283305
 40
95.259662
 40
103.236018
 40
111.098221
 40
119.074577
 40
127.050934
 40
134.913136
 40
142.889493
 40
142.889493
 40
142.889493
 40
142.889493
 10
1081.844017
 20
994.457464
 30
0.0
 10
1081.570919
 20
997.129810
 30
0.0
 10
1081.028633
 20
1002.436256
 30
0.0
 10
1076.821377
 20
1009.448807
 30
0.0
 10
1070.661242
 20
1014.662454
 30
0.0
 10
1063.033074
 20
1017.427599
 30
0.0
 10
1054.938728
 20
1017.427599
 30
0.0
 10
1047.321245
 20
1014.662454
 30
0.0
 10
1041.118452
 20
1009.448807
 30
0.0
 10
1037.069694
 20
1002.436256
 30
0.0
 10
1035.656070
 20
994.457464
 30
0.0
 10
1037.069694
 20
986.478672
 30
0.0
 10
1041.118452
 20
979.466121
 30
0.0
 10
1047.321245
 20
974.252474
 30
0.0
 10
1054.938728
 20
971.487329
 30
0.0
 10
1063.033074
 20
971.487329
 30
0.0
 10
1070.661242
 20
974.252474
 30
0.0
 10
1076.821377
 20
979.466121
 30
0.0
 10
1081.028633
 20
986.478672
 30
0.0
 10
1081.570919
 20
991.785118
 30
0.0
 10
1081.844017
 20
994.457464
 30
0.0
 11
1081.844017
 21
994.457464
 31
0.0
 11
1080.452609
 21
1002.311523
 31
0.0
 11
1076.521508
 21
1009.120390
 31
0.0
 11
1070.415397
 21
1014.252415
 31
0.0
 11
1062.917878
 21
1016.974450
 31
0.0
 11
1055.055676
 21
1016.974450
 31
0.0
 11
1047.558157
 21
1014.252415
 31
0.0
 11
1041.452046
 21
1009.120390
 31
0.0
 11
1037.520945
 21
1002.311523
 31
0.0
 11
1036.129537
 21
994.457464
 31
0.0
 11
1037.520945
 21
986.603405
 31
0.0
 11
1041.452046
 21
979.794538
 31
0.0
 11
1047.558157
 21
974.662513
 31
0.0
 11
1055.055676
 21
971.940478
 31
0.0
 11
1062.917878
 21
971.940478
 31
0.0
 11
1070.415397
 21
974.662513
 31
0.0
 11
1076.521508
 21
979.794538
 31
0.0
 11
1080.452609
 21
986.603405
 31
0.0
 11
1081.844017
 21
994.457464
 31
0.0
  0
SPLINE
  5
1a7
100
AcDbEntity
  8
DT500
 62
5
100
AcDbSpline
 70
0
 71
3
 72
16
 73
12
 74
10
 40
0.000000
 40
0.000000
 40
0.000000
 40
0.000000
 40
7.982201
 40
15.850008
 40
23.832209
 40
31.814411
 40
39.682217
 40
47.664419
 40
55.646620
 40
63.514427
 40
71.496628
 40
71.496628
 40
71.496628
 40
71.496628
 10
910.122897
 20
1008.702184
 30
0.0
 10
909.852479
 20
1011.376822
 30
0.0
 10
909.315520
 20
1016.687766
 30
0.0
 10
905.110313
 20
1023.708906
 30
0.0
 10
898.948453
 20
1028.929641
 30
0.0
 10
891.314384
 20
1031.698831
 30
0.0
 10
883.216986
 20
1031.698831
 30
0.0
 10
875.582916
 20
1028.929641
 30
0.0
 10
869.421057
 20
1023.708906
 30
0.0
 10
865.215850
 20
1016.687766
 30
0.0
 10
864.678890
 20
1011.376822
 30
0.0
 10
864.408473
 20
1008.702184
 30
0.0
 11
910.122897
 21
1008.702184
 31
0.0
 11
908.738514
 21
1016.563420
 31
0.0
 11
904.809851
 21
1023.380162
 31
0.0
 11
898.701907
 21
1028.519089
 31
0.0
 11
891.199588
 21
1031.245029
 31
0.0
 11
883.331782
 21
1031.245029
 31
0.0
 11
875.829463
 21
1028.519089
 31
0.0
 11
869.721519
 21
1023.380162
 31
0.0
 11
865.792855
 21
1016.563420
 31
0.0
 11
864.408473
 21
1008.702184
 31
0.0
  0
LWPOLYLINE
  5
1a8
100
AcDbEntity
  8
DT500
 62
5
100
AcDbPolyline
 90
2
 70
1
 10
1081.844017
 20
994.457464
 30
0.0
 10
1081.844017
 20
994.457464
 30
0.0
  0
SPLINE
  5
1a9
100
AcDbEntity
  8
DT500
 62
5
100
AcDbSpline
 70
0
 71
3
 72
16
 73
12
 74
10
 40
0.000000
 40
0.000000
 40
0.000000
 40
0.000000
 40
7.982201
 40
15.850008
 40
23.832209
 40
31.814411
 40
39.682217
 40
47.664419
 40
55.646620
 40
63.514427
 40
71.496628
 40
71.496628
 40
71.496628
 40
71.496628
 10
864.408473
 20
1008.702184
 30
0.0
 10
864.678890
 20
1006.027546
 30
0.0
 10
865.215850
 20
1000.716602
 30
0.0
 10
869.421057
 20
993.695462
 30
0.0
 10
875.582916
 20
988.474727
 30
0.0
 10
883.216986
 20
985.705537
 30
0.0
 10
891.314384
 20
985.705537
 30
0.0
 10
898.948453
 20
988.474727
 30
0.0
 10
905.110313
 20
993.695462
 30
0.0
 10
909.315520
 20
1000.716602
 30
0.0
 10
909.852479
 20
1006.027546
 30
0.0
 10
910.122897
 20
1008.702184
 30
0.0
 11
864.408473
 21
1008.702184
 31
0.0
 11
865.792855
 21
1000.840948
 31
0.0
 11
869.721519
 21
994.024206
 31
0.0
 11
875.829463
 21
988.885279
 31
0.0
 11
883.331782
 21
986.159339
 31
0.0
 11
891.199588
 21
986.159339
 31
0.0
 11
898.701907
 21
988.885279
 31
0.0
 11
904.809851
 21
994.024206
 31
0.0
 11
908.738514
 21
1000.840948
 31
0.0
 11
910.122897
 21
1008.702184
 31
0.0
  0
SPLINE
  5
1aa
100
AcDbEntity
  8
DT500
 62
5
100
AcDbSpline
 70
0
 71
3
 72
16
 73
12
 74
10
 40
0.000000
 40
0.000000
 40
0.000000
 40
0.000000
 40
7.979036
 40
15.843807
 40
23.822843
 40
31.801879
 40
39.666651
 40
47.645687
 40
55.624723
 40
63.489494
 40
71.468530
 40
71.468530
 40
71.468530
 40
71.468530
 10
824.262921
 20
1008.702184
 30
0.0
 10
823.991055
 20
1011.375581
 30
0.0
 10
823.451216
 20
1016.684090
 30
0.0
 10
819.244869
 20
1023.700580
 30
0.0
 10
813.084063
 20
1028.917477
 30
0.0
 10
805.452743
 20
1031.684477
 30
0.0
 10
797.358650
 20
1031.684477
 30
0.0
 10
789.727331
 20
1028.917477
 30
0.0
 10
783.566525
 20
1023.700580
 30
0.0
 10
779.360178
 20
1016.684090
 30
0.0
 10
778.820339
 20
1011.375581
 30
0.0
 10
778.548473
 20
1008.702184
 30
0.0
 11
824.262921
 21
1008.702184
 31
0.0
 11
822.874735
 21
1016.559534
 31
0.0
 11
818.944752
 21
1023.372013
 31
0.0
 11
812.837802
 21
1028.507202
 31
0.0
 11
805.338082
 21
1031.231028
 31
0.0
 11
797.473311
 21
1031.231028
 31
0.0
 11
789.973592
 21
1028.507202
 31
0.0
 11
783.866641
 21
1023.372013
 31
0.0
 11
779.936658
 21
1016.559534
 31
0.0
 11
778.548473
 21
1008.702184
 31
0.0
  0
LWPOLYLINE
  5
1ab
100
AcDbEntity
  8
DT500
 62
5
100
AcDbPolyline
 90
2
 70
1
 10
910.122897
 20
1008.702184
 30
0.0
 10
910.122897
 20
1008.702184
 30
0.0
  0
SPLINE
  5
1ac
100
AcDbEntity
  8
DT500
 62
5
100
AcDbSpline
 70
0
 71
3
 72
16
 73
12
 74
10
 40
0.000000
 40
0.000000
 40
0.000000
 40
0.000000
 40
7.979036
 40
15.843807
 40
23.822843
 40
31.801879
 40
39.666651
 40
47.645687
 40
55.624723
 40
63.489494
 40
71.468530
 40
71.468530
 40
71.468530
 40
71.468530
 10
778.548473
 20
1008.702184
 30
0.0
 10
778.820339
 20
1006.028787
 30
0.0
 10
779.360178
 20
1000.720278
 30
0.0
 10
783.566525
 20
993.703788
 30
0.0
 10
789.727331
 20
988.486891
 30
0.0
 10
797.358650
 20
985.719891
 30
0.0
 10
805.452743
 20
985.719891
 30
0.0
 10
813.084063
 20
988.486891
 30
0.0
 10
819.244869
 20
993.703788
 30
0.0
 10
823.451216
 20
1000.720278
 30
0.0
 10
823.991055
 20
1006.028787
 30
0.0
 10
824.262921
 20
1008.702184
 30
0.0
 11
778.548473
 21
1008.702184
 31
0.0
 11
779.936658
 21
1000.844834
 31
0.0
 11
783.866641
 21
994.032355
 31
0.0
 11
789.973592
 21
988.897166
 31
0.0
 11
797.473311
 21
986.173340
 31
0.0
 11
805.338082
 21
986.173340
 31
0.0
 11
812.837802
 21
988.897166
 31
0.0
 11
818.944752
 21
994.032355
 31
0.0
 11
822.874735
 21
1000.844834
 31
0.0
 11
824.262921
 21
1008.702184
 31
0.0
  0
SPLINE
  5
1ad
100
AcDbEntity
  8
DT500
 62
5
100
AcDbSpline
 70
0
 71
3
 72
16
 73
12
 74
10
 40
0.000000
 40
0.000000
 40
0.000000
 40
0.000000
 40
7.979036
 40
15.843807
 40
23.822843
 40
31.801879
 40
39.666651
 40
47.645687
 40
55.624723
 40
63.489494
 40
71.468530
 40
71.468530
 40
71.468530
 40
71.468530
 10
738.402921
 20
1008.702184
 30
0.0
 10
738.131055
 20
1011.375581
 30
0.0
 10
737.591216
 20
1016.684090
 30
0.0
 10
733.384869
 20
1023.700580
 30
0.0
 10
727.224063
 20
1028.917477
 30
0.0
 10
719.592743
 20
1031.684477
 30
0.0
 10
711.498650
 20
1031.684477
 30
0.0
 10
703.867331
 20
1028.917477
 30
0.0
 10
697.706525
 20
1023.700580
 30
0.0
 10
693.500178
 20
1016.684090
 30
0.0
 10
692.960339
 20
1011.375581
 30
0.0
 10
692.688473
 20
1008.702184
 30
0.0
 11
738.402921
 21
1008.702184
 31
0.0
 11
737.014735
 21
1016.559534
 31
0.0
 11
733.084752
 21
1023.372013
 31
0.0
 11
726.977802
 21
1028.507202
 31
0.0
 11
719.478082
 21
1031.231028
 31
0.0
 11
711.613311
 21
1031.231028
 31
0.0
 11
704.113592
 21
1028.507202
 31
0.0
 11
698.006641
 21
1023.372013
 31
0.0
 11
694.076658
 21
1016.559534
 31
0.0
 11
692.688473
 21
1008.702184
 31
0.0
  0
LWPOLYLINE
  5
1ae
100
AcDbEntity
  8
DT500
 62
5
100
AcDbPolyline
 90
2
 70
1
 10
824.262921
 20
1008.702184
 30
0.0
 10
824.262921
 20
1008.702184
 30
0.0
  0
SPLINE
  5
1af
100
AcDbEntity
  8
DT500
 62
5
100
AcDbSpline
 70
0
 71
3
 72
16
 73
12
 74
10
 40
0.000000
 40
0.000000
 40
0.000000
 40
0.000000
 40
7.979036
 40
15.843807
 40
23.822843
 40
31.801879
 40
39.666651
 40
47.645687
 40
55.624723
 40
63.489494
 40
71.468530
 40
71.468530
 40
71.468530
 40
71.468530
 10
692.688473
 20
1008.702184
 30
0.0
 10
692.960339
 20
1006.028787
 30
0.0
 10
693.500178
 20
1000.720278
 30
0.0
 10
697.706525
 20
993.703788
 30
0.0
 10
703.867331
 20
988.486891
 30
0.0
 10
711.498650
 20
985.719891
 30
0.0
 10
719.592743
 20
985.719891
 30
0.0
 10
727.224063
 20
988.486891
 30
0.0
 10
733.384869
 20
993.703788
 30
0.0
 10
737.591216
 20
1000.720278
 30
0.0
 10
738.131055
 20
1006.028787
 30
0.0
 10
738.402921
 20
1008.702184
 30
0.0
 11
692.688473
 21
1008.702184
 31
0.0
 11
694.076658
 21
1000.844834
 31
0.0
 11
698.006641
 21
994.032355
 31
0.0
 11
704.113592
 21
988.897166
 31
0.0
 11
711.613311
 21
986.173340
 31
0.0
 11
719.478082
 21
986.173340
 31
0.0
 11
726.977802
 21
988.897166
 31
0.0
 11
733.084752
 21
994.032355
 31
0.0
 11
737.014735
 21
1000.844834
 31
0.0
 11
738.402921
 21
1008.702184
 31
0.0
  0
LWPOLYLINE
  5
1b0
100
AcDbEntity
  8
DT500
 62
5
100
AcDbPolyline
 90
2
 70
1
 10
738.402921
 20
1008.702184
 30
0.0
 10
738.402921
 20
1008.702184
 30
0.0
  0
SPLINE
  5
1b1
100
AcDbEntity
  8
DT500
 62
5
100
AcDbSpline
 70
0
 71
3
 72
25
 73
21
 74
19
 40
0.000000
 40
0.000000
 40
0.000000
 40
0.000000
 40
7.976353
 40
15.838551
 40
23.814904
 40
31.791256
 40
39.653455
 40
47.629808
 40
55.606160
 40
63.468359
 40
71.444711
 40
79.421064
 40
87.283263
 40
95.259615
 40
103.235968
 40
111.098166
 40
119.074519
 40
127.050872
 40
134.913070
 40
142.889423
 40
142.889423
 40
142.889423
 40
142.889423
 10
566.681841
 20
994.457464
 30
0.0
 10
566.408744
 20
997.129809
 30
0.0
 10
565.866458
 20
1002.436252
 30
0.0
 10
561.659204
 20
1009.448800
 30
0.0
 10
555.499072
 20
1014.662445
 30
0.0
 10
547.870908
 20
1017.427589
 30
0.0
 10
539.776566
 20
1017.427589
 30
0.0
 10
532.159087
 20
1014.662445
 30
0.0
 10
525.956296
 20
1009.448800
 30
0.0
 10
521.907541
 20
1002.436252
 30
0.0
 10
520.493919
 20
994.457464
 30
0.0
 10
521.907541
 20
986.478676
 30
0.0
 10
525.956296
 20
979.466128
 30
0.0
 10
532.159087
 20
974.252483
 30
0.0
 10
539.776566
 20
971.487339
 30
0.0
 10
547.870908
 20
971.487339
 30
0.0
 10
555.499072
 20
974.252483
 30
0.0
 10
561.659204
 20
979.466128
 30
0.0
 10
565.866458
 20
986.478676
 30
0.0
 10
566.408744
 20
991.785119
 30
0.0
 10
566.681841
 20
994.457464
 30
0.0
 11
566.681841
 21
994.457464
 31
0.0
 11
565.290434
 21
1002.311520
 31
0.0
 11
561.359335
 21
1009.120383
 31
0.0
 11
555.253227
 21
1014.252405
 31
0.0
 11
547.755712
 21
1016.974439
 31
0.0
 11
539.893514
 21
1016.974439
 31
0.0
 11
532.395998
 21
1014.252405
 31
0.0
 11
526.289891
 21
1009.120383
 31
0.0
 11
522.358792
 21
1002.311520
 31
0.0
 11
520.967385
 21
994.457464
 31
0.0
 11
522.358792
 21
986.603408
 31
0.0
 11
526.289891
 21
979.794545
 31
0.0
 11
532.395998
 21
974.662523
 31
0.0
 11
539.893514
 21
971.940489
 31
0.0
 11
547.755712
 21
971.940489
 31
0.0
 11
555.253227
 21
974.662523
 31
0.0
 11
561.359335
 21
979.794545
 31
0.0
 11
565.290434
 21
986.603408
 31
0.0
 11
566.681841
 21
994.457464
 31
0.0
  0
LWPOLYLINE
  5
1b2
100
AcDbEntity
  8
DT500
 62
5
100
AcDbPolyline
 90
2
 70
1
 10
566.681841
 20
994.457464
 30
0.0
 10
566.681841
 20
994.457464
 30
0.0
  0
SPLINE
  5
1b3
100
AcDbEntity
  8
DT500
 62
5
100
AcDbSpline
 70
0
 71
3
 72
25
 73
21
 74
19
 40
0.000000
 40
0.000000
 40
0.000000
 40
0.000000
 40
7.976352
 40
15.838551
 40
23.814903
 40
31.791255
 40
39.653454
 40
47.629806
 40
55.606158
 40
63.468356
 40
71.444709
 40
79.421061
 40
87.283260
 40
95.259612
 40
103.235965
 40
111.098163
 40
119.074516
 40
127.050868
 40
134.913067
 40
142.889419
 40
142.889419
 40
142.889419
 40
142.889419
 10
483.686481
 20
925.350504
 30
0.0
 10
483.413384
 20
928.022849
 30
0.0
 10
482.871098
 20
933.329292
 30
0.0
 10
478.663844
 20
940.341839
 30
0.0
 10
472.503711
 20
945.555484
 30
0.0
 10
464.875548
 20
948.320627
 30
0.0
 10
456.781207
 20
948.320627
 30
0.0
 10
449.163727
 20
945.555484
 30
0.0
 10
442.960937
 20
940.341839
 30
0.0
 10
438.912181
 20
933.329292
 30
0.0
 10
437.498559
 20
925.350504
 30
0.0
 10
438.912181
 20
917.371716
 30
0.0
 10
442.960937
 20
910.359168
 30
0.0
 10
449.163727
 20
905.145523
 30
0.0
 10
456.781207
 20
902.380380
 30
0.0
 10
464.875548
 20
902.380380
 30
0.0
 10
472.503712
 20
905.145523
 30
0.0
 10
478.663844
 20
910.359168
 30
0.0
 10
482.871098
 20
917.371716
 30
0.0
 10
483.413384
 20
922.678159
 30
0.0
 10
483.686481
 20
925.350504
 30
0.0
 11
483.686481
 21
925.350504
 31
0.0
 11
482.295074
 21
933.204559
 31
0.0
 11
478.363975
 21
940.013423
 31
0.0
 11
472.257867
 21
945.145444
 31
0.0
 11
464.760352
 21
947.867478
 31
0.0
 11
456.898154
 21
947.867478
 31
0.0
 11
449.400639
 21
945.145444
 31
0.0
 11
443.294531
 21
940.013423
 31
0.0
 11
439.363432
 21
933.204559
 31
0.0
 11
437.972025
 21
925.350504
 31
0.0
 11
439.363432
 21
917.496449
 31
0.0
 11
443.294531
 21
910.687585
 31
0.0
 11
449.400639
 21
905.555563
 31
0.0
 11
456.898154
 21
902.833529
 31
0.0
 11
464.760352
 21
902.833529
 31
0.0
 11
472.257867
 21
905.555563
 31
0.0
 11
478.363975
 21
910.687585
 31
0.0
 11
482.295074
 21
917.496449
 31
0.0
 11
483.686481
 21
925.350504
 31
0.0
  0
LWPOLYLINE
  5
1b4
100
AcDbEntity
  8
DT500
 62
5
100
AcDbPolyline
 90
2
 70
1
 10
483.686481
 20
925.350504
 30
0.0
 10
483.686481
 20
925.350504
 30
0.0
  0
SPLINE
  5
1b5
100
AcDbEntity
  8
DT500
 62
5
100
AcDbSpline
 70
0
 71
3
 72
25
 73
21
 74
19
 40
0.000000
 40
0.000000
 40
0.000000
 40
0.000000
 40
7.976352
 40
15.838551
 40
23.814903
 40
31.791255
 40
39.653454
 40
47.629806
 40
55.606158
 40
63.468356
 40
71.444709
 40
79.421061
 40
87.283259
 40
95.259612
 40
103.235964
 40
111.098162
 40
119.074515
 40
127.050867
 40
134.913065
 40
142.889418
 40
142.889418
 40
142.889418
 40
142.889418
 10
400.691129
 20
856.243544
 30
0.0
 10
400.418032
 20
858.915889
 30
0.0
 10
399.875746
 20
864.222332
 30
0.0
 10
395.668492
 20
871.234879
 30
0.0
 10
389.508359
 20
876.448524
 30
0.0
 10
381.880196
 20
879.213667
 30
0.0
 10
373.785855
 20
879.213667
 30
0.0
 10
366.168375
 20
876.448524
 30
0.0
 10
359.965585
 20
871.234879
 30
0.0
 10
355.916829
 20
864.222332
 30
0.0
 10
354.503207
 20
856.243544
 30
0.0
 10
355.916829
 20
848.264756
 30
0.0
 10
359.965585
 20
841.252209
 30
0.0
 10
366.168375
 20
836.038564
 30
0.0
 10
373.785855
 20
833.273421
 30
0.0
 10
381.880196
 20
833.273421
 30
0.0
 10
389.508359
 20
836.038564
 30
0.0
 10
395.668492
 20
841.252209
 30
0.0
 10
399.875746
 20
848.264756
 30
0.0
 10
400.418032
 20
853.571199
 30
0.0
 10
400.691129
 20
856.243544
 30
0.0
 11
400.691129
 21
856.243544
 31
0.0
 11
399.299722
 21
864.097599
 31
0.0
 11
395.368623
 21
870.906463
 31
0.0
 11
389.262515
 21
876.038484
 31
0.0
 11
381.765000
 21
878.760518
 31
0.0
 11
373.902802
 21
878.760518
 31
0.0
 11
366.405287
 21
876.038484
 31
0.0
 11
360.299179
 21
870.906463
 31
0.0
 11
356.368080
 21
864.097599
 31
0.0
 11
354.976673
 21
856.243544
 31
0.0
 11
356.368080
 21
848.389489
 31
0.0
 11
360.299179
 21
841.580625
 31
0.0
 11
366.405287
 21
836.448604
 31
0.0
 11
373.902802
 21
833.726570
 31
0.0
 11
381.765000
 21
833.726570
 31
0.0
 11
389.262515
 21
836.448604
 31
0.0
 11
395.368623
 21
841.580625
 31
0.0
 11
399.299722
 21
848.389489
 31
0.0
 11
400.691129
 21
856.243544
 31
0.0
  0
LWPOLYLINE
  5
1b6
100
AcDbEntity
  8
DT500
 62
5
100
AcDbPolyline
 90
2
 70
1
 10
400.691129
 20
856.243544
 30
0.0
 10
400.691129
 20
856.243544
 30
0.0
  0
ENDSEC
  0
SECTION
  2
OBJECTS
  0
DICTIONARY
  5
C
330
0
100
AcDbDictionary
  3
ACAD_GROUP
350
D
  3
ACAD_MLINESTYLE
350
17
  0
DICTIONARY
  5
D
330
C
100
AcDbDictionary
  0
DICTIONARY
  5
1A
330
C
100
AcDbDictionary
  0
DICTIONARY
  5
17
330
C
100
AcDbDictionary
  3
STANDARD
350
18
  0
DICTIONARY
  5
19
330
C
100
AcDbDictionary
  0
ENDSEC
  0
EOF
