<?xml version="1.0" encoding="UTF-8" standalone="no"?>
<svg
   xmlns:dc="http://purl.org/dc/elements/1.1/"
   xmlns:cc="http://creativecommons.org/ns#"
   xmlns:rdf="http://www.w3.org/1999/02/22-rdf-syntax-ns#"
   xmlns:svg="http://www.w3.org/2000/svg"
   xmlns="http://www.w3.org/2000/svg"
   xmlns:sodipodi="http://sodipodi.sourceforge.net/DTD/sodipodi-0.dtd"
   xmlns:inkscape="http://www.inkscape.org/namespaces/inkscape"
   width="22.261269in"
   height="17.015387in"
   id="svg4155"
   version="1.1"
   inkscape:version="0.91 r13725"
   sodipodi:docname="MissAdventure_playfield_upper_current.svg">
  <metadata
     id="metadata4405">
    <rdf:RDF>
      <cc:Work
         rdf:about="">
        <dc:format>image/svg+xml</dc:format>
        <dc:type
           rdf:resource="http://purl.org/dc/dcmitype/StillImage" />
        <dc:title></dc:title>
      </cc:Work>
    </rdf:RDF>
  </metadata>
  <sodipodi:namedview
     pagecolor="#ffffff"
     bordercolor="#666666"
     borderopacity="1"
     objecttolerance="10"
     gridtolerance="10"
     guidetolerance="10"
     inkscape:pageopacity="0"
     inkscape:pageshadow="2"
     inkscape:window-width="1398"
     inkscape:window-height="812"
     id="namedview4403"
     showgrid="false"
     units="in"
     fit-margin-top="1"
     fit-margin-left="1"
     fit-margin-right="1"
     fit-margin-bottom="1"
     inkscape:zoom="0.25479724"
     inkscape:cx="802.52032"
     inkscape:cy="743.49317"
     inkscape:window-x="20"
     inkscape:window-y="16"
     inkscape:window-maximized="0"
     inkscape:current-layer="g4401" />
  <desc
     id="desc4157">/Users/briancox/Dropbox (TML Team)/BriansPinballArtwork/Playfields/Playfield_current_SVG_DXF/MissAdventure_playfield_upper_current.dxf - scale = 25.400000, origin = (0.000000, 0.000000), auto = False</desc>
  <defs
     id="defs4159">
    <marker
       id="DistanceX"
       orient="auto"
       refX="0"
       refY="0"
       style="overflow:visible">
      <path
         d="M 3,-3 -3,3 M 0,-5 0,5"
         style="stroke:#000000;stroke-width:0.5"
         id="path4162"
         inkscape:connector-curvature="0" />
    </marker>
    <pattern
       height="8"
       id="Hatch"
       patternUnits="userSpaceOnUse"
       width="8"
       x="0"
       y="0">
      <path
         d="M8 4 l-4,4"
         linecap="square"
         stroke="#000000"
         stroke-width="0.25"
         id="path4165" />
      <path
         d="M6 2 l-4,4"
         linecap="square"
         stroke="#000000"
         stroke-width="0.25"
         id="path4167" />
      <path
         d="M4 0 l-4,4"
         linecap="square"
         stroke="#000000"
         stroke-width="0.25"
         id="path4169" />
    </pattern>
    <symbol
       id="*MODEL_SPACE" />
    <symbol
       id="*PAPER_SPACE" />
  </defs>
  <g
     inkscape:groupmode="layer"
     inkscape:label="0"
     id="g4173"
     transform="translate(90.507121,2975.6449)" />
  <g
     inkscape:groupmode="layer"
     inkscape:label="DT250"
     id="g4175"
     transform="translate(90.507121,2975.6449)">
    <path
       d="m 1474.9264,-2514.5645 a 34.21165,34.21165 0 1 0 -68.4233,0 34.21165,34.21165 0 1 0 68.4233,0 z"
       style="fill:none;stroke:#00ff00;stroke-linecap:round"
       id="path4177"
       inkscape:connector-curvature="0" />
    <path
       d="m 1371.1822,-2600.9482 a 34.21165,34.21165 0 1 0 -68.4233,0 34.21165,34.21165 0 1 0 68.4233,0 z"
       style="fill:none;stroke:#00ff00;stroke-linecap:round"
       id="path4179"
       inkscape:connector-curvature="0" />
    <path
       d="m 1267.438,-2687.3319 a 34.21165,34.21165 0 1 0 -68.4233,0 34.21165,34.21165 0 1 0 68.4233,0 z"
       style="fill:none;stroke:#00ff00;stroke-linecap:round"
       id="path4181"
       inkscape:connector-curvature="0" />
    <path
       d="m 1052.7866,-2705.1378 a 34.211607,34.211607 0 1 0 -68.42321,0 34.211607,34.211607 0 1 0 68.42321,0 z"
       style="fill:none;stroke:#00ff00;stroke-linecap:round"
       id="path4183"
       inkscape:connector-curvature="0" />
    <path
       d="m 945.46161,-2705.1378 a 34.21161,34.21161 0 1 0 -68.42322,0 34.21161,34.21161 0 1 0 68.42322,0 z"
       style="fill:none;stroke:#00ff00;stroke-linecap:round"
       id="path4185"
       inkscape:connector-curvature="0" />
    <path
       d="m 838.13661,-2705.1378 a 34.21161,34.21161 0 1 0 -68.42322,0 34.21161,34.21161 0 1 0 68.42322,0 z"
       style="fill:none;stroke:#00ff00;stroke-linecap:round"
       id="path4187"
       inkscape:connector-curvature="0" />
    <path
       d="m 623.48525,-2687.3319 a 34.211607,34.211607 0 1 0 -68.42321,0 34.211607,34.211607 0 1 0 68.42321,0 z"
       style="fill:none;stroke:#00ff00;stroke-linecap:round"
       id="path4189"
       inkscape:connector-curvature="0" />
    <path
       d="m 519.74105,-2600.9482 a 34.211607,34.211607 0 1 0 -68.42321,0 34.211607,34.211607 0 1 0 68.42321,0 z"
       style="fill:none;stroke:#00ff00;stroke-linecap:round"
       id="path4191"
       inkscape:connector-curvature="0" />
    <path
       d="m 415.99686,-2514.5645 a 34.21161,34.21161 0 1 0 -68.42322,0 34.21161,34.21161 0 1 0 68.42322,0 z"
       style="fill:none;stroke:#00ff00;stroke-linecap:round"
       id="path4193"
       inkscape:connector-curvature="0" />
  </g>
  <g
     inkscape:groupmode="layer"
     inkscape:label="DT500"
     id="g4195"
     transform="translate(90.507121,2975.6449)">
    <path
       d="m 1297.9967,-2809.0727 a 22.500012,22.500012 0 0 0 -28.7946,34.5814"
       style="fill:none;stroke:#0000ff;stroke-linecap:round"
       id="path4197"
       inkscape:connector-curvature="0" />
    <path
       d="m 1312.4289,-2738.4981 -43.2268,-35.9932"
       style="fill:none;stroke:#0000ff;stroke-linecap:round"
       id="path4199"
       inkscape:connector-curvature="0" />
    <path
       d="m 1297.9967,-2809.0727 43.2267,35.9932"
       style="fill:none;stroke:#0000ff;stroke-linecap:round"
       id="path4201"
       inkscape:connector-curvature="0" />
    <path
       d="m 1312.4289,-2738.4981 a 22.5,22.5 0 0 0 28.7945,-34.5814"
       style="fill:none;stroke:#0000ff;stroke-linecap:round"
       id="path4203"
       inkscape:connector-curvature="0" />
    <path
       d="m 481.27658,-2773.0795 a 22.5,22.5 0 0 0 28.79456,34.5814"
       style="fill:none;stroke:#0000ff;stroke-linecap:round"
       id="path4205"
       inkscape:connector-curvature="0" />
    <path
       d="m 553.29789,-2774.4913 -43.22675,35.9932"
       style="fill:none;stroke:#0000ff;stroke-linecap:round"
       id="path4207"
       inkscape:connector-curvature="0" />
    <path
       d="m 1287.3968,-1714.4524 a 4.005,4.005 0 1 0 -8.01,0 4.005,4.005 0 1 0 8.01,0 z"
       style="fill:none;stroke:#0000ff;stroke-linecap:round"
       id="path4209"
       inkscape:connector-curvature="0" />
    <path
       d="m 1243.9688,-1661.5128 a 22.5,22.5 0 1 0 -45,0 22.5,22.5 0 1 0 45,0 z"
       style="fill:none;stroke:#0000ff;stroke-linecap:round"
       id="path4211"
       inkscape:connector-curvature="0" />
    <path
       d="m 323.6845,-1937.8413 a 22.5,22.5 0 1 0 -45,0 22.5,22.5 0 1 0 45,0 z"
       style="fill:none;stroke:#0000ff;stroke-linecap:round"
       id="path4213"
       inkscape:connector-curvature="0" />
    <path
       d="m 260.09,-1830.6462 a 4.005,4.005 0 1 0 -8.01,0 4.005,4.005 0 1 0 8.01,0 z"
       style="fill:none;stroke:#0000ff;stroke-linecap:round"
       id="path4215"
       inkscape:connector-curvature="0" />
    <path
       d="m 274.4616,-2039.6688 a 4.005,4.005 0 1 0 -8.01,0 4.005,4.005 0 1 0 8.01,0 z"
       style="fill:none;stroke:#0000ff;stroke-linecap:round"
       id="path4217"
       inkscape:connector-curvature="0" />
    <path
       d="m 1804.021,-2457.1378 a 4.005,4.005 0 1 0 -8.01,0 4.005,4.005 0 1 0 8.01,0 z"
       style="fill:none;stroke:#0000ff;stroke-linecap:round"
       id="path4219"
       inkscape:connector-curvature="0" />
    <path
       d="m 107.48143,-2373.9643 a 5.6250005,5.6250005 0 1 0 -11.250001,0 5.6250005,5.6250005 0 1 0 11.250001,0 z"
       style="fill:none;stroke:#0000ff;stroke-linecap:round"
       id="path4221"
       inkscape:connector-curvature="0" />
    <path
       d="m 233.13718,-2592.4076 a 4.005,4.005 0 1 0 -8.01,0 4.005,4.005 0 1 0 8.01,0 z"
       style="fill:none;stroke:#0000ff;stroke-linecap:round"
       id="path4223"
       inkscape:connector-curvature="0" />
    <path
       d="m 1401.7409,-2722.689 a 22.500012,22.500012 0 0 0 -28.7946,34.5814"
       style="fill:none;stroke:#0000ff;stroke-linecap:round"
       id="path4225"
       inkscape:connector-curvature="0" />
    <path
       d="m 1416.1731,-2652.1144 -43.2268,-35.9932"
       style="fill:none;stroke:#0000ff;stroke-linecap:round"
       id="path4227"
       inkscape:connector-curvature="0" />
    <path
       d="m 1401.7409,-2722.689 43.2267,35.9932"
       style="fill:none;stroke:#0000ff;stroke-linecap:round"
       id="path4229"
       inkscape:connector-curvature="0" />
    <path
       d="m 215.56285,-1789.1381 577.68745,254.375"
       style="fill:none;stroke:#0000ff;stroke-linecap:round"
       id="path4231"
       inkscape:connector-curvature="0" />
    <path
       d="m 1158.75,-2851.5586 a 4.005,4.005 0 1 0 -8.01,0 4.005,4.005 0 1 0 8.01,0 z"
       style="fill:none;stroke:#0000ff;stroke-linecap:round"
       id="path4233"
       inkscape:connector-curvature="0" />
    <path
       d="m 1286.1402,-2851.5586 a 4.005,4.005 0 1 0 -8.01,0 4.005,4.005 0 1 0 8.01,0 z"
       style="fill:none;stroke:#0000ff;stroke-linecap:round"
       id="path4235"
       inkscape:connector-curvature="0" />
    <path
       d="m 1416.1731,-2652.1144 a 22.5,22.5 0 0 0 28.7945,-34.5814"
       style="fill:none;stroke:#0000ff;stroke-linecap:round"
       id="path4237"
       inkscape:connector-curvature="0" />
    <path
       d="m 1505.4851,-2636.3053 a 22.500012,22.500012 0 0 0 -28.7946,34.5814"
       style="fill:none;stroke:#0000ff;stroke-linecap:round"
       id="path4239"
       inkscape:connector-curvature="0" />
    <path
       d="m 1519.9172,-2565.7307 -43.2267,-35.9932"
       style="fill:none;stroke:#0000ff;stroke-linecap:round"
       id="path4241"
       inkscape:connector-curvature="0" />
    <path
       d="m 1505.4851,-2636.3053 43.2267,35.9932"
       style="fill:none;stroke:#0000ff;stroke-linecap:round"
       id="path4243"
       inkscape:connector-curvature="0" />
    <path
       d="m 1519.9172,-2565.7307 a 22.500012,22.500012 0 0 0 28.7946,-34.5814"
       style="fill:none;stroke:#0000ff;stroke-linecap:round"
       id="path4245"
       inkscape:connector-curvature="0" />
    <path
       d="m 377.53238,-2686.6958 a 22.500003,22.500003 0 0 0 28.79457,34.5814"
       style="fill:none;stroke:#0000ff;stroke-linecap:round"
       id="path4247"
       inkscape:connector-curvature="0" />
    <path
       d="m 449.55369,-2688.1076 -43.22674,35.9932"
       style="fill:none;stroke:#0000ff;stroke-linecap:round"
       id="path4249"
       inkscape:connector-curvature="0" />
    <path
       d="m 377.53238,-2686.6958 43.22675,-35.9932"
       style="fill:none;stroke:#0000ff;stroke-linecap:round"
       id="path4251"
       inkscape:connector-curvature="0" />
    <path
       d="m 449.55369,-2688.1076 a 22.5,22.5 0 0 0 -28.79456,-34.5814"
       style="fill:none;stroke:#0000ff;stroke-linecap:round"
       id="path4253"
       inkscape:connector-curvature="0" />
    <path
       d="m 273.78819,-2600.3121 a 22.5,22.5 0 0 0 28.79456,34.5814"
       style="fill:none;stroke:#0000ff;stroke-linecap:round"
       id="path4255"
       inkscape:connector-curvature="0" />
    <path
       d="m 345.8095,-2601.7239 -43.22675,35.9932"
       style="fill:none;stroke:#0000ff;stroke-linecap:round"
       id="path4257"
       inkscape:connector-curvature="0" />
    <path
       d="m 273.78819,-2600.3121 43.22675,-35.9932"
       style="fill:none;stroke:#0000ff;stroke-linecap:round"
       id="path4259"
       inkscape:connector-curvature="0" />
    <path
       d="m 345.8095,-2601.7239 a 22.5,22.5 0 0 0 -28.79456,-34.5814"
       style="fill:none;stroke:#0000ff;stroke-linecap:round"
       id="path4261"
       inkscape:connector-curvature="0" />
    <path
       d="m 708.75,-2772.6378 405,0"
       style="fill:none;stroke:#0000ff;stroke-linecap:round"
       id="path4263"
       inkscape:connector-curvature="0" />
    <path
       d="m 753.75,-2885.1378 0,67.5"
       style="fill:none;stroke:#0000ff;stroke-linecap:round"
       id="path4265"
       inkscape:connector-curvature="0" />
    <path
       d="m 1068.75,-2885.1378 0,67.5"
       style="fill:none;stroke:#0000ff;stroke-linecap:round"
       id="path4267"
       inkscape:connector-curvature="0" />
    <path
       d="m 708.75,-2817.6378 45,0"
       style="fill:none;stroke:#0000ff;stroke-linecap:round"
       id="path4269"
       inkscape:connector-curvature="0" />
    <path
       d="m 1068.75,-2817.6378 45,0"
       style="fill:none;stroke:#0000ff;stroke-linecap:round"
       id="path4271"
       inkscape:connector-curvature="0" />
    <path
       d="m 1068.75,-2885.1378 753.75,0"
       style="fill:none;stroke:#0000ff;stroke-linecap:round"
       id="path4273"
       inkscape:connector-curvature="0" />
    <path
       d="m 1389.8844,-2765.175 a 4.005,4.005 0 1 0 -8.01,0 4.005,4.005 0 1 0 8.01,0 z"
       style="fill:none;stroke:#0000ff;stroke-linecap:round"
       id="path4275"
       inkscape:connector-curvature="0" />
    <path
       d="m 671.76,-2851.5586 a 4.005,4.005 0 1 0 -8.01,0 4.005,4.005 0 1 0 8.01,0 z"
       style="fill:none;stroke:#0000ff;stroke-linecap:round"
       id="path4277"
       inkscape:connector-curvature="0" />
    <path
       d="m 544.36977,-2851.5586 a 4.005,4.005 0 1 0 -8.01,0 4.005,4.005 0 1 0 8.01,0 z"
       style="fill:none;stroke:#0000ff;stroke-linecap:round"
       id="path4279"
       inkscape:connector-curvature="0" />
    <path
       d="m 481.27658,-2773.0795 43.22675,-35.9932"
       style="fill:none;stroke:#0000ff;stroke-linecap:round"
       id="path4281"
       inkscape:connector-curvature="0" />
    <path
       d="m 553.29789,-2774.4913 a 22.5,22.5 0 0 0 -28.79456,-34.5814"
       style="fill:none;stroke:#0000ff;stroke-linecap:round"
       id="path4283"
       inkscape:connector-curvature="0" />
    <path
       d="m 440.62557,-2765.175 a 4.005,4.005 0 1 0 -8.01,0 4.005,4.005 0 1 0 8.01,0 z"
       style="fill:none;stroke:#0000ff;stroke-linecap:round"
       id="path4285"
       inkscape:connector-curvature="0" />
    <path
       d="m 541.48439,-1709.336 a 4.005,4.005 0 1 0 -8.01,0 4.005,4.005 0 1 0 8.01,0 z"
       style="fill:none;stroke:#0000ff;stroke-linecap:round"
       id="path4287"
       inkscape:connector-curvature="0" />
    <path
       d="m 26.520975,-2187.1378 a 4.005,4.005 0 1 0 -8.01,0 4.005,4.005 0 1 0 8.01,0 z"
       style="fill:none;stroke:#0000ff;stroke-linecap:round"
       id="path4289"
       inkscape:connector-curvature="0" />
    <path
       d="m 26.520975,-1827.1378 a 4.005,4.005 0 1 0 -8.01,0 4.005,4.005 0 1 0 8.01,0 z"
       style="fill:none;stroke:#0000ff;stroke-linecap:round"
       id="path4291"
       inkscape:connector-curvature="0" />
    <path
       d="m 173.0484,-2763.5294 a 53.437502,53.437502 0 1 0 -106.875003,0 53.437502,53.437502 0 1 0 106.875003,0 z"
       style="fill:none;stroke:#0000ff;stroke-linecap:round"
       id="path4293"
       inkscape:connector-curvature="0" />
    <path
       d="m 1756.3266,-2763.5294 a 53.4375,53.4375 0 1 0 -106.875,0 53.4375,53.4375 0 1 0 106.875,0 z"
       style="fill:none;stroke:#0000ff;stroke-linecap:round"
       id="path4295"
       inkscape:connector-curvature="0" />
    <path
       d="m 1546.8183,-1939.7622 a 22.5,22.5 0 1 0 -45,0 22.5,22.5 0 1 0 45,0 z"
       style="fill:none;stroke:#0000ff;stroke-linecap:round"
       id="path4297"
       inkscape:connector-curvature="0" />
    <path
       d="m 1568.747,-1835.51 a 4.005,4.005 0 1 0 -8.01,0 4.005,4.005 0 1 0 8.01,0 z"
       style="fill:none;stroke:#0000ff;stroke-linecap:round"
       id="path4299"
       inkscape:connector-curvature="0" />
    <path
       d="m 1604.9062,-1790.076 217.5938,35.6254"
       style="fill:none;stroke:#0000ff;stroke-linecap:round"
       id="path4301"
       inkscape:connector-curvature="0" />
    <path
       d="m 1030.0007,-1534.7631 574.9055,-255.3752"
       style="fill:none;stroke:#0000ff;stroke-linecap:round"
       id="path4303"
       inkscape:connector-curvature="0" />
    <path
       d="m 1726.5088,-2374.4069 a 5.625,5.625 0 1 0 -11.25,0 5.625,5.625 0 1 0 11.25,0 z"
       style="fill:none;stroke:#0000ff;stroke-linecap:round"
       id="path4305"
       inkscape:connector-curvature="0" />
    <path
       d="m 1544.0392,-2737.3873 a 5.625,5.625 0 1 0 -11.25,0 5.625,5.625 0 1 0 11.25,0 z"
       style="fill:none;stroke:#0000ff;stroke-linecap:round"
       id="path4307"
       inkscape:connector-curvature="0" />
    <path
       d="m 1493.6286,-2678.7913 a 4.005,4.005 0 1 0 -8.01,0 4.005,4.005 0 1 0 8.01,0 z"
       style="fill:none;stroke:#0000ff;stroke-linecap:round"
       id="path4309"
       inkscape:connector-curvature="0" />
    <path
       d="m 1597.3728,-2592.4076 a 4.005,4.005 0 1 0 -8.01,0 4.005,4.005 0 1 0 8.01,0 z"
       style="fill:none;stroke:#0000ff;stroke-linecap:round"
       id="path4311"
       inkscape:connector-curvature="0" />
    <path
       d="m 708.75,-2817.6378 a 22.5,22.5 0 0 0 0,45"
       style="fill:none;stroke:#0000ff;stroke-linecap:round"
       id="path4313"
       inkscape:connector-curvature="0" />
    <path
       d="m 1113.75,-2772.6378 a 22.5,22.5 0 0 0 0,-45"
       style="fill:none;stroke:#0000ff;stroke-linecap:round"
       id="path4315"
       inkscape:connector-curvature="0" />
    <path
       d="m 149.4561,-2373.9643 a 5.175,5.175 0 1 0 -10.35,0 5.175,5.175 0 1 0 10.35,0 z"
       style="fill:none;stroke:#0000ff;stroke-linecap:round"
       id="path4317"
       inkscape:connector-curvature="0" />
    <path
       d="m 223.53508,-2693.3878 a 4.005,4.005 0 1 0 -8.01,0 4.005,4.005 0 1 0 8.01,0 z"
       style="fill:none;stroke:#0000ff;stroke-linecap:round"
       id="path4319"
       inkscape:connector-curvature="0" />
    <path
       d="m 26.520975,-2457.1378 a 4.005,4.005 0 1 0 -8.01,0 4.005,4.005 0 1 0 8.01,0 z"
       style="fill:none;stroke:#0000ff;stroke-linecap:round"
       id="path4321"
       inkscape:connector-curvature="0" />
    <path
       d="m 289.7108,-2737.3873 a 5.625,5.625 0 1 0 -11.25,0 5.625,5.625 0 1 0 11.25,0 z"
       style="fill:none;stroke:#0000ff;stroke-linecap:round"
       id="path4323"
       inkscape:connector-curvature="0" />
    <path
       d="m 139.02097,-2862.1378 a 4.005,4.005 0 1 0 -8.01,0 4.005,4.005 0 1 0 8.01,0 z"
       style="fill:none;stroke:#0000ff;stroke-linecap:round"
       id="path4325"
       inkscape:connector-curvature="0" />
    <path
       d="m 409.02098,-2862.1378 a 4.005005,4.005005 0 1 0 -8.01001,0 4.005005,4.005005 0 1 0 8.01001,0 z"
       style="fill:none;stroke:#0000ff;stroke-linecap:round"
       id="path4327"
       inkscape:connector-curvature="0" />
    <path
       d="m 223.53508,-2783.3878 a 4.005,4.005 0 1 0 -8.01,0 4.005,4.005 0 1 0 8.01,0 z"
       style="fill:none;stroke:#0000ff;stroke-linecap:round"
       id="path4329"
       inkscape:connector-curvature="0" />
    <path
       d="m 26.520975,-2817.1378 a 4.005,4.005 0 1 0 -8.01,0 4.005,4.005 0 1 0 8.01,0 z"
       style="fill:none;stroke:#0000ff;stroke-linecap:round"
       id="path4331"
       inkscape:connector-curvature="0" />
    <path
       d="m 1691.521,-2862.1378 a 4.005,4.005 0 1 0 -8.01,0 4.005,4.005 0 1 0 8.01,0 z"
       style="fill:none;stroke:#0000ff;stroke-linecap:round"
       id="path4333"
       inkscape:connector-curvature="0" />
    <path
       d="m 1421.521,-2862.1378 a 4.005,4.005 0 1 0 -8.01,0 4.005,4.005 0 1 0 8.01,0 z"
       style="fill:none;stroke:#0000ff;stroke-linecap:round"
       id="path4335"
       inkscape:connector-curvature="0" />
    <path
       d="m 1607.0069,-2783.3878 a 4.005,4.005 0 1 0 -8.01,0 4.005,4.005 0 1 0 8.01,0 z"
       style="fill:none;stroke:#0000ff;stroke-linecap:round"
       id="path4337"
       inkscape:connector-curvature="0" />
    <path
       d="m 1804.021,-2817.1378 a 4.005,4.005 0 1 0 -8.01,0 4.005,4.005 0 1 0 8.01,0 z"
       style="fill:none;stroke:#0000ff;stroke-linecap:round"
       id="path4339"
       inkscape:connector-curvature="0" />
    <path
       d="m 1822.5,-2885.1378 0,1130.6872"
       style="fill:none;stroke:#0000ff;stroke-linecap:round"
       id="path4341"
       inkscape:connector-curvature="0" />
    <path
       d="m 351.86705,-1806.6817 a 5.625,5.625 0 1 0 -11.25,0 5.625,5.625 0 1 0 11.25,0 z"
       style="fill:none;stroke:#0000ff;stroke-linecap:round"
       id="path4343"
       inkscape:connector-curvature="0" />
    <path
       d="m 1804.021,-2187.1378 a 4.005,4.005 0 1 0 -8.01,0 4.005,4.005 0 1 0 8.01,0 z"
       style="fill:none;stroke:#0000ff;stroke-linecap:round"
       id="path4345"
       inkscape:connector-curvature="0" />
    <path
       d="m 1804.021,-1827.1378 a 4.005,4.005 0 1 0 -8.01,0 4.005,4.005 0 1 0 8.01,0 z"
       style="fill:none;stroke:#0000ff;stroke-linecap:round"
       id="path4347"
       inkscape:connector-curvature="0" />
    <path
       d="m 336.88138,-2678.7913 a 4.005,4.005 0 1 0 -8.01,0 4.005,4.005 0 1 0 8.01,0 z"
       style="fill:none;stroke:#0000ff;stroke-linecap:round"
       id="path4349"
       inkscape:connector-curvature="0" />
    <path
       d="m 621.86041,-1661.6378 a 22.5,22.5 0 1 0 -45,0 22.5,22.5 0 1 0 45,0 z"
       style="fill:none;stroke:#0000ff;stroke-linecap:round"
       id="path4351"
       inkscape:connector-curvature="0" />
    <path
       d="m 793.2503,-1534.7631 236.7504,0"
       style="fill:none;stroke:#0000ff;stroke-linecap:round"
       id="path4353"
       inkscape:connector-curvature="0" />
    <path
       d="m 1554.3747,-2044.5342 a 4.005,4.005 0 1 0 -8.01,0 4.005,4.005 0 1 0 8.01,0 z"
       style="fill:none;stroke:#0000ff;stroke-linecap:round"
       id="path4355"
       inkscape:connector-curvature="0" />
    <path
       d="m 1480.21,-1811.5455 a 5.625,5.625 0 1 0 -11.25,0 5.625,5.625 0 1 0 11.25,0 z"
       style="fill:none;stroke:#0000ff;stroke-linecap:round"
       id="path4357"
       inkscape:connector-curvature="0" />
    <path
       d="m 1683.3967,-2373.938 a 5.175,5.175 0 1 0 -10.35,0 5.175,5.175 0 1 0 10.35,0 z"
       style="fill:none;stroke:#0000ff;stroke-linecap:round"
       id="path4359"
       inkscape:connector-curvature="0" />
    <path
       d="m 1607.0069,-2693.3878 a 4.005,4.005 0 1 0 -8.01,0 4.005,4.005 0 1 0 8.01,0 z"
       style="fill:none;stroke:#0000ff;stroke-linecap:round"
       id="path4361"
       inkscape:connector-curvature="0" />
    <path
       d="m 0,-2885.1378 0,1129.7185"
       style="fill:none;stroke:#0000ff;stroke-linecap:round"
       id="path4363"
       inkscape:connector-curvature="0" />
    <path
       d="m 753.75,-2885.1378 -753.75,0"
       style="fill:none;stroke:#0000ff;stroke-linecap:round"
       id="path4365"
       inkscape:connector-curvature="0" />
    <path
       d="m 0.015975,-1754.9193 215.562855,-33.7188"
       style="fill:none;stroke:#0000ff;stroke-linecap:round"
       id="path4367"
       inkscape:connector-curvature="0" />
    <path
       d="m 1777.2345,-2417.5729 a 22.5,22.5 0 1 0 -45,0 22.5,22.5 0 1 0 45,0 z"
       style="fill:none;stroke:#0000ff;stroke-linecap:round"
       id="path4369"
       inkscape:connector-curvature="0" />
    <path
       d="m 91.67334,-2415.0421 a 22.5,22.5 0 1 0 -45,0 22.5,22.5 0 1 0 45,0 z"
       style="fill:none;stroke:#0000ff;stroke-linecap:round"
       id="path4371"
       inkscape:connector-curvature="0" />
    <path
       d="m 1238.4,-2348.5651 a 113.4,113.4 0 1 0 -226.8,0 113.4,113.4 0 1 0 226.8,0 z"
       style="fill:none;stroke:#0000ff;stroke-linecap:round"
       id="path4373"
       inkscape:connector-curvature="0" />
    <path
       d="m 810.9,-2348.5651 a 113.4,113.4 0 1 0 -226.8,0 113.4,113.4 0 1 0 226.8,0 z"
       style="fill:none;stroke:#0000ff;stroke-linecap:round"
       id="path4375"
       inkscape:connector-curvature="0" />
    <path
       d="m 1469.2863,-2514.5645 a 28.57155,28.57155 0 1 0 -57.1431,0 28.57155,28.57155 0 1 0 57.1431,0 z"
       style="fill:none;stroke:#0000ff;stroke-linecap:round"
       id="path4377"
       inkscape:connector-curvature="0" />
    <path
       d="m 1365.5421,-2600.9482 a 28.57155,28.57155 0 1 0 -57.1431,0 28.57155,28.57155 0 1 0 57.1431,0 z"
       style="fill:none;stroke:#0000ff;stroke-linecap:round"
       id="path4379"
       inkscape:connector-curvature="0" />
    <path
       d="m 1261.7979,-2687.3319 a 28.57155,28.57155 0 1 0 -57.1431,0 28.57155,28.57155 0 1 0 57.1431,0 z"
       style="fill:none;stroke:#0000ff;stroke-linecap:round"
       id="path4381"
       inkscape:connector-curvature="0" />
    <path
       d="m 1047.1465,-2705.1378 a 28.571534,28.571534 0 1 0 -57.14303,0 28.571534,28.571534 0 1 0 57.14303,0 z"
       style="fill:none;stroke:#0000ff;stroke-linecap:round"
       id="path4383"
       inkscape:connector-curvature="0" />
    <path
       d="m 939.82153,-2705.1378 a 28.571534,28.571534 0 1 0 -57.14306,0 28.571534,28.571534 0 1 0 57.14306,0 z"
       style="fill:none;stroke:#0000ff;stroke-linecap:round"
       id="path4385"
       inkscape:connector-curvature="0" />
    <path
       d="m 832.49653,-2705.1378 a 28.571534,28.571534 0 1 0 -57.14306,0 28.571534,28.571534 0 1 0 57.14306,0 z"
       style="fill:none;stroke:#0000ff;stroke-linecap:round"
       id="path4387"
       inkscape:connector-curvature="0" />
    <path
       d="m 617.84518,-2687.3319 a 28.571535,28.571535 0 1 0 -57.14307,0 28.571535,28.571535 0 1 0 57.14307,0 z"
       style="fill:none;stroke:#0000ff;stroke-linecap:round"
       id="path4389"
       inkscape:connector-curvature="0" />
    <path
       d="m 514.10098,-2600.9482 a 28.571535,28.571535 0 1 0 -57.14307,0 28.571535,28.571535 0 1 0 57.14307,0 z"
       style="fill:none;stroke:#0000ff;stroke-linecap:round"
       id="path4391"
       inkscape:connector-curvature="0" />
    <path
       d="m 410.35679,-2514.5645 a 28.571535,28.571535 0 1 0 -57.14307,0 28.571535,28.571535 0 1 0 57.14307,0 z"
       style="fill:none;stroke:#0000ff;stroke-linecap:round"
       id="path4393"
       inkscape:connector-curvature="0" />
  </g>
  <g
     inkscape:groupmode="layer"
     inkscape:label="DT_COMPONENTS"
     id="g4395"
     transform="translate(90.507121,2975.6449)" />
  <g
     inkscape:groupmode="layer"
     inkscape:label="DTR250"
     id="g4397"
     transform="translate(90.507121,2975.6449)" />
  <g
     inkscape:groupmode="layer"
     inkscape:label="UNASSIGNED"
     id="g4399"
     transform="translate(90.507121,2975.6449)" />
  <g
     inkscape:groupmode="layer"
     inkscape:label="CONSTRUCTION"
     id="g4401"
     transform="translate(90.507121,2975.6449)" />
</svg>
